<?xml version="1.0" standalone="no"?>
<!DOCTYPE svg PUBLIC "-//W3C//DTD SVG 1.1//EN" "http://www.w3.org/Graphics/SVG/1.1/DTD/svg11.dtd" >
<svg xmlns="http://www.w3.org/2000/svg" xmlns:xlink="http://www.w3.org/1999/xlink" version="1.1">
<metadata>
Created by FontForge 20201107 at Mon Mar 27 22:45:01 2023
 By 
MIT License

Copyright (c) 2018 Shannon Miwa
Copyright (c) 2023 Jesus Gonzalez

Permission is hereby granted, free of charge, to any person obtaining a copy
of this software and associated documentation files (the "Software"), to deal
in the Software without restriction, including without limitation the rights
to use, copy, modify, merge, publish, distribute, sublicense, and/or sell
copies of the Software, and to permit persons to whom the Software is
furnished to do so, subject to the following conditions:

The above copyright notice and this permission notice shall be included in all
copies or substantial portions of the Software.

THE SOFTWARE IS PROVIDED "AS IS", WITHOUT WARRANTY OF ANY KIND, EXPRESS OR
IMPLIED, INCLUDING BUT NOT LIMITED TO THE WARRANTIES OF MERCHANTABILITY,
FITNESS FOR A PARTICULAR PURPOSE AND NONINFRINGEMENT. IN NO EVENT SHALL THE
AUTHORS OR COPYRIGHT HOLDERS BE LIABLE FOR ANY CLAIM, DAMAGES OR OTHER
LIABILITY, WHETHER IN AN ACTION OF CONTRACT, TORT OR OTHERWISE, ARISING FROM,
OUT OF OR IN CONNECTION WITH THE SOFTWARE OR THE USE OR OTHER DEALINGS IN THE
SOFTWARE.
</metadata>
<defs>
<font id="ComicShannsMono-Regular" horiz-adv-x="550" >
  <font-face 
    font-family="Comic Shanns Mono-Regular"
    font-weight="400"
    font-stretch="normal"
    units-per-em="1000"
    panose-1="0 0 0 0 0 0 0 0 0 0"
    ascent="750"
    descent="-250"
    x-height="466"
    cap-height="664"
    bbox="-22.5111 -596.08 608.2 1170.08"
    underline-thickness="0"
    underline-position="0"
    unicode-range="U+0020-F6C3"
  />
<missing-glyph horiz-adv-x="500" 
d="M50 -250v950h400v-950h-400zM100 -200h300v850h-300v-850z" />
    <glyph glyph-name=".notdef" horiz-adv-x="500" 
d="M50 -250v950h400v-950h-400zM100 -200h300v850h-300v-850z" />
    <glyph glyph-name=".null" horiz-adv-x="0" 
 />
    <glyph glyph-name="nonmarkingreturn" horiz-adv-x="333" 
 />
    <glyph glyph-name="space" unicode=" " 
 />
    <glyph glyph-name="exclam" unicode="!" 
d="M330 690q0 -21 -1.5 -55t-3 -75t-2 -87.5t0.5 -92.5q1 -47 1 -63t-1 -21t-1.5 -10.5t0.5 -32.5q-2 -21 -16.5 -32.5t-33.5 -10.5q-17 0 -30 12t-11 36q1 19 3 27.5t3.5 22t1.5 42t-2 85.5q-3 78 -1 145.5t3 106.5q1 27 15 39t31 12q19 1 31.5 -10t12.5 -38zM278 -23
q-36 -4 -57 20t-21 53t24.5 49.5t53.5 21.5q34 1 54 -20t20 -50t-20 -49.5t-54 -24.5z" />
    <glyph glyph-name="quotedbl" unicode="&#x22;" 
d="M249 690v-48q0 -34 -1 -71.5t-2.5 -73t-3.5 -53.5q-3 -20 -17.5 -29t-27.5 -8q-16 1 -32 11t-14 32q2 16 2.5 50.5t0 72t-1.5 72t-2 50.5q-1 25 18 31.5t34 5.5q15 0 30.5 -8.5t16.5 -33.5zM399 690v-48q0 -34 -1 -71.5t-2.5 -73t-3.5 -53.5q-3 -20 -17.5 -29t-27.5 -8
q-16 1 -32 11t-14 32q2 16 2.5 50.5t0 72t-1.5 72t-2 50.5q-1 25 18 31.5t34 5.5q15 0 30.5 -8.5t16.5 -33.5z" />
    <glyph glyph-name="numbersign" unicode="#" 
d="M75 252q10 1 22 1t24 1q7 38 15.5 79.5t16.5 81.5q-11 0 -21 -0.5t-18 -0.5q-25 -1 -36.5 10.5t-11.5 26.5q-1 15 10.5 27.5t36.5 13.5q13 1 28 1h27q8 44 15.5 82t11.5 63q7 25 23.5 33.5t32.5 4.5q19 -4 30 -18.5t6 -39.5q-4 -22 -11 -53.5t-14 -69.5h106q7 42 14 77
t11 59q7 26 24 34t33 4q19 -4 30.5 -18t4.5 -40q-5 -20 -11 -50t-12 -65h11q24 0 38 -13t15 -26q0 -15 -10 -27.5t-35 -13.5h-34q-7 -39 -13.5 -79.5t-13.5 -80.5h38q24 0 31.5 -11t8.5 -24q0 -15 -7.5 -28t-32.5 -13h-52q-7 -43 -14 -80t-13 -65q-7 -20 -26.5 -30t-37.5 -5
q-17 4 -26 22t-2 42q4 15 10.5 45t13.5 70q-28 0 -56.5 -0.5t-54.5 -0.5q-8 -40 -15.5 -76t-13.5 -63q-7 -19 -27 -32t-38 -7q-17 4 -25.5 23.5t-1.5 44.5l11 44q7 28 15 65h-28q-25 0 -36.5 9.5t-11.5 24.5q-1 15 9.5 27.5t36.5 13.5zM247 416q-7 -39 -15.5 -79.5
t-16.5 -80.5q28 1 57 1h53q7 38 14.5 78.5t14.5 80.5h-107z" />
    <glyph glyph-name="dollar" unicode="$" 
d="M63 88q-13 25 -8 41.5t20 23.5q19 8 33 7t31 -26q16 -24 39.5 -43t63.5 -19h10q1 54 1.5 121.5t0.5 135.5q-10 1 -20.5 3t-21.5 3q-69 7 -105 44t-36 74q0 34 11 66t33 58t57 45.5t83 27.5q1 16 1 29v23q1 27 9 39t21 12q19 1 30.5 -10t11.5 -38v-50q11 -1 27 -4
t32.5 -6.5t31 -7.5t22.5 -7q19 -7 26 -21.5t5 -29.5q-3 -23 -22.5 -24.5t-33.5 2.5q-19 4 -34.5 13.5t-54.5 10.5q-1 -39 -1.5 -84t-1.5 -94q56 -7 92.5 -27t57.5 -47t29.5 -58t8.5 -61q0 -40 -15 -74t-40.5 -60.5t-60.5 -45t-75 -28.5v-41q0 -20 1 -33q-2 -21 -16 -32.5
t-33 -10.5q-13 0 -20 12t-5 36q1 8 1.5 23.5t1.5 36.5h-13q-69 0 -113 30.5t-62 64.5zM158 476q0 -23 25.5 -41t70.5 -25q1 44 1 86v78q-42 -10 -69.5 -35.5t-27.5 -62.5zM425 194q0 33 -19 65t-83 54q-1 -59 -1 -117.5t-1 -108.5q41 14 72.5 42t31.5 65z" />
    <glyph glyph-name="percent" unicode="%" 
d="M145 404q-51 1 -80 38.5t-28 84.5q0 55 31.5 93.5t91.5 38.5q22 0 43.5 -7.5t37 -24t24 -43t5.5 -64.5q-3 -54 -32 -85.5t-93 -30.5zM60 18q19 38 66 121t100 176t102 181t71 137q11 17 29 21t34 -5q16 -7 19 -22t-10 -35q-16 -27 -63 -109.5t-100.5 -178t-103 -186
t-71.5 -133.5q-13 -24 -27 -30t-30 1q-17 8 -22.5 23t6.5 39zM155 474q25 -1 36.5 15.5t13.5 39.5q1 33 -13.5 47.5t-38.5 14.5q-23 0 -35 -17t-14 -44q-1 -24 9 -39t42 -17zM395 -26q-51 1 -80 38.5t-28 84.5q0 55 31.5 93.5t91.5 38.5q22 0 43.5 -7.5t37 -24t24 -43
t5.5 -64.5q-3 -54 -32 -85.5t-93 -30.5zM405 45q24 -1 36 15.5t13 38.5q1 33 -13 47t-38 14q-22 0 -34.5 -17t-13.5 -43q-1 -23 9 -38.5t41 -16.5z" />
    <glyph glyph-name="ampersand" unicode="&#x26;" 
d="M488 -33q-17 -10 -38.5 1t-36.5 37q-4 7 -11 27t-14 34q-12 -15 -26 -33t-33 -34t-45 -27t-61 -11q-40 0 -74.5 15.5t-59.5 42t-39.5 62t-14.5 73.5q0 87 37 148t109 93q-18 29 -30 47.5t-20 34.5t-11.5 32.5t-3.5 41.5q0 19 7.5 41t24.5 41t45.5 31.5t71.5 12.5
q27 0 53.5 -8.5t47.5 -25.5t34 -42.5t13 -59.5q0 -39 -11.5 -67.5t-29.5 -49t-40 -35t-43 -24.5q22 -39 55 -83t54 -78q12 25 21 45.5t14 28.5q17 25 31.5 30t33.5 -3q15 -7 19.5 -27.5t-8.5 -45.5q-7 -14 -26 -35.5t-41 -55.5q14 -22 29 -49.5t23 -40.5q14 -22 10.5 -49.5
t-16.5 -34.5zM205 535q0 -25 13.5 -53.5t29.5 -47.5q38 12 62.5 32t24.5 66q0 37 -23 54t-49 17q-39 0 -48.5 -24.5t-9.5 -43.5zM128 163q0 -49 27 -81.5t69 -32.5q28 0 47.5 8t33.5 20t24 26t18 25q-7 16 -14 30t-14 27q-16 30 -42 65t-52 77q-57 -26 -77 -70t-20 -94z" />
    <glyph glyph-name="quotesingle" unicode="'" 
d="M329 680v-46q0 -30 -1 -63.5t-2.5 -66t-3.5 -50.5q-3 -20 -17.5 -29t-27.5 -8q-16 1 -32 11t-14 32q2 16 2.5 47t0 65t-1.5 65.5t-2 47.5q-1 25 18 31.5t34 5.5q15 0 30.5 -8.5t16.5 -33.5z" />
    <glyph glyph-name="parenleft" unicode="(" 
d="M386 -123q-47 0 -87.5 26t-71.5 72.5t-51.5 112t-27.5 142.5q-3 29 -3 74.5t4.5 95.5t13.5 100t24 88q12 30 32 61t46.5 55.5t57.5 40.5t64 16q11 0 24.5 -6.5t13.5 -31.5q0 -22 -12.5 -30t-27.5 -8q-25 0 -45.5 -14.5t-36.5 -38t-28 -53.5t-19 -62q-6 -25 -10.5 -61
t-6.5 -74t-2 -74.5t2 -62.5q5 -58 20.5 -111t36 -92t44.5 -62.5t46 -23.5q16 0 27 -8.5t11 -34.5q0 -16 -13 -26t-25 -10z" />
    <glyph glyph-name="parenright" unicode=")" 
d="M169 -123q-12 0 -25 10t-13 26q0 26 11 34.5t27 8.5q22 0 46 23.5t44.5 62.5t36 92t20.5 111q2 26 2 62.5t-2 74.5t-6.5 74t-10.5 61q-7 32 -19 62t-28 53.5t-36.5 38t-45.5 14.5q-15 0 -27.5 8t-12.5 30q0 25 13.5 31.5t24.5 6.5q33 0 64 -16t57.5 -40.5t46.5 -55.5
t32 -61q15 -38 24 -88t13.5 -100t4.5 -95.5t-3 -74.5q-7 -77 -27.5 -142.5t-51.5 -112t-71.5 -72.5t-87.5 -26z" />
    <glyph glyph-name="asterisk" unicode="*" 
d="M141 177q7 11 23.5 38.5t38.5 63.5q-34 -2 -64 -3.5t-49 -1.5q-25 0 -36.5 16t-11.5 31q-1 15 9 33.5t36 16.5q28 -2 60.5 -4.5t66.5 -4.5q-19 31 -36 58.5t-30 45.5q-14 21 -10.5 42t16.5 28q13 8 35 4t33 -28t25.5 -51.5t29.5 -55.5q16 28 31 55.5t25 50.5
q11 24 31 27.5t33 -4.5q13 -7 19.5 -26.5t-7.5 -40.5q-13 -19 -30 -47t-36 -62q37 0 67.5 2.5t48.5 7.5q23 7 37 -8.5t15 -28.5q0 -15 -8.5 -34t-33.5 -15q-20 4 -53 4.5t-72 -0.5q22 -37 39 -66t24 -42q11 -21 8 -38t-14 -24q-13 -7 -38.5 -5t-32.5 25q-7 21 -20 49t-29 59
q-18 -35 -32.5 -65t-21.5 -49q-8 -23 -32.5 -23t-37.5 7q-11 7 -19 24t3 39z" />
    <glyph glyph-name="plus" unicode="+" 
d="M98 316q31 -1 66.5 -1.5t72.5 -1.5q0 46 -0.5 86.5t-1.5 63.5q-1 25 13 32.5t29 7.5q15 1 29.5 -6.5t13.5 -32.5q-1 -31 -2 -70.5t-1 -80.5h145q24 0 31.5 -12t8.5 -25q0 -15 -7.5 -30t-32.5 -13q-14 1 -55 1.5t-91 -0.5q0 -55 0.5 -99.5t0.5 -60.5q0 -24 -12 -31.5
t-25 -8.5q-15 0 -29 7.5t-14 32.5v159q-42 -1 -79 -1.5t-59 -0.5q-25 0 -35.5 13.5t-10.5 28.5q-1 15 9.5 29.5t35.5 13.5z" />
    <glyph glyph-name="comma" unicode="," 
d="M349 90q-4 -18 -14.5 -56.5t-24 -79t-27 -76t-22.5 -47.5q-16 -21 -39 -28.5t-37 -2.5q-14 4 -23.5 20.5t3.5 36.5q10 15 25.5 51t30 76t26 76.5t14.5 52.5q4 21 23 25.5t34 0.5q13 -4 24 -16.5t7 -32.5z" />
    <glyph glyph-name="hyphen" unicode="-" 
d="M169 308q68 0 126.5 1.5t83.5 1.5q24 0 31.5 -11t8.5 -24q0 -15 -7.5 -28t-32.5 -13q-12 0 -37.5 -1.5t-56.5 -2.5t-62 -2.5t-53 -1.5q-25 0 -32.5 12.5t-7.5 27.5q-1 15 6.5 28t32.5 13z" />
    <glyph glyph-name="period" unicode="." 
d="M278 -13q-36 -4 -57 20t-21 53t24.5 49.5t53.5 21.5q34 1 54 -20t20 -50t-20 -49.5t-54 -24.5z" />
    <glyph glyph-name="slash" unicode="/" 
d="M498 632q-18 -34 -55.5 -98t-79.5 -133.5t-80.5 -134.5t-57.5 -100q-12 -22 -25 -49t-25.5 -53t-23.5 -47.5t-17 -32.5q-15 -26 -38 -36t-40 0q-13 7 -16.5 34.5t10.5 49.5q15 24 41 67.5t57.5 97t67 114.5t68.5 120q43 75 77 141t52 102q12 23 33 28t37 -3t21.5 -26
t-6.5 -41z" />
    <glyph glyph-name="zero" unicode="0" 
d="M261 -23q-87 1 -143.5 60.5t-55.5 162.5q0 30 -0.5 74.5t1.5 92.5t8.5 96.5t21.5 86.5q23 60 77.5 90.5t129.5 30.5q37 0 71 -13t60.5 -38.5t44 -65t21.5 -92.5q3 -33 4 -77.5t0 -89.5t-4.5 -85.5t-10.5 -65.5q-15 -55 -35 -88.5t-47.5 -50.5t-62.5 -22.5t-80 -5.5z
M153 215q0 -6 0.5 -11.5t0.5 -10.5q63 86 119.5 174t106.5 178q-16 24 -41 37t-54 13q-52 0 -81 -29.5t-44 -92.5q-6 -25 -8.5 -58.5t-2.5 -68.5t1.5 -69.5t2.5 -61.5zM261 56q48 0 83 19.5t54 81.5q2 7 5.5 39.5t6 76t3 93.5t-3.5 93q-50 -102 -109.5 -189t-127.5 -156
q12 -27 33.5 -42.5t55.5 -15.5z" />
    <glyph glyph-name="one" unicode="1" 
d="M94 79h69q37 -1 75 -2v28q0 15 -1 33q-1 32 -0.5 78.5t2.5 100.5t4.5 114t4.5 119q-22 -18 -50.5 -39.5t-50.5 -30.5q-19 -7 -38 10t-18 33q0 14 7 26t24 25q68 52 98.5 80.5t53.5 28.5q21 0 41.5 -17.5t20.5 -28.5q0 -19 -2 -63.5t-4 -93t-3.5 -91.5t-1.5 -58v-44v-36
q0 -17 0.5 -34.5t0.5 -41.5q0 -29 0.5 -52.5t1.5 -48.5q48 -1 84 -2t49 -1q28 0 37 -11.5t10 -24.5q1 -16 -8.5 -29.5t-40.5 -13.5q-13 0 -60.5 0.5t-105 1t-114 1t-86.5 0.5q-22 0 -31 12.5t-9 27.5q-1 16 8 30t33 14z" />
    <glyph glyph-name="two" unicode="2" 
d="M83 570q9 17 27.5 35.5t43.5 34t56.5 25.5t65.5 10q99 0 152.5 -46.5t53.5 -140.5q0 -47 -13 -79t-38.5 -57.5t-65 -48.5t-91.5 -51q-63 -34 -90.5 -83.5t-30.5 -103.5q111 -7 177 -1.5t109 7.5q14 1 33.5 0t22.5 -24q2 -15 -5 -36.5t-26 -21.5q-46 0 -98 -2t-102 -3.5
t-94 -1.5t-73 3q-21 2 -29.5 26t-8.5 67q0 30 10 63t29 65t46.5 60t61.5 47q56 31 91.5 53t56 41.5t28 42t7.5 54.5q0 50 -29.5 71t-79.5 21q-40 0 -72.5 -24t-48.5 -48q-17 -25 -31 -26t-33 7q-15 7 -20 23.5t8 41.5z" />
    <glyph glyph-name="three" unicode="3" 
d="M501 186q0 -94 -59 -151.5t-166 -57.5q-34 0 -65.5 10t-56.5 25.5t-43.5 34t-27.5 35.5q-11 22 -7 40t19 25q19 8 34 4.5t30 -23.5q17 -24 49 -48t72 -24q55 0 91.5 32t36.5 82q0 58 -39.5 92.5t-140.5 34.5q-19 0 -33 15.5t-14 34.5q0 18 9.5 31t30.5 13q76 0 121.5 31
t44.5 91q1 43 -30.5 63t-86.5 20q-40 0 -59.5 -19t-35.5 -42q-16 -22 -30.5 -24.5t-33.5 5.5q-15 7 -19 25t7 40q17 34 57.5 64t109.5 30q107 0 161 -45.5t53 -132.5q1 -34 -10.5 -59t-30 -41.5t-42.5 -26.5t-48 -15q73 -16 112.5 -52t39.5 -117z" />
    <glyph glyph-name="four" unicode="4" 
d="M402 -22q-17 0 -34 14t-18 28q-1 19 -0.5 69.5t0.5 119.5h-63q-33 0 -64 -1t-59.5 -4t-49.5 -7q-19 -4 -32 3.5t-20 21t-8 30t4 31.5q8 22 36 64t64.5 92t76.5 104t71 99q13 18 28.5 27t28.5 9q16 1 32.5 -6.5t20.5 -29.5q4 -26 7 -67t4.5 -88.5t2.5 -100.5t2 -103
q12 -1 21 -1h15q24 0 31.5 -11t8.5 -24q0 -15 -7.5 -28t-32.5 -13h-14q-9 0 -21 1q1 -57 2 -100t4 -56q6 -30 -5 -51.5t-32 -21.5zM343 563q-46 -60 -100 -136.5t-88 -145.5q44 3 96.5 3.5t98.5 -0.5q0 67 -1.5 140t-5.5 139z" />
    <glyph glyph-name="five" unicode="5" 
d="M69 81q-13 25 -8 41.5t20 23.5q19 8 33 7t31 -26q16 -24 43 -44.5t71 -20.5q70 0 111.5 55.5t41.5 148.5q0 54 -25 90.5t-80 36.5q-58 0 -85.5 -20.5t-50.5 -42.5q-10 -10 -29 -15.5t-39 2.5q-20 9 -26.5 42t-6.5 73.5t3.5 81t3.5 64.5q-8 12 -9.5 27.5t2 28.5t12.5 22.5
t23 9.5q30 0 72.5 -0.5t90.5 -1.5t99 -1.5t97 -0.5q19 0 26 -21.5t5 -36.5q-3 -23 -22.5 -24t-33.5 0q-44 2 -106 7.5t-172 -1.5q0 -16 -1 -39t-2 -47.5t-1 -48t1 -41.5q24 26 68 46t105 20q42 0 74.5 -15.5t54.5 -42.5t33.5 -63.5t11.5 -77.5q0 -140 -66.5 -217t-170.5 -77
q-86 0 -133.5 32t-65.5 66z" />
    <glyph glyph-name="six" unicode="6" 
d="M505 230q0 -53 -17 -99t-47 -79.5t-71.5 -53t-88.5 -19.5q-58 0 -101 22.5t-70.5 63.5t-41 99.5t-12.5 130.5q1 103 24.5 175.5t64 118.5t97 70t123.5 30q19 1 36.5 -6t19.5 -26q1 -12 -11.5 -25.5t-26.5 -17.5q-19 -6 -40.5 -9.5t-44.5 -12t-47.5 -24.5t-50.5 -46
q-22 -25 -39 -67.5t-21 -73.5q30 35 77 52t102 17q84 0 135 -51t51 -169zM295 367q-49 0 -90 -25.5t-65 -60.5q0 -19 0.5 -37.5t1.5 -28.5q2 -25 12 -53t27 -51t42.5 -38.5t58.5 -14.5q26 0 50.5 14.5t42.5 37t28.5 51.5t10.5 58q0 90 -32 119t-87 29z" />
    <glyph glyph-name="seven" unicode="7" 
d="M100 658q38 7 95.5 8.5t113 0t99.5 -3.5t54 -2q9 0 19.5 -4.5t17.5 -14t8.5 -24t-8.5 -34.5q-16 -35 -47.5 -84.5t-72 -117t-89.5 -156.5t-100 -202q-11 -25 -29.5 -37t-35.5 -8q-19 4 -27.5 22.5t1.5 39.5q54 108 103 192.5t88.5 149.5t68 113t40.5 85q-41 1 -87 1
t-86.5 -1t-72.5 -3t-47 -6q-23 -6 -34 12t-12 33q0 15 7.5 26t32.5 15z" />
    <glyph glyph-name="eight" unicode="8" 
d="M506 191q0 -36 -13 -74.5t-41.5 -70t-75.5 -52t-113 -20.5q-61 0 -103 19.5t-67 49.5t-36 67.5t-11 72.5q0 24 9.5 51t26.5 52t41 45.5t53 30.5q-51 24 -78 62t-27 76q0 17 6.5 46t27 56.5t59.5 48t103 20.5q65 0 104.5 -20t60 -48t27 -58t6.5 -49q0 -23 -10.5 -42
t-26 -34t-33.5 -27t-32 -22q45 -19 73 -42.5t43.5 -47.5t21 -47.5t5.5 -42.5zM159 503q0 -31 28.5 -55t94.5 -48q38 15 68.5 42.5t30.5 51.5q0 19 -9 39t-24 35.5t-36 25.5t-45 10q-45 0 -76.5 -32t-31.5 -69zM267 54q27 -1 54 7.5t49 24t35.5 38.5t13.5 52q0 16 -4.5 36
t-19 40t-42.5 40t-75 37q-69 -18 -110 -62t-41 -93q0 -27 12.5 -49.5t32 -37.5t45 -24t50.5 -9z" />
    <glyph glyph-name="nine" unicode="9" 
d="M54 448q0 53 17 97.5t47 77t71.5 50.5t88.5 18q116 0 171 -89t54 -248q-1 -95 -28 -163.5t-71.5 -113.5t-104.5 -68.5t-127 -29.5q-19 -1 -36.5 6t-19.5 26q-1 12 11.5 25.5t26.5 17.5q19 6 44 10.5t51.5 13t53.5 24t51 42.5q24 28 42 64t24 64q-28 -31 -70.5 -41.5
t-96.5 -10.5q-42 0 -78.5 19t-63 50.5t-42 73t-15.5 85.5zM277 303q40 0 79.5 18.5t63.5 51.5q1 22 -0.5 47t-2.5 35q-2 25 -12 53t-27 51t-42.5 38.5t-58.5 14.5q-26 0 -50.5 -13t-42.5 -34.5t-28.5 -49t-10.5 -56.5q0 -76 33.5 -116t98.5 -40z" />
    <glyph glyph-name="colon" unicode=":" 
d="M338 390q1 -18 -1 -34t-6 -32q-5 -20 -21.5 -29t-29.5 -8q-25 1 -41.5 11t-18.5 32t-2 34t1 31q1 25 24 31.5t38 5.5q15 0 35 -8.5t22 -33.5zM339 140q3 -18 1.5 -34.5t-5.5 -32.5q-5 -20 -25 -28.5t-33 -7.5q-16 1 -35 11t-21 32t-1 34t2 31q1 25 23 31.5t37 5.5
q15 0 34 -8.5t23 -33.5z" />
    <glyph glyph-name="semicolon" unicode=";" 
d="M349 351q1 -18 -1 -34t-6 -32q-5 -20 -21.5 -29t-29.5 -8q-16 1 -37 11t-23 32t-2 34t1 31q1 25 24 31.5t38 5.5q15 0 35 -8.5t22 -33.5zM331 69q-1 -13 -10 -50t-19.5 -77t-20 -74.5t-11.5 -42.5q-5 -20 -20 -28.5t-28 -7.5q-16 1 -32 11t-14 32q1 12 7 44.5t13.5 70
t15.5 73t12 54.5q7 29 21 33.5t29 3.5q7 0 17.5 -2t19.5 -6.5t15 -13t5 -20.5z" />
    <glyph glyph-name="less" unicode="&#x3c;" 
d="M70 295q-18 13 -17 41t18 38q50 37 98.5 76.5t93 77t87.5 71t83 57.5q31 19 50 5.5t26 -28.5q8 -16 -2 -32.5t-42 -38.5q-34 -24 -72.5 -53t-77 -59.5t-76 -59.5t-69.5 -53q41 -32 81.5 -68.5t78 -71.5t73.5 -66.5t69 -52.5q30 -19 40 -34t3 -31q-7 -13 -25.5 -21
t-51.5 2q-31 10 -76 46.5t-95 82t-102 93t-95 79.5z" />
    <glyph glyph-name="equal" unicode="=" 
d="M108 404q45 -1 98.5 -1.5t102 0t87.5 1t56 0.5q24 0 31.5 -11t8.5 -24q0 -15 -7.5 -29t-32.5 -12q-16 1 -60 1t-96 -1.5t-103 -2.5t-80 -1q-25 0 -37.5 12t-12.5 27q-1 15 9.5 28.5t35.5 12.5zM111 218q46 -1 99 -0.5t101 1t86 1.5t55 1q24 0 31.5 -11t8.5 -24
q0 -15 -7.5 -29t-32.5 -12q-16 1 -60.5 1t-97 -1.5t-104.5 -2.5t-81 -1q-25 0 -35.5 12.5t-10.5 27.5q-1 15 11 26.5t37 10.5z" />
    <glyph glyph-name="greater" unicode="&#x3e;" 
d="M500 366q18 -13 17 -41t-18 -38q-50 -37 -98.5 -76.5t-93 -77t-87.5 -71t-83 -57.5q-31 -19 -50 -5.5t-26 28.5q-8 16 2 32.5t42 38.5q34 24 72.5 53t77 59.5t76 59.5t69.5 53q-41 32 -81.5 68.5t-78 71.5t-73.5 66.5t-69 52.5q-30 19 -40 34t-3 31q7 13 25.5 21t51.5 -2
q31 -10 76 -46.5t95 -82t102 -93t95 -79.5z" />
    <glyph glyph-name="question" unicode="?" 
d="M317 245q-3 -22 -16 -36.5t-40 -7.5q-26 7 -34 24.5t-1 47.5q12 47 39 77t54.5 53t48.5 46t21 55q0 50 -29.5 71t-79.5 21q-17 0 -32 -8.5t-27.5 -20.5t-23 -26.5t-18.5 -26.5q-17 -25 -31 -26t-33 7q-15 7 -20 23.5t8 41.5q9 17 24.5 37.5t37 37.5t49.5 28.5t62 11.5
q99 0 152.5 -46.5t53.5 -140.5q0 -47 -23 -73.5t-52 -48.5t-56 -48.5t-34 -72.5zM269 -13q-36 -4 -57 20t-21 53t24.5 49.5t53.5 21.5q34 1 54 -20t20 -50t-20 -49.5t-54 -24.5z" />
    <glyph glyph-name="at" unicode="@" 
d="M517 274q0 -32 -4.5 -64t-15.5 -57.5t-29 -41.5t-44 -16q-38 0 -55 22.5t-21 56.5q-9 -27 -28 -45.5t-53 -18.5q-53 0 -85 34t-32 106q0 55 17 93t44 59t61 25t68 -9q21 -8 34 -22t7 -26q-11 -22 -32 -21t-41 6q-28 7 -57 -14.5t-29 -78.5q0 -9 1.5 -22.5t6 -25.5
t12.5 -20.5t22 -8.5q31 0 43 24t13 75q0 10 13 18t28 10.5t27 -1.5t11 -18q-7 -75 1 -100t24 -25q8 0 13 13t7.5 30.5t3.5 36t1 28.5q0 110 -18.5 170.5t-43.5 88.5t-50.5 33t-40.5 5q-37 0 -70 -23t-57 -65.5t-38.5 -103t-14.5 -134.5q0 -82 14.5 -138t37.5 -89t51 -47
t55 -14q63 0 91.5 24t46.5 54q10 16 19.5 26.5t24.5 4.5q13 -5 20 -18.5t-6 -44.5q-7 -19 -19.5 -41.5t-35 -41.5t-58 -31.5t-88.5 -11.5q-49 0 -92 24.5t-74.5 68t-49.5 105.5t-18 136q0 104 20 187t54 140t80.5 87t99.5 30q52 0 94.5 -16t72 -58.5t45.5 -117.5t16 -191z
" />
    <glyph glyph-name="A" unicode="A" 
d="M503 -2q-16 -7 -34 1t-30 39q-7 19 -19.5 72.5t-27.5 124.5q-18 -1 -43 -2.5t-53.5 -4t-59 -6t-58.5 -7.5q-22 -62 -38.5 -110.5t-22.5 -66.5q-10 -31 -27.5 -39t-33.5 -1q-15 7 -21 24.5t1 46.5q3 15 17.5 54.5t36.5 91.5q-8 5 -12.5 12.5t-4.5 14.5q-1 13 12.5 25
t32.5 18q21 50 45 102.5t47 100t45 88t40 66.5q13 18 24 27t24 9q16 1 31 -6.5t19 -29.5q8 -47 25.5 -136.5t37.5 -180t38.5 -164.5t28.5 -92q14 -26 4.5 -45t-24.5 -26zM325 563q-12 -18 -26 -47t-29.5 -64t-31 -75t-30.5 -80q51 6 94.5 9t74.5 4q-13 64 -26.5 130
t-25.5 123z" />
    <glyph glyph-name="B" unicode="B" 
d="M219 -13q-48 -4 -80 -7.5t-52 0.5h-3q-17 0 -30 12t-11 36q1 19 1.5 58.5t0 90.5t-2 110.5t-3.5 117.5q-1 39 -1.5 66.5t0.5 49t2 39.5t1 37q1 27 15 39t31 12h4q23 7 47 10.5t43.5 4.5t34 0.5t19.5 -0.5q95 0 157.5 -52.5t63.5 -141.5q1 -56 -25.5 -94.5t-68.5 -55.5
q23 -8 47 -21.5t43 -30.5t31 -35t12 -35q1 -35 -17.5 -70t-53.5 -64t-87 -49.5t-118 -26.5zM233 589q-17 0 -42.5 -2.5t-55.5 -9.5q-1 -41 -3.5 -96.5t-1.5 -133.5q16 -1 36.5 -1.5t46.5 -0.5q51 0 82 13t47.5 32.5t22 42t5.5 41.5q0 32 -14.5 54t-35 35.5t-44.5 19.5t-43 6
zM221 278h-51q-22 0 -38 -1q1 -59 3 -115t3 -99q14 1 32 1t38 1q45 1 81 14t61 31.5t38.5 39t13.5 36.5q0 22 -41.5 50t-139.5 42z" />
    <glyph glyph-name="C" unicode="C" 
d="M359 667q17 0 33.5 -2t29.5 -6q4 14 15 23t23 10q13 2 30 -7t21 -29q8 -37 8 -65v-44q0 -20 -14.5 -40.5t-29.5 -21.5q-15 -2 -33.5 8.5t-18.5 31.5q0 7 0.5 17t1.5 22q-11 7 -26 17t-33 10q-37 0 -78.5 -29.5t-76 -79.5t-57.5 -117t-23 -141q0 -31 10 -61.5t26.5 -54
t40 -38.5t50.5 -15q63 0 109 22t71 41q16 11 31 16t29 -5q13 -10 15.5 -27t-19.5 -42q-13 -15 -33.5 -31t-50 -29t-70 -21.5t-93.5 -7.5q-49 0 -88 20t-66 51.5t-41 71.5t-14 80q0 104 30.5 191.5t77 150t103.5 97t110 34.5z" />
    <glyph glyph-name="D" unicode="D" 
d="M315 -29q-101 -1 -161 14t-70 15q-17 0 -30 12t-11 36q1 21 1.5 63t0 96.5t-2 118.5t-3.5 129q-2 60 -0.5 96t2.5 66q1 27 15 39t31 12q22 0 93.5 -13t147.5 -59t136 -136.5t60 -243.5q0 -40 -14 -83.5t-41 -79t-66 -59t-88 -23.5zM131 325q2 -65 3 -124q2 -60 4 -119
q40 -17 82.5 -24t93.5 -7q27 0 49 18t38 45t24.5 60.5t8.5 64.5q0 87 -31 145.5t-76.5 96.5t-99 60.5t-97.5 38.5q-1 -60 -1 -120.5t2 -134.5z" />
    <glyph glyph-name="E" unicode="E" 
d="M455 -6q-16 1 -57.5 -1.5t-92.5 -5.5t-104 -5t-90 1q-20 1 -42 20.5t-26 49.5q-3 21 -3 60.5t0.5 90t0.5 110t-2 121.5q-2 66 -0.5 102.5t2.5 69.5q1 27 15 39t31 12q11 1 21 -3t17 -13q43 6 93 8.5t97 2.5t87 -2t62 -5q24 -3 31.5 -12.5t8.5 -22.5q0 -15 -7.5 -29
t-32.5 -12q-42 3 -88 4t-89 0t-83 -4t-70 -7q-1 -37 -2.5 -84t-1.5 -107q45 0 94.5 2.5t93.5 5t79.5 4.5t51.5 2q24 0 31.5 -11t8.5 -24q0 -15 -7.5 -28t-32.5 -13q-15 0 -55 -3t-88 -6.5t-96 -6.5t-79 -3q1 -32 1 -68t1 -67.5t2.5 -55.5t4.5 -33q10 -4 53 -4t93 2t95.5 5.5
t60.5 6.5q40 7 50.5 -9.5t11.5 -29.5q0 -15 -11 -30.5t-38 -13.5z" />
    <glyph glyph-name="F" unicode="F" 
d="M139 23q-2 -21 -19 -32.5t-36 -10.5q-17 0 -30 12t-11 36q1 20 1.5 61.5t0 95.5t-2 116.5t-3.5 123.5q-1 39 -1.5 66.5t0.5 49t2 39.5t1 37q1 27 15 39t31 12q11 1 21.5 -3t17.5 -13q45 3 93 5t92.5 3t84 0t68.5 -4q24 -2 31.5 -12t8.5 -23q0 -15 -9.5 -29t-34.5 -13
q-81 4 -166 1.5t-160 -8.5q-1 -38 -3 -85.5t-1 -110.5q37 4 81.5 4.5t86.5 -1.5t77.5 -6t54.5 -7q24 -4 31.5 -13t8.5 -22q0 -15 -7.5 -29t-32.5 -12q-19 3 -56 6t-79.5 4.5t-86 0.5t-77.5 -5q1 -39 2 -78.5t2 -75t2 -66.5t2 -53z" />
    <glyph glyph-name="G" unicode="G" 
d="M223 311q15 7 48 12.5t71 8.5t74.5 4t58.5 0q25 -1 33.5 -9t10.5 -21q1 -13 -2 -25.5t-18 -17.5q-1 -7 -2 -16t-2 -19q-3 -29 -22.5 -73t-51.5 -85t-76.5 -70.5t-97.5 -28.5q-49 0 -88 20t-66 51.5t-41 71.5t-14 80q0 107 30.5 196t77 152.5t103.5 99t110 35.5
q21 0 45 -5.5t45.5 -13.5t37.5 -16.5t22 -14.5q13 -13 13 -28.5t-3 -24.5q-4 -11 -17.5 -17t-28.5 -1q-8 3 -20 10.5t-26.5 15t-30 13.5t-30.5 6q-37 0 -78.5 -30.5t-76 -82t-57.5 -120t-23 -144.5q0 -31 10 -61.5t26.5 -54t40 -38.5t50.5 -15q29 0 57 22t50 53.5t38.5 67.5
t23.5 62q-25 -1 -54 -3.5t-56 -6t-49 -9t-34 -11.5q-16 -9 -30.5 1t-16.5 25t5 29.5t31 25.5z" />
    <glyph glyph-name="H" unicode="H" 
d="M151 620q0 -19 -2.5 -40.5t-2.5 -57.5q0 -37 1 -74t1 -76q83 1 149.5 11.5t102.5 12.5q0 10 -0.5 19.5t-0.5 19.5q-2 66 -0.5 107t2.5 75q1 27 15 39t31 12q19 1 33.5 -10t14.5 -38q0 -46 -2 -118.5t1 -171.5q2 -89 -2 -172.5t-3 -134.5q-2 -21 -19 -32.5t-36 -10.5
q-17 0 -30 12t-11 36q1 16 2.5 45.5t3 67.5t2 84t0.5 95q-19 -1 -51 -5.5t-68 -10t-72.5 -9.5t-63.5 -4q0 -4 -0.5 -9.5t-0.5 -9.5q-4 -75 -2.5 -140.5t2.5 -108.5q-2 -21 -19 -32.5t-36 -10.5q-17 0 -30 12t-11 36q2 22 2 78t1 130q1 69 3 135t0 129q-1 26 -1 42.5
t0.5 28.5t1.5 22t1 24q1 27 15 39t31 12q19 1 33.5 -10t14.5 -38z" />
    <glyph glyph-name="I" unicode="I" 
d="M85 62q29 1 65 2t73 2q1 24 3 60.5t2.5 80.5t0.5 95t-1 103q-3 71 -1 108t3 71q-40 1 -76 1t-60 -1q-25 -1 -36.5 10.5t-11.5 26.5q-1 15 10.5 27.5t36.5 13.5q102 3 195.5 2t174.5 -9q24 -2 33 -13.5t10 -24.5q0 -15 -10 -32t-35 -13q-19 3 -56 5.5t-81 4.5
q-1 -40 -2 -95.5t1 -136.5q2 -85 -1.5 -157.5t-3.5 -125.5q51 0 92.5 -0.5t57.5 -0.5q24 0 31.5 -11t8.5 -24q0 -15 -7.5 -30t-32.5 -11q-27 4 -79 4t-109 -1.5t-110.5 -3.5t-82.5 -2q-25 0 -36.5 9.5t-11.5 24.5q-1 15 9.5 27.5t36.5 13.5z" />
    <glyph glyph-name="J" unicode="J" 
d="M103 662q102 3 195.5 2t174.5 -9q24 -2 33 -13.5t10 -24.5q0 -15 -10 -32t-35 -13q-15 2 -41.5 4.5t-59.5 3.5q0 -35 2 -82.5t3.5 -98.5t1.5 -102.5t-3 -95.5q-10 -128 -38 -181t-72 -53q-50 0 -90 25t-68 57t-44 64t-18 47q-2 17 3 41.5t34 28.5q22 4 34 -8.5t12 -29.5
q0 -11 5.5 -32.5t19.5 -43t38.5 -38t62.5 -16.5q17 0 26.5 43.5t11.5 118.5q1 44 -1.5 125.5t-0.5 233.5q-53 1 -103.5 1.5t-81.5 -0.5q-25 -1 -36.5 10.5t-11.5 26.5q-1 15 10.5 27.5t36.5 13.5z" />
    <glyph glyph-name="K" unicode="K" 
d="M419 4q-10 12 -46 45.5t-80.5 74.5t-89.5 84.5t-72 75.5v-19q2 -78 4.5 -137.5t3.5 -104.5q-2 -21 -19 -32.5t-36 -10.5q-17 0 -30 12t-11 36q1 20 1.5 61.5t0 95.5t-2 116.5t-3.5 123.5q-3 70 -1 113.5t3 78.5q1 27 15 39t31 12q19 1 33.5 -10t14.5 -38q0 -36 -2 -94.5
t-3 -129.5q38 37 80 78t79 77t65 63t37 35q20 19 36.5 18.5t26.5 -10.5q10 -11 10 -27t-18 -38q-7 -8 -34 -36t-63 -64l-78 -78q-41 -41 -75 -74q31 -32 80.5 -78.5t96.5 -91t83.5 -81t41.5 -48.5q7 -16 0 -31t-17 -22q-14 -10 -30 -6.5t-32 22.5z" />
    <glyph glyph-name="L" unicode="L" 
d="M466 9q-38 -7 -98.5 -11.5t-120 -7t-106.5 -3.5t-57 -1q-17 0 -30 12t-11 36q3 43 11.5 113t14.5 186q1 32 1 73.5t-0.5 81t-1 72.5t-0.5 49q1 27 15 39t31 12q19 1 33.5 -10t14.5 -38q0 -46 -3.5 -130t-6.5 -185q-2 -66 -7.5 -119.5t-5.5 -110.5q43 0 93 2.5t95.5 7
t81.5 9.5t51 9q23 6 34 -12t12 -33q0 -15 -7.5 -26t-32.5 -15z" />
    <glyph glyph-name="M" unicode="M" 
d="M325 16q-6 -13 -21 -18t-31 -5q-19 -1 -31 6t-15 19q-6 24 -16.5 83.5t-22 133t-24 153.5t-21.5 145q-7 -63 -11.5 -135.5t-10.5 -160.5q-4 -71 -9.5 -117t-4.5 -65q1 -31 -13 -48t-31 -16q-20 1 -27 21t-7 48q0 19 6 71.5t11 114.5q4 50 9 110.5t10.5 114.5t12 95.5
t13.5 55.5q10 21 30.5 29t36.5 7q13 0 29 -6t22 -28q9 -35 19 -101.5t19 -141.5t17.5 -148.5t15.5 -122.5q3 40 8.5 103t12.5 135q5 44 11.5 87t13.5 80t13 65.5t10 43.5q6 22 27.5 28.5t37.5 5.5q13 0 35 -4t26 -35q4 -27 10 -108.5t12.5 -172.5t13 -170t11.5 -101
q7 -29 1 -46.5t-21 -24.5q-16 -7 -33.5 1t-27.5 39q-6 20 -11.5 81.5t-10 141t-8 166t-5.5 157.5q-8 -41 -19 -107.5t-16 -138.5q-4 -56 -10.5 -109.5t-13 -97t-12.5 -73.5t-10 -40z" />
    <glyph glyph-name="N" unicode="N" 
d="M488 10q-6 -13 -21 -18t-31 -5q-19 -1 -30.5 7t-15.5 18q-11 24 -45 82.5t-75 132.5t-81 153.5t-64 145.5q4 -66 4 -141.5t-1.5 -143t-3.5 -121t-1 -74.5q1 -31 -13 -44.5t-31 -12.5q-20 1 -27 17.5t-7 44.5q0 25 2 97t3.5 156.5t2 166t-2.5 127.5q-2 39 20.5 51t45.5 9
q13 0 28.5 -6t22.5 -28q11 -34 43.5 -100.5t72 -140t79 -143.5t64.5 -111q1 46 1.5 115.5t0 140t-2.5 131.5t-6 90q-3 23 9 38t30 15q27 0 33.5 -12.5t10.5 -38.5q1 -9 2 -97t0 -192.5t-4.5 -197t-11.5 -111.5z" />
    <glyph glyph-name="O" unicode="O" 
d="M245 -23q-44 1 -80.5 21t-62.5 54.5t-40.5 80.5t-13.5 97q0 60 3.5 142.5t32.5 159.5q23 60 82 99.5t134 39.5q37 0 71.5 -14.5t61.5 -42t45.5 -68.5t22.5 -94q3 -33 4 -74t0 -81.5t-4.5 -77.5t-10.5 -62q-15 -55 -38.5 -90.5t-54 -55t-69 -27t-83.5 -7.5zM245 56
q48 0 93 26t64 88q2 7 5.5 35.5t6 68.5t3 86.5t-3.5 90.5q-5 60 -39.5 102t-84.5 42q-52 0 -85.5 -38.5t-48.5 -101.5q-12 -50 -15 -103t-1 -107q1 -34 7 -68t18 -61t32 -43.5t49 -16.5z" />
    <glyph glyph-name="P" unicode="P" 
d="M258 215q-40 0 -68 3t-47 7q3 -66 7 -113.5t7 -88.5q1 -21 -16.5 -31.5t-36.5 -9.5q-17 1 -31 11.5t-12 34.5q1 20 1 62t-1 96t-2.5 117t-2.5 124q-1 66 -0.5 98t1.5 63l-2 3l-3 2q-12 16 -1.5 34t23.5 21q19 4 49 7.5t59 5.5t52 3t30 1q47 0 88 -13t70.5 -38t46.5 -62.5
t18 -85.5q0 -52 -16.5 -98t-47 -80t-72.5 -53.5t-93 -19.5zM264 589q-17 0 -51.5 -2.5t-66.5 -5.5q-1 -46 -3.5 -118.5t-1.5 -157.5q14 -5 34.5 -9.5t54.5 -4.5q62 0 96.5 19t51 46.5t20 59t3.5 56.5q0 34 -14.5 57t-35 36t-44.5 18.5t-43 5.5z" />
    <glyph glyph-name="Q" unicode="Q" 
d="M269 -23q-53 0 -93.5 20.5t-68 55t-42.5 81t-17 96.5q-2 58 3 139.5t34 158.5q23 60 81.5 101.5t133.5 41.5q74 0 131.5 -51.5t69.5 -167.5q3 -33 4.5 -74.5t0.5 -83t-4 -79.5t-8 -63q-11 -55 -35.5 -90t-56.5 -54q31 -45 60.5 -82t45.5 -58q10 -14 1.5 -33.5
t-18.5 -26.5q-14 -10 -31.5 -5t-30.5 21q-12 15 -43 60.5t-63 96.5q-13 -2 -27 -3t-27 -1zM269 56h10q-10 19 -18.5 36t-13.5 30q-11 29 -7.5 48.5t16.5 29.5q12 10 27.5 7t23.5 -26q9 -25 21.5 -50.5t27.5 -50.5q19 13 32.5 34t20.5 52q1 7 4 36t4.5 69.5t1 88t-5.5 91.5
q-7 66 -40.5 105t-83.5 39q-52 0 -86 -37.5t-49 -100.5q-12 -50 -15.5 -105.5t0.5 -106.5q3 -40 13.5 -74.5t27.5 -60t39.5 -40t49.5 -14.5z" />
    <glyph glyph-name="R" unicode="R" 
d="M427 7q-13 17 -41.5 47.5t-67.5 64.5t-86.5 67.5t-97.5 55.5q4 -70 10 -123t9 -96q1 -21 -16.5 -31.5t-36.5 -9.5q-17 1 -31 11.5t-12 34.5q1 21 2.5 39t2 44t0 65.5t-1.5 102.5q-1 38 1.5 78t0.5 108q-1 45 -5 89.5t-4 62.5v5q-1 8 2.5 16.5t9.5 14.5q6 7 15 11t19 4
q8 0 15.5 -2t13.5 -6q100 -5 171 -29t115 -58t64.5 -74.5t20.5 -78.5q0 -42 -18.5 -69.5t-52 -44t-80.5 -25.5t-103 -13q50 -26 93.5 -56.5t77.5 -61t57 -58t33 -48.5q7 -16 0 -31t-17 -22q-14 -10 -30.5 -6.5t-31.5 22.5zM146 465q0 -22 -3.5 -58.5t-6.5 -70.5
q8 -1 22 -1.5t37 0.5q102 5 160 20t58 61q0 34 -29 62t-71 49.5t-89 35.5t-82 20l2 -56q1 -28 2 -62z" />
    <glyph glyph-name="S" unicode="S" 
d="M52 62q-13 25 -8 41.5t20 23.5q19 8 33 7t31 -26q16 -24 45 -40t69 -16q28 0 59 10t57 28.5t43.5 45t17.5 58.5q0 22 -6.5 44t-27.5 41t-62.5 34t-110.5 22q-34 4 -60.5 18t-44.5 33.5t-27 42.5t-9 44q0 39 17.5 76t51.5 65t84.5 45.5t116.5 17.5q10 0 28 -1t37.5 -3
t37 -5t26.5 -6q19 -7 26 -21.5t5 -29.5q-3 -23 -22.5 -24.5t-33.5 2.5q-20 5 -42.5 9.5t-69.5 4.5q-31 0 -61.5 -7.5t-54 -21.5t-38 -33.5t-14.5 -44.5q0 -35 31 -60.5t90 -28.5q67 -3 111 -22.5t69.5 -47.5t35.5 -61.5t10 -65.5q0 -55 -22.5 -99t-60.5 -74.5t-87.5 -47
t-103.5 -16.5q-69 0 -118.5 27.5t-67.5 61.5z" />
    <glyph glyph-name="T" unicode="T" 
d="M88 667q19 -3 66 -5.5t103 -3.5t113.5 -2t97.5 -1q24 0 33 -12.5t10 -25.5q0 -15 -10 -30.5t-35 -14.5q-19 1 -57.5 2.5t-84.5 2.5q0 -48 1.5 -121t3.5 -150t4 -151t3 -124q-2 -21 -19 -32.5t-36 -10.5q-17 0 -30 12t-11 36q2 30 0.5 99.5t-4 150t-5 161.5t-1.5 133
q-46 2 -84 4t-57 5q-25 4 -36.5 13t-11.5 24q-1 15 10.5 30t36.5 11z" />
    <glyph glyph-name="U" unicode="U" 
d="M517 243q-3 -76 -28.5 -128.5t-62 -83.5t-80 -44.5t-80.5 -13.5q-32 0 -69.5 12.5t-70 41t-55 77t-24.5 119.5q-1 56 -2.5 111.5t-2 105t0 93t1.5 77.5q1 26 15.5 39.5t31.5 13.5q16 0 27.5 -10.5t11.5 -37.5v-76q0 -55 1 -116.5t2 -116t2 -74.5q2 -30 9.5 -61t23.5 -56
t41.5 -41t63.5 -16q63 0 106.5 43t49.5 137q3 43 4 98.5t0.5 107.5t-1 95.5t-0.5 62.5q0 44 13.5 53t29.5 9q17 0 29 -13.5t13 -38.5q3 -59 3.5 -157.5t-3.5 -211.5z" />
    <glyph glyph-name="V" unicode="V" 
d="M503 661q15 -7 23.5 -25.5t-3.5 -45.5q-9 -20 -36 -94.5t-58 -164t-59.5 -176t-39.5 -130.5q-6 -22 -20 -29.5t-30 -6.5q-13 0 -29.5 6.5t-24.5 27.5q-20 51 -50.5 138.5t-60 175t-52 159.5t-27.5 94q-7 29 -1 46.5t21 24.5q16 7 33.5 -1t27.5 -39q7 -22 26.5 -85.5
t43 -139.5t48 -152.5t40.5 -123.5q22 65 48.5 144.5t50 152t41.5 129t24 75.5q10 31 29 39t35 1z" />
    <glyph glyph-name="W" unicode="W" 
d="M235 642q6 13 21 18t31 5q19 1 31 -6t15 -19q4 -17 9.5 -53.5t11.5 -83.5t12 -102t13 -110q6 -49 13.5 -96t14.5 -87q9 74 16 160.5t14 192.5q4 55 5.5 91t0.5 51q-1 31 13 48t31 16q20 -1 27 -21t7 -48q0 -15 -2.5 -56t-6.5 -90q-5 -57 -11 -125.5t-12.5 -129.5
t-14 -108.5t-15.5 -62.5q-10 -21 -30.5 -29t-36.5 -7q-13 0 -29 6t-22 28q-9 35 -19 99t-17 140q-4 38 -7.5 78t-6.5 77t-6 70.5t-6 58.5q-4 -48 -12 -125.5t-17 -156t-18 -146t-16 -95.5q-6 -22 -28 -28.5t-38 -5.5q-13 0 -35 4t-26 35q-2 18 -10 61t-14 99t-11.5 119.5
t-11 120.5t-9.5 101t-5 61q-2 30 5 48t22 25q16 7 35.5 -2t18.5 -40q0 -17 2.5 -58.5t6.5 -95.5t9.5 -118t11.5 -126q4 -41 8.5 -80t8.5 -74q7 54 17.5 144.5t22 179.5t22 160.5t17.5 87.5z" />
    <glyph glyph-name="X" unicode="X" 
d="M429 5q-15 16 -34 46t-39 65.5t-41.5 74t-40.5 71.5q-20 -29 -44.5 -69.5t-47.5 -79.5t-41 -71t-26 -42q-18 -24 -35 -22.5t-30 13.5q-10 10 -14 26t12 42q10 17 32.5 50.5t48 73t51.5 80.5t45 73q-21 32 -45 67.5t-46 68.5t-40.5 61.5t-29.5 44.5q-16 25 -15 42.5
t14 27.5t34 11t41 -24q10 -13 28.5 -41t39 -61.5t42 -68.5t37.5 -61q16 29 36.5 65t39.5 69.5t36 60.5t26 40q16 23 34.5 24.5t31.5 -8.5q11 -9 15 -25.5t-9 -37.5q-10 -17 -30.5 -50t-44 -70.5t-46.5 -75t-38 -63.5q-1 -1 -2 -2.5t-2 -2.5q22 -35 45.5 -74t45 -75.5
t40.5 -67.5t32 -49q19 -25 19.5 -40.5t-8.5 -25.5q-11 -13 -31.5 -15t-45.5 25z" />
    <glyph glyph-name="Y" unicode="Y" 
d="M513 588q-8 -19 -19 -38.5t-21 -43.5q-13 -31 -34 -67.5t-42 -82.5q-32 -72 -77.5 -161.5t-103.5 -205.5q-8 -16 -27 -23.5t-37 6.5q-13 10 -19 26.5t5 36.5q27 54 51.5 102.5t46.5 91.5q-25 46 -48 85t-42 75q-29 53 -57.5 99t-46.5 95q-12 33 -3.5 51t23.5 25
q16 8 38 2t33 -43q17 -56 42 -101t50 -88q16 -28 30 -55.5t25 -53.5l10 19q4 9 8 19q24 53 48.5 100t44.5 96q7 17 16.5 34t16.5 36q13 34 32.5 41t35.5 0q13 -7 23.5 -26t-2.5 -51z" />
    <glyph glyph-name="Z" unicode="Z" 
d="M44 49q0 8 7 28t32 64q15 26 53 85t83 125.5t89 130t71 98.5q-37 -1 -77 -1.5t-77.5 -1t-70.5 -1t-57 -1.5q-22 -1 -31 12t-9 28q-1 16 15.5 31.5t40.5 15.5q31 0 57 -5.5t60 -5.5q68 -1 131 3.5t105 6.5q16 1 27.5 -14t12.5 -34q0 -6 -7.5 -16.5t-18 -22t-21.5 -24
t-17 -22.5q-29 -47 -68 -103t-79.5 -115t-80 -120t-69.5 -118q105 7 191.5 7t129.5 -6q28 -5 37 -15t10 -23q1 -16 -8.5 -29.5t-40.5 -13.5q-13 0 -57.5 1t-101 2t-116.5 1.5t-104 -1.5q-19 -1 -30 19t-11 35z" />
    <glyph glyph-name="bracketleft" unicode="[" 
d="M173 792q50 1 80 1q30 1 52 1h45q23 0 63 1q24 1 33 -12t10 -26q0 -15 -10 -32t-35 -13q-37 5 -87.5 5t-103.5 -1q0 -26 -1.5 -71t-3 -96t-2 -104t0.5 -95q1 -44 1 -94.5t-0.5 -99t-1 -92t-0.5 -73.5q71 -1 123.5 2t81.5 3q24 0 31.5 -11t8.5 -24q0 -15 -7.5 -30
t-32.5 -11q-54 7 -123 2t-128 -5q-25 0 -36.5 9.5t-11.5 24.5q0 4 1 9t2 9v9q1 19 3 66.5t3.5 108t1.5 128t-2 124.5q-1 39 -1.5 87t0.5 93.5t2 84t1 57.5v6q-2 4 -3 9t-1 9q-1 15 10.5 27.5t36.5 13.5z" />
    <glyph glyph-name="backslash" unicode="\" 
d="M320 166q-19 35 -57.5 100t-80.5 134.5t-79.5 133.5t-55.5 98q-12 23 -6.5 41t21.5 26t37 3t33 -28q18 -36 52 -102t77 -141q33 -59 68.5 -120t67 -114.5t57.5 -97t41 -67.5q14 -22 10.5 -49.5t-16.5 -34.5q-17 -10 -40 0t-38 36q-6 11 -17 32.5t-23.5 47.5t-25.5 53
t-25 49z" />
    <glyph glyph-name="bracketright" unicode="]" 
d="M158 -4q29 0 81.5 -3t123.5 -2q0 30 -0.5 73.5t-1 92t-0.5 99t1 94.5q1 42 0.5 95t-2 104t-3 96t-1.5 71q-53 1 -103.5 1t-87.5 -5q-25 -4 -35 13t-10 32q1 13 10 26t33 12q40 -1 63 -1h45q22 0 51.5 -0.5t80.5 -1.5q25 -1 36.5 -13.5t10.5 -27.5q0 -4 -1 -9t-3 -9v-6
q0 -19 1 -57.5t2 -84t0.5 -93.5t-1.5 -87q-2 -57 -2 -124.5t1.5 -128t3.5 -108t3 -66.5v-9q1 -4 2 -9t1 -9q0 -15 -11.5 -24.5t-36.5 -9.5q-59 0 -128 5t-123 -2q-25 -4 -32.5 11t-7.5 30q1 13 8.5 24t31.5 11z" />
    <glyph glyph-name="asciicircum" unicode="^" 
d="M235 866q13 18 41 17t38 -18q37 -50 60 -79t42 -50t39 -41t51 -54q12 -13 12.5 -25.5t-4.5 -22.5t-14.5 -17.5t-16.5 -10.5q-16 -8 -30 4t-41 40q-26 27 -43.5 45t-31 33.5t-27.5 33.5t-33 45q-27 -37 -44.5 -57t-32.5 -34.5t-31 -30t-41 -42.5q-24 -26 -36.5 -38
t-28.5 -5q-7 3 -15 10.5t-12.5 17.5t-3.5 22.5t12 26.5q18 24 38 46.5t43.5 48.5t50.5 59t59 76z" />
    <glyph glyph-name="underscore" unicode="_" 
d="M82 -14q63 -1 122.5 -1t110 0.5t90 1t63.5 0.5t31.5 -11.5t8.5 -25.5q0 -15 -7.5 -28t-32.5 -13q-21 0 -68.5 -0.5t-104 -0.5t-114 -0.5t-98.5 -0.5q-25 0 -32.5 12.5t-7.5 27.5q-1 14 6.5 27t32.5 12z" />
    <glyph glyph-name="grave" unicode="`" 
d="M293 581q-27 27 -66.5 69t-69.5 82q-13 17 -11 37t11 30q13 10 35 9t35 -17q26 -36 57 -80t64 -74q18 -17 21.5 -37.5t-7.5 -30.5q-10 -10 -30 -8.5t-39 20.5z" />
    <glyph glyph-name="a" unicode="a" 
d="M488 408q-8 -61 -12 -109t-3 -91.5t7.5 -88t18.5 -100.5q7 -31 -6.5 -43t-31.5 -13q-17 -1 -33 7t-24 39q-2 15 -5 30t-5 31q-23 -39 -60 -69t-91 -30q-41 1 -74.5 20t-56.5 47.5t-35.5 63t-12.5 66.5q0 92 22.5 153.5t59 98t85 51.5t99.5 15t86.5 -19t71.5 -59zM161 198
q0 -22 5 -47.5t15.5 -46.5t27 -35.5t38.5 -14.5q24 0 45 13t39 32.5t31.5 44t21.5 46.5q0 35 2 79.5t8 101.5q-19 16 -36.5 23.5t-48.5 7.5q-19 0 -45 -10t-48.5 -33.5t-38.5 -62.5t-16 -98z" />
    <glyph glyph-name="b" unicode="b" 
d="M505 258q1 -66 -16 -117t-45.5 -85t-66 -51.5t-75.5 -17.5q-46 0 -81.5 12.5t-60.5 31.5q-2 -25 -14.5 -32.5t-26.5 -8.5q-16 -1 -31 8.5t-15 42.5q0 62 -0.5 151t0 179t1.5 170.5t2 124.5q0 31 12 41t28 11q18 1 34 -9t15 -43q0 -25 -0.5 -85.5t-0.5 -135.5q26 18 61 30
t84 12q47 -1 84 -18.5t62 -47.5t38 -72t12 -91zM288 410q-39 1 -71 -14.5t-54 -34.5q0 -69 -0.5 -136.5t-1.5 -117.5q22 -22 50 -31t65 -9q68 0 104 50.5t35 132.5q-1 31 -9.5 59.5t-24.5 50.5t-39.5 35.5t-53.5 14.5z" />
    <glyph glyph-name="c" unicode="c" 
d="M471 372q9 -33 -2 -48.5t-27 -22.5q-18 -7 -36.5 -2t-28.5 35q-9 27 -18.5 50.5t-49.5 23.5q-19 0 -43 -9.5t-45.5 -32.5t-38 -62.5t-19.5 -98.5q-1 -21 1 -46.5t12.5 -47.5t33 -38t60.5 -18q54 -2 85 13.5t37 30.5q13 33 32 37.5t35 -2.5t24 -22t-7 -46
q-7 -15 -24 -32.5t-43.5 -31.5t-63.5 -23t-86 -8q-47 1 -83 18.5t-60 45.5t-36.5 64.5t-11.5 74.5q1 81 23 141.5t58.5 99.5t83.5 58.5t97 19.5q51 0 90 -37.5t51 -83.5z" />
    <glyph glyph-name="d" unicode="d" 
d="M510 31q-3 -19 -15 -27.5t-27 -11.5q-31 -6 -44 15t-16 53q-19 -28 -50.5 -50.5t-88.5 -22.5q-38 0 -76.5 17t-68.5 50.5t-48 84t-17 116.5q-1 47 13 87.5t40.5 70.5t64.5 47t85 18q46 0 82.5 -11.5t61.5 -28.5q1 75 2.5 136t3.5 87q3 36 18.5 47t31.5 11
q16 -1 28.5 -11.5t10.5 -46.5q-1 -25 -3.5 -81t-4 -120.5t-3 -128t-1.5 -104.5q1 -58 5 -92.5t8 -54t6.5 -29.5t1.5 -20zM278 70q29 0 49 8t34 21t24 29t18 30q0 22 -0.5 46t0.5 49q0 16 0.5 31.5t0.5 31.5q-19 31 -53 56t-75 24q-60 -2 -93 -47t-34 -102q-1 -83 33 -130.5
t96 -46.5z" />
    <glyph glyph-name="e" unicode="e" 
d="M479 56q-26 -36 -71.5 -59.5t-142.5 -22.5q-93 1 -144.5 67.5t-50.5 180.5q1 63 20 113t50.5 83.5t75.5 51t94 17.5q21 0 47 -9.5t50 -26t44 -40t29 -50.5q3 -13 -1.5 -27t-12.5 -26.5t-18 -23t-17 -15.5q-23 -17 -59 -33.5t-74 -31.5t-74 -27t-60 -21q7 -43 30.5 -73.5
t75.5 -32.5q27 -1 50.5 6.5t40.5 17t28 19t13 12.5q22 29 40 31.5t32 -7.5t20 -27.5t-15 -45.5zM290 414q-19 0 -40.5 -9t-40.5 -29t-32 -51.5t-16 -75.5q10 3 40 10.5t65 19.5t69 27t53 32q-22 44 -46 60t-52 16z" />
    <glyph glyph-name="f" unicode="f" 
d="M125 71q16 -1 31 -1t30 -1q1 12 0.5 18.5t-1.5 12.5t-2 14t-1 24q0 15 -1 40.5t-3 57.5t-4 68.5t-4 73.5q-13 -1 -24 -1h-22q-25 0 -32.5 12.5t-7.5 27.5q-1 15 6.5 28t32.5 13h45q-1 11 -1 22v21q0 57 21.5 98t57.5 66.5t84 37.5t99 12q19 0 32 -9t13 -28t-10 -31.5
t-25 -12.5q-84 0 -134 -39.5t-50 -102.5v-14q0 -9 1 -19q55 1 100 1.5t67 0.5q24 0 31.5 -11t8.5 -24q0 -15 -7.5 -28t-32.5 -13q-18 0 -65 -2t-99 -3q2 -57 5.5 -129.5t5.5 -138.5q1 -19 1 -28.5t1 -16.5q40 -1 71.5 -2t49.5 -1q25 0 35.5 -11t10.5 -25q0 -16 -11 -29.5
t-37 -13.5q-15 0 -48 -0.5t-72 -0.5t-79 0.5t-68 2.5q-27 1 -37 14.5t-9 29.5q0 16 10 28.5t37 11.5z" />
    <glyph glyph-name="g" unicode="g" 
d="M450 456q13 -7 14.5 -23t-3.5 -25q-1 -1 -2 -3t-2 -3q12 -3 17.5 -12.5t5.5 -23.5q0 -34 1 -84.5t1 -106t-2 -112t-6 -102.5q-6 -59 -30 -103.5t-59 -73t-79 -43t-90 -14.5q-33 0 -62.5 9.5t-43.5 16.5q-16 9 -25 15.5t-9 25.5t12.5 31t27.5 9q13 -2 34 -15.5t48 -13.5
q72 0 128.5 45t66.5 116q2 13 3 30t2 39q-20 -28 -55.5 -46t-94.5 -18q-93 1 -134 63t-41 176q1 72 23.5 123t58.5 82.5t83.5 46t97.5 14.5q51 0 72.5 -4.5t41.5 -15.5zM402 361q0 6 1.5 11.5t4.5 10.5l-6 1q-18 5 -43.5 9.5t-47.5 3.5q-23 -1 -48 -10t-46.5 -27.5
t-36.5 -48t-18 -71.5q-2 -36 1 -70.5t13.5 -60.5t30.5 -41.5t52 -14.5q35 1 60.5 13.5t42.5 30.5t26 39.5t12 41.5q1 38 1 84t1 99z" />
    <glyph glyph-name="h" unicode="h" 
d="M176 212v1q0 -8 -0.5 -17.5t-0.5 -19.5q-1 -49 -1 -84t-4 -69q-2 -21 -19 -32.5t-36 -10.5q-17 0 -30 12t-11 36q1 10 3 45.5t3.5 78t3 83t0.5 61.5q-2 43 -3 94t-1 101.5t0.5 96.5t1.5 79q1 27 15 39t31 12q19 1 33.5 -10t14.5 -38v-42q0 -34 0.5 -77.5t1 -89.5t0.5 -81
q19 34 63 64.5t122 30.5q32 0 53.5 -14.5t34.5 -39t18.5 -57t5.5 -67.5q-1 -76 4 -140t5 -119q0 -31 -15.5 -45.5t-33.5 -13.5q-16 1 -32 14.5t-16 36.5q0 51 2 106.5t1 118.5t-15.5 97.5t-42.5 34.5q-51 -1 -82 -26t-47.5 -56t-21.5 -59t-5 -34z" />
    <glyph glyph-name="i" unicode="i" 
d="M281 521q-36 -4 -57 20t-21 53t24.5 49.5t53.5 21.5q34 1 54 -20t20 -50t-20 -49.5t-54 -24.5zM106 65h145v34q0 17 -1 39q-2 63 0 121.5t4 118.5q-25 3 -53 1t-64 -1q-19 0 -28 11t-9 24q-1 16 8 28.5t28 12.5q28 2 68.5 4t89.5 1q15 0 24.5 -6.5t15 -16t7 -18.5
t1.5 -13q-7 -93 -5.5 -171t5.5 -169h117q24 0 31 -11.5t7 -25.5q-1 -14 -9 -26.5t-31 -12.5q-16 0 -62 -1t-100.5 -1.5t-107.5 -1.5t-82 -1q-25 0 -32.5 13.5t-6.5 28.5q0 15 7.5 27t32.5 12z" />
    <glyph glyph-name="j" unicode="j" 
d="M360 517q-37 0 -56 26t-19 55t23 45.5t52 17.5q34 1 54 -20t20 -50t-20 -51.5t-54 -22.5zM333 -13q0 31 -6 129.5t1 254.5q-11 -1 -37 -1h-55q-29 0 -57 0.5t-43 0.5q-22 0 -35 15t-12 31q0 13 12.5 23.5t33.5 11.5q12 1 42 2t66 2t71.5 1.5t59.5 -0.5q15 0 24.5 -6.5
t15 -16t7 -18.5t1.5 -13q-3 -24 -5.5 -38.5t-2.5 -36.5q0 -23 1 -63.5t2 -88.5t2 -101t1 -100q0 -72 -28 -119t-72 -74.5t-98.5 -38.5t-105.5 -11q-19 0 -32 9t-13 28t12.5 33t27.5 14q42 0 82 9.5t71 30t50 53t19 78.5z" />
    <glyph glyph-name="k" unicode="k" 
d="M419 4q-8 11 -31 39t-50 62.5t-52.5 71.5t-37.5 66q-22 -19 -41.5 -36.5t-34.5 -30.5l-1 -1h-1q-1 -49 2.5 -84.5t2.5 -60.5q-1 -31 -17 -41.5t-36 -9.5q-15 1 -30.5 11.5t-13.5 37.5q4 46 5 133t1 183t-0.5 186t-0.5 141q0 25 15.5 36t34.5 11q17 0 31 -10.5t14 -35.5
q0 -29 -0.5 -74t-1.5 -96.5t-2 -106.5t-2 -104q35 31 70 61.5t65 55.5t52.5 43.5t31.5 27.5q20 19 36.5 18.5t26.5 -10.5q10 -11 10 -27t-18 -38q-10 -11 -49 -46.5t-86 -76.5q17 -30 49 -72.5t63 -82.5t55 -71t24 -38q1 -17 -5 -28.5t-16 -18.5q-14 -10 -30.5 -8t-31.5 24z
" />
    <glyph glyph-name="l" unicode="l" 
d="M94 79h69q37 -1 75 -2v28q0 15 -1 33q-1 35 -1 96.5t1 131t2.5 140t2.5 121.5q-22 -1 -47.5 -1.5t-62.5 -0.5q-22 0 -32 14t-9 30q0 14 9.5 25.5t30.5 11.5q47 0 71.5 1t40 1.5t28 1t36.5 -0.5q6 0 10.5 -3.5t6.5 -10.5q6 -2 9 -6t3 -9q-3 -17 -5 -68t-3.5 -108
t-2 -107.5t-0.5 -65.5v-44v-36q0 -17 0.5 -34.5t0.5 -41.5q0 -29 0.5 -52.5t1.5 -48.5q48 -1 84 -2t49 -1q28 0 37 -11.5t10 -24.5q1 -16 -8.5 -29.5t-40.5 -13.5q-13 0 -60.5 0.5t-105 1t-114 1t-86.5 0.5q-22 0 -31 12.5t-9 27.5q-1 16 8 30t33 14z" />
    <glyph glyph-name="m" unicode="m" 
d="M134 28q0 -32 -14.5 -41t-30.5 -9q-15 1 -27.5 10t-12.5 40q0 13 -2 44t-3 66q-3 80 -2 156t2 136q1 34 18 48t34 13q16 0 28.5 -13t8.5 -47q-1 -12 -3.5 -23.5t-3.5 -23.5q17 36 47 64.5t77 28.5q19 0 33.5 -27t23.5 -67q18 33 52 63.5t90 30.5q29 0 40.5 -42t14 -106.5
t0.5 -142t1 -147.5q1 -40 -10.5 -50t-26.5 -10q-16 -1 -32.5 9.5t-18.5 50.5q-2 38 -1 97.5t1.5 115.5t-2 96.5t-12.5 40.5q-28 1 -50 -29.5t-35 -70.5q4 -74 -1 -140.5t-2 -116.5q2 -35 -12 -44.5t-30 -8.5q-15 0 -27 9.5t-15 43.5q-3 43 2.5 98.5t5.5 122.5q0 75 -2 105.5
t-19 30.5q-24 0 -48.5 -33t-40.5 -71q-1 -22 -0.5 -51.5t1.5 -58.5q0 -44 2 -84.5t2 -62.5z" />
    <glyph glyph-name="n" unicode="n" 
d="M176 427q-1 -7 -1.5 -15t-1.5 -16q19 30 59 55.5t101 25.5q66 0 98.5 -49t34.5 -131q2 -76 13.5 -142t14.5 -120q1 -31 -11.5 -43.5t-28.5 -12.5q-18 -1 -34.5 11.5t-18.5 44.5q-4 43 -11 99.5t-10 120.5q-4 77 -15 106t-45 29q-31 0 -56 -11.5t-44.5 -28.5t-34 -37.5
t-23.5 -38.5q-1 -24 -2 -49t0 -50q0 -44 5.5 -83t5.5 -64q0 -30 -16 -40t-35 -9q-15 1 -27.5 11.5t-13.5 37.5q-1 16 -5 45.5t-5 64.5q-3 78 4 153t8 135q1 31 18.5 43.5t35.5 11.5q17 0 30.5 -11.5t10.5 -42.5z" />
    <glyph glyph-name="o" unicode="o" 
d="M255 -25q-47 1 -84 22t-62.5 55.5t-39 79t-12.5 92.5q0 56 14.5 104.5t43 84t71 56t97.5 20.5q41 0 79.5 -15t67.5 -48.5t44.5 -87t11.5 -129.5q-7 -110 -60 -172.5t-171 -61.5zM275 54q58 -3 86 47t31 124q4 103 -30.5 147t-91.5 44q-56 0 -84.5 -52t-32.5 -138
q-2 -72 21.5 -120t100.5 -52z" />
    <glyph glyph-name="p" unicode="p" 
d="M82 484q7 15 22.5 22.5t29.5 5.5q15 -1 26 -13.5t7 -25.5q-1 -6 -3 -14.5t-3 -28.5q34 23 67 34.5t67 11.5q43 0 78 -12t60 -42.5t39 -83.5t15 -134q1 -38 -11.5 -79t-37 -75t-60.5 -56t-83 -23q-45 -1 -76 1.5t-52 9.5q1 -69 2 -126.5t1 -85.5q1 -25 -12.5 -36.5
t-29.5 -11.5q-16 1 -31 10.5t-16 38.5q-2 46 -4 128t-3 172.5t-1 176.5v138q0 46 2.5 68.5t6.5 29.5zM160 331q1 -43 2 -119q2 -76 3 -157q21 -8 51.5 -7.5t67.5 1.5q30 1 51 18t33.5 43.5t17.5 59t4 64.5q-2 50 -10.5 82t-22 50t-30.5 24.5t-36 6.5q-33 0 -69.5 -16.5
t-61.5 -38.5v-11z" />
    <glyph glyph-name="q" unicode="q" 
d="M482 430q14 -17 15.5 -33.5t-5.5 -23.5q-4 -4 -8.5 -7.5t-10.5 -5.5q0 -66 -0.5 -149t-1.5 -164t-3.5 -153t-7.5 -118q-3 -28 -19 -40.5t-32 -12.5t-29 12.5t-11 40.5t5 84.5t5 127.5q-21 -9 -50.5 -13.5t-69.5 -3.5q-47 1 -83 22t-60.5 53.5t-37 71.5t-11.5 76
q1 82 23.5 138t58.5 90t83.5 49t97.5 15q51 0 92 -16.5t60 -39.5zM270 49q34 -1 62.5 4t49.5 16q2 79 4 162.5t3 155.5q-18 10 -35 12.5t-45 2.5q-19 0 -43.5 -8.5t-46 -29t-37.5 -55t-18 -85.5q-1 -30 4 -60.5t17.5 -55.5t33.5 -41.5t51 -17.5z" />
    <glyph glyph-name="r" unicode="r" 
d="M194 428q-1 -14 -3 -28.5t-3 -28.5q10 17 32.5 35.5t54.5 34t75 24.5t93 8q11 -3 18.5 -20.5t11 -40.5t4 -46.5t-3.5 -38.5q-4 -19 -15 -27t-24 -12q-16 -4 -30.5 7.5t-16.5 27.5q-4 22 -3 39.5t-11 30.5q-40 0 -74 -18t-59.5 -41.5t-41.5 -47.5t-20 -37
q-1 -18 -1.5 -36.5t0.5 -37.5q0 -44 5 -85t6 -69t-14.5 -36t-32.5 -7q-16 1 -28.5 9.5t-14.5 33.5q-1 18 -6 50t-6 67q-3 78 4.5 153.5t8.5 135.5q1 31 17.5 42.5t35.5 11.5q17 0 30 -11t12 -42z" />
    <glyph glyph-name="s" unicode="s" 
d="M72 62q-7 29 -1 45.5t21 23.5q19 8 41 2t33 -33q11 -26 23.5 -38.5t52.5 -12.5q19 0 45.5 7.5t51 20.5t42 30t19.5 35q1 17 -18.5 27.5t-50.5 19t-70 17t-76 20.5q-54 18 -73 38.5t-19 60.5q0 72 81.5 116t249.5 44q9 0 16 -15.5t12 -35.5t8 -38.5t3 -23.5
q1 -16 -2.5 -32.5t-22.5 -22.5q-20 -7 -35.5 3.5t-19.5 21.5q-5 12 -9.5 23.5t-11.5 37.5q-25 0 -56.5 -4.5t-58.5 -14t-44.5 -24.5t-15.5 -35q1 -8 11.5 -14.5t25.5 -11.5t31.5 -8.5t29.5 -6.5q44 -9 83.5 -20.5t68.5 -28t44.5 -40t11.5 -54.5q-5 -41 -28 -73.5t-58 -54.5
t-81 -34t-96 -12q-51 0 -98 23t-60 72z" />
    <glyph glyph-name="t" unicode="t" 
d="M433 -8q-29 -11 -62.5 -15t-62.5 -3q-69 2 -120 44.5t-53 123.5q-2 72 1.5 128.5t7.5 107.5h-46q-25 0 -32.5 13t-6.5 28q0 15 7.5 27.5t32.5 12.5h22q13 0 27 -1q1 32 0.5 66.5t-4.5 74.5q-1 13 7.5 27.5t25.5 14.5q16 0 36 -12t22 -25q2 -22 1.5 -61t-1.5 -87
q58 -1 111 -3t72 -2q25 0 32.5 -13t7.5 -28q-1 -13 -8.5 -24t-31.5 -11q-22 0 -73.5 0.5t-112.5 1.5q-1 -35 -3 -70t-3 -65.5t-1.5 -54.5t0.5 -38q2 -40 27 -67t70 -28q25 -1 53.5 3.5t57.5 17.5q14 6 25.5 -2t15.5 -26q4 -19 -9.5 -33.5t-31.5 -21.5z" />
    <glyph glyph-name="u" unicode="u" 
d="M392 29v26q-31 -26 -84 -50.5t-110 -19.5q-25 2 -47 15.5t-38.5 32.5t-26 42t-10.5 45q-3 39 -4 76t-1 74q0 46 2.5 86.5t1.5 69.5q0 24 13.5 34.5t29.5 10.5q18 0 33.5 -10.5t15.5 -34.5q0 -23 -2.5 -63.5t-1.5 -87.5q0 -37 1 -73t6 -74q5 -37 21 -47t42 -10
q44 0 87.5 21t72.5 43q1 31 1 65t-1 74q0 37 -1 81t-3 72q0 21 12.5 32t28.5 12q17 0 33 -11t16 -33q3 -19 3.5 -53.5t1.5 -62.5q3 -82 3 -149v-132q0 -29 -13.5 -40t-29.5 -12q-19 -1 -35.5 9.5t-16.5 41.5z" />
    <glyph glyph-name="v" unicode="v" 
d="M320 -7q-4 -10 -15 -14t-23.5 -3.5t-24 5t-16.5 13.5q-66 122 -108.5 216.5t-73.5 175.5q-12 33 -2 51t25 25q16 8 38 0.5t33 -44.5q28 -91 62 -170.5t63 -145.5q45 87 80 167t59 156q10 34 29.5 42t35.5 1q13 -7 21 -25.5t-2 -51.5q-10 -31 -24.5 -65t-36 -79.5
t-51.5 -107t-69 -146.5z" />
    <glyph glyph-name="w" unicode="w" 
d="M448 9q-7 -21 -23.5 -28t-35.5 -6q-16 0 -30.5 6.5t-22.5 26.5q-13 33 -21.5 75.5t-15 86.5t-11 86t-9.5 74q-18 -70 -32 -156t-44 -177q-5 -16 -18 -23.5t-24 -7.5q-12 0 -26 7.5t-21 29.5q-33 107 -56 211.5t-30 198.5q-3 25 8.5 36.5t27.5 13.5t32 -6.5t20 -34.5
q4 -42 10.5 -89.5t13.5 -93.5t14 -89t13 -75q7 38 16.5 89t18.5 101.5t18.5 95t16.5 69.5q6 22 19.5 29.5t29.5 6.5q13 -1 25.5 -8t19.5 -29q1 -6 7.5 -45.5t15.5 -93.5t20.5 -113.5t22.5 -103.5q7 33 13.5 77t12.5 91t12 94.5t10 86.5q3 28 18.5 35.5t30.5 4.5
q14 -3 24 -15.5t7 -41.5q-5 -41 -13.5 -96.5t-18.5 -110.5t-22 -106t-23 -83z" />
    <glyph glyph-name="x" unicode="x" 
d="M413 5q-30 32 -68 75t-75 91q-19 -24 -41.5 -50t-42.5 -49.5t-36.5 -42.5t-23.5 -29q-18 -24 -35 -22.5t-30 13.5q-10 10 -14 26t12 42q10 16 29 36t41.5 43t46.5 48.5t43 52.5q-39 50 -76.5 85t-60.5 65q-18 24 -16 42t15 28t33 10t42 -23q11 -11 27 -29.5t33 -39.5
t34.5 -42.5t31.5 -39.5q36 48 66.5 90t52.5 64q19 20 36 23t30 -7q11 -9 16.5 -26.5t-10.5 -36.5q-28 -34 -61.5 -75t-77.5 -96l-1 -1l-2 -2q42 -56 81.5 -93.5t66.5 -73.5q19 -25 19.5 -40.5t-8.5 -25.5q-11 -13 -31.5 -15t-45.5 25z" />
    <glyph glyph-name="y" unicode="y" 
d="M513 397q-39 -92 -120 -254.5t-208 -413.5q-8 -16 -27 -23.5t-37 6.5q-13 10 -19 26.5t5 36.5q32 64 62.5 123.5t58.5 113.5q-57 108 -102.5 207t-73.5 173q-12 33 -3.5 51t23.5 25q16 8 38 2t33 -43q25 -81 63 -165.5t71 -152.5q43 87 80 167t67 157q13 34 32.5 41
t35.5 0q13 -7 23.5 -26t-2.5 -51z" />
    <glyph glyph-name="z" unicode="z" 
d="M64 49q0 8 7.5 22.5t43.5 51.5q17 17 52.5 51t74.5 72t76 75t56 60q-73 -3 -143 -3t-114 7q-22 4 -31 14.5t-9 25.5q-1 16 8 31t33 13q93 -10 174 -11t144 3q16 1 27.5 -14t12.5 -34q1 -13 -11 -33t-20 -33q-29 -44 -62 -79t-67.5 -66t-70 -62t-70.5 -67q96 6 157.5 6
t103.5 -6q28 -5 37 -15t10 -23q1 -16 -8.5 -29.5t-40.5 -13.5q-13 0 -50 1t-84 2t-99 1.5t-96 -1.5q-19 -1 -30 19t-11 35z" />
    <glyph glyph-name="braceleft" unicode="{" 
d="M353 263q0 -29 -8.5 -53t-18 -48t-18 -50.5t-8.5 -60.5q0 -16 13 -28.5t33 -20.5t43.5 -12t45.5 -4q18 0 33 -10t15 -27q0 -13 -9.5 -27.5t-34.5 -14.5q-44 0 -85 8.5t-72.5 25.5t-51 42.5t-19.5 60.5t8.5 62t19 51.5t19 48t8.5 50.5q0 8 -39.5 25.5t-108.5 17.5
q-19 0 -33 15.5t-14 34.5q0 18 9.5 31t30.5 13q28 0 55 2t47.5 7t33.5 15.5t13 26.5q0 9 -7.5 21t-17 30.5t-17 44.5t-7.5 63q0 87 60.5 139.5t167.5 52.5q19 0 32 -10.5t13 -23.5q0 -16 -17.5 -30.5t-31.5 -14.5q-65 0 -100.5 -28.5t-35.5 -74.5q0 -25 8.5 -50.5t18.5 -48
t18.5 -40.5t8.5 -27q0 -19 -11.5 -35t-29 -28t-40 -20.5t-43.5 -13.5q53 -16 88.5 -41t35.5 -46z" />
    <glyph glyph-name="bar" unicode="|" 
d="M328 735q0 -43 -2 -164q-1 -121 -2.5 -258.5t-2 -264.5t0.5 -180q-2 -21 -16 -32.5t-33 -10.5q-17 0 -26 12t-7 36q3 31 4 151.5t2 261t1 269.5t1 177q1 27 11 39t27 12q19 1 30.5 -10t11.5 -38z" />
    <glyph glyph-name="braceright" unicode="}" 
d="M202 449q0 29 8.5 51.5t18 44.5t18 47t8.5 59q0 16 -13 28.5t-33 20.5t-43.5 12t-45.5 4q-18 0 -33 10t-15 27q0 13 9.5 27.5t34.5 14.5q44 0 85 -8.5t72.5 -25.5t51 -42.5t19.5 -60.5t-8.5 -60.5t-19 -48t-19 -44.5t-8.5 -49q0 -8 39.5 -25.5t108.5 -17.5q19 0 33 -15.5
t14 -34.5q0 -18 -9.5 -31t-30.5 -13q-28 0 -55 -2t-47.5 -7t-33.5 -15.5t-13 -26.5q0 -9 7.5 -23t17 -34t17 -47.5t7.5 -64.5q0 -87 -60.5 -139.5t-167.5 -52.5q-19 0 -32 10.5t-13 23.5q0 16 17.5 30.5t31.5 14.5q65 0 100.5 28.5t35.5 74.5q0 25 -8.5 52t-18.5 51.5
t-18.5 44t-8.5 28.5q0 19 11.5 35t29 28t40 20.5t43.5 13.5q-53 16 -88.5 41t-35.5 46z" />
    <glyph glyph-name="asciitilde" unicode="~" 
d="M496 478q19 -8 14.5 -34t-14.5 -54q-35 -87 -71 -115t-67 -28q-41 0 -66.5 25t-47.5 65q-17 29 -27.5 44.5t-32.5 15.5t-34.5 -24.5t-30.5 -75.5q-7 -18 -26.5 -33t-34.5 -11q-9 2 -17 17t-3 34q25 93 65.5 142.5t77.5 49.5q34 0 59 -12.5t53 -65.5q16 -30 28 -51.5
t33 -21.5q11 0 19 0.5t16 7t17 21.5t21 43q4 10 11 22.5t16 23t20 15.5t22 0z" />
    <glyph glyph-name="exclamdown" unicode="&#xa1;" 
d="M234 738q36 4 57 -20t21 -53t-24.5 -49.5t-53.5 -21.5q-34 -1 -54 20t-20 50t20 49.5t54 24.5zM182 25q0 21 1.5 55t3 75t2 87.5t-0.5 92.5q-1 47 -1 63t1 21t1.5 10.5t-0.5 32.5q2 21 16.5 32.5t33.5 10.5q17 0 30 -12t11 -36q-1 -19 -3 -27.5t-3.5 -22t-1.5 -42
t2 -85.5q3 -78 1 -145.5t-3 -106.5q-1 -27 -15 -39t-31 -12q-19 -1 -31.5 10t-12.5 38z" />
    <glyph glyph-name="cent" unicode="&#xa2;" 
d="M481 502q9 -33 -2 -48.5t-27 -22.5q-16 -6 -33 -1.5t-27 34.5q-5 16 -17 28.5t-50 14.5q-1 -83 -2 -176.5t-2 -174.5q40 4 63.5 14t27.5 19q13 33 32 37.5t35 -2.5t24 -22t-7 -46q-11 -24 -54.5 -49.5t-120.5 -32.5v-61q0 -28 1 -45q-2 -21 -16 -32.5t-33 -10.5
q-13 0 -19.5 12t-4.5 36q1 11 1.5 36.5t1.5 61.5q-50 2 -88.5 19t-64.5 43.5t-39 61t-12 69.5q1 69 17.5 124t44.5 94t65.5 64.5t80.5 36.5q0 51 0.5 90t0.5 59q1 27 8.5 39t20.5 12q19 1 30.5 -10t11.5 -38q0 -19 -0.5 -56t-0.5 -86h3q55 0 98.5 -27.5t52.5 -63.5zM141 295
q-1 -19 1 -41t13 -42t34.5 -35.5t63.5 -20.5q1 77 1.5 167.5t0.5 173.5q-39 -17 -74 -64t-40 -138z" />
    <glyph glyph-name="sterling" unicode="&#xa3;" 
d="M144 219v2h-45q-25 0 -35.5 13.5t-10.5 28.5q-1 15 9.5 29.5t35.5 13.5q10 0 21.5 -0.5t22.5 -0.5q-5 30 -14.5 49.5t-18.5 38t-16 40t-7 55.5q0 94 53.5 140.5t152.5 46.5q31 0 60 -14t52 -35.5t39.5 -47t21.5 -48.5q6 -27 4.5 -42.5t-16.5 -22.5q-19 -8 -41 -9.5
t-23 28.5q-1 22 -11.5 43t-26.5 36.5t-34.5 25t-36.5 9.5q-38 0 -69.5 -21.5t-31.5 -72.5q0 -31 7.5 -53.5t17.5 -43.5t20 -45t14 -58q49 -1 89 -1h55q24 0 31.5 -12t8.5 -25q0 -15 -7.5 -30t-32.5 -13q-13 1 -54.5 1t-89.5 -1q0 -2 -0.5 -4.5t-0.5 -4.5q-3 -30 -14.5 -50.5
t-25 -35.5t-27 -27.5t-21.5 -26.5q16 7 27 13.5t37 6.5q35 0 55 -6.5t36.5 -13.5t35 -13.5t49.5 -6.5q18 0 39 7.5t38.5 14t29 8.5t11.5 -10q0 -9 2.5 -25.5t-0.5 -23.5q-13 -31 -50 -40.5t-80 -9.5q-24 0 -41 6.5t-33 13.5t-35.5 13.5t-47.5 6.5q-24 0 -37.5 -4t-24.5 -9
t-24.5 -10t-38.5 -7q-21 -2 -29.5 24t-8.5 69q0 18 12.5 32t28 29t29 33.5t15.5 46.5z" />
    <glyph glyph-name="currency" unicode="&#xa4;" 
d="M261 181q-17 4 -35 10.5t-34 16.5q-13 -18 -39.5 -46t-63.5 -56q-10 -8 -25.5 -8.5t-24.5 11.5q-10 11 -10 31.5t10 27.5q22 16 50 44.5t47 45.5q-15 20 -23.5 44.5t-8.5 52.5q0 32 7.5 59.5t23.5 49.5q-20 14 -47.5 34t-46.5 37q-10 8 -10 28t10 31q9 12 25 12t25 -9
q28 -28 56.5 -48t43.5 -35q22 12 50.5 18.5t62.5 6.5q16 0 35.5 -5.5t37.5 -16.5q14 16 37 37.5t49 47.5q9 9 25 9t25 -12q10 -11 10 -31t-10 -28q-19 -18 -43 -40.5t-42 -37.5q12 -22 18.5 -52t4.5 -67q-1 -24 -7 -45.5t-16 -40.5q18 -16 41.5 -42.5t42.5 -44.5
q10 -8 10 -28t-10 -31q-9 -12 -25 -12t-25 9q-26 26 -49 51t-36 42q-24 -16 -53.5 -21.5t-62.5 1.5zM281 264q43 -3 68.5 18.5t26.5 72.5q0 68 -30 86t-70 18t-62 -20.5t-23 -80.5q-1 -41 24.5 -65.5t65.5 -28.5z" />
    <glyph glyph-name="yen" unicode="&#xa5;" 
d="M111 178q28 -1 59 -1t62 1q0 13 0.5 27.5t1.5 27.5q-1 4 -3.5 7t-3.5 6q-34 -1 -64.5 -1.5t-49.5 -0.5q-25 0 -37.5 9t-12.5 20q-1 15 9.5 28.5t35.5 12.5q19 -1 39.5 -1t41.5 -1q-11 20 -22 39.5t-21 37.5q-29 53 -57.5 99t-46.5 95q-12 33 -3.5 51t23.5 25q16 8 38 2
t33 -43q17 -56 42 -101t50 -88q13 -23 25 -46t22 -45q10 22 22 45t25 46q25 43 50 88t42 101q11 37 33 43t38 -2q15 -7 23.5 -25t-3.5 -51q-18 -49 -46.5 -95t-57.5 -99q-10 -18 -21 -37t-22 -39q33 0 58.5 0.5t38.5 0.5q24 0 31.5 -11t8.5 -24q0 -11 -7.5 -22t-32.5 -9
q-13 1 -47.5 1t-77.5 -1q-1 -16 -2 -33t-2 -36q44 1 78.5 1.5t50.5 0.5q24 0 31.5 -7.5t8.5 -17.5q0 -15 -7.5 -29t-32.5 -12q-13 1 -49 1t-80 -1q0 -22 0.5 -45.5t1.5 -48.5q0 -11 -14 -16.5t-31 -5.5t-31 6t-14 16q-3 27 -3 47v45q-37 -1 -69.5 -1.5t-53.5 -0.5
q-25 0 -35.5 12.5t-10.5 27.5q-1 11 11 19.5t37 7.5z" />
    <glyph glyph-name="brokenbar" unicode="&#xa6;" 
d="M329 680v-44q0 -30 -1 -62.5t-2.5 -63.5t-3.5 -49q-3 -20 -17.5 -32.5t-27.5 -11.5q-16 1 -30.5 9.5t-13.5 30.5q-1 22 -1.5 54t-0.5 65v63q0 30 -1 46q-1 25 18 31.5t34 5.5q15 0 30.5 -8.5t16.5 -33.5zM329 249v-45q0 -31 -1 -64.5t-2.5 -66t-3.5 -50.5
q-3 -20 -17.5 -29t-27.5 -8q-16 1 -30.5 12t-13.5 33q0 19 -1 48.5t-1.5 61.5t-0.5 63v50q1 25 19 31.5t33 5.5q15 0 30.5 -8.5t16.5 -33.5z" />
    <glyph glyph-name="dieresis" unicode="&#xa8;" 
d="M363 609q-28 -3 -44.5 16.5t-16.5 44.5q0 24 19 41t42 18q26 1 41.5 -16.5t15.5 -42.5q0 -24 -15.5 -41t-41.5 -20zM186 609q-28 -3 -44 16.5t-16 44.5q0 24 19 41t41 18q27 1 42.5 -16.5t15.5 -42.5q0 -23 -15.5 -40.5t-42.5 -20.5z" />
    <glyph glyph-name="guillemotleft" unicode="&#xab;" 
d="M38 345q30 21 61.5 46t60 48.5t53.5 43t43 30.5q28 17 41.5 4.5t20.5 -27.5q5 -12 -2.5 -24t-32.5 -28q-43 -27 -77.5 -61t-86.5 -74q40 -29 77 -62.5t82 -64.5q25 -19 34 -32.5t3 -26.5q-7 -13 -21.5 -25.5t-41.5 3.5t-50.5 35.5t-48 41t-52 45t-62.5 48.5q-7 4 -11 15
t-4 23.5t3.5 24t10.5 17.5zM248 343q30 21 61.5 46t60 48.5t53.5 43t43 30.5q28 17 41.5 4.5t20.5 -27.5q5 -12 -2.5 -24t-32.5 -28q-43 -27 -77.5 -61t-86.5 -74q40 -29 77 -62.5t82 -64.5q25 -19 34 -32.5t3 -26.5q-7 -13 -21.5 -25.5t-41.5 3.5t-50.5 35.5t-48 41t-52 45
t-62.5 48.5q-7 4 -11 15t-4 23.5t3.5 24t10.5 17.5z" />
    <glyph glyph-name="logicalnot" unicode="&#xac;" 
d="M98 426q40 -1 89 -2t97 -1h89h67q5 5 12.5 7.5t14.5 2.5q15 1 29 -9.5t13 -35.5q-1 -45 -1.5 -76.5t-1 -54t0 -39.5t0.5 -34q0 -24 -12 -31.5t-25 -8.5q-16 -1 -29 6.5t-12 32.5q2 26 1 69t-2 92h-76q-46 0 -94 -1t-91 -1.5t-68 -0.5t-35.5 13.5t-10.5 28.5
q-1 15 9.5 29.5t35.5 13.5z" />
    <glyph glyph-name="macron" unicode="&#xaf;" 
d="M110 623h53h79q44 0 94 1t98 2q25 1 35.5 -13.5t9.5 -29.5q0 -15 -10.5 -28.5t-35.5 -13.5h-79h-97q-48 0 -89 0.5t-58 1.5q-25 1 -32.5 14.5t-7.5 28.5q1 13 8.5 25t31.5 12z" />
    <glyph glyph-name="degree" unicode="&#xb0;" 
d="M259 502q-58 0 -90 33.5t-32 82.5q0 18 6 39t21.5 39t42.5 29.5t68 11.5q70 0 91.5 -38.5t21.5 -93.5q0 -37 -39.5 -70t-89.5 -33zM266 564q18 0 34 16.5t16 33.5q0 6 -1.5 16.5t-7 20.5t-15 17t-24.5 7q-28 0 -41.5 -18.5t-12.5 -40.5q1 -19 13 -35.5t39 -16.5z" />
    <glyph glyph-name="plusminus" unicode="&#xb1;" 
d="M98 386q31 -1 66.5 -1.5t72.5 -1.5q0 35 -0.5 66.5t-1.5 53.5q-1 25 13 32.5t29 7.5q15 1 29.5 -6.5t13.5 -32.5q-1 -29 -2 -60t-1 -61h145q24 0 31.5 -12t8.5 -25q0 -15 -7.5 -30t-32.5 -13q-14 1 -55 1.5t-91 -0.5q0 -40 0.5 -72t0.5 -48q0 -24 -12 -31.5t-25 -8.5
q-15 0 -29 7.5t-14 32.5v119q-42 -1 -79 -1.5t-59 -0.5q-25 0 -35.5 13.5t-10.5 28.5q-1 15 9.5 29.5t35.5 13.5zM98 96q45 -1 102 -2q56 -1 109 -1h94h59q24 0 31.5 -12t8.5 -25q0 -15 -7.5 -30t-32.5 -13q-16 1 -63.5 1t-104 -0.5t-111.5 -1.5t-84 -1q-25 0 -35.5 13.5
t-10.5 28.5q-1 15 9.5 29.5t35.5 13.5z" />
    <glyph glyph-name="acute" unicode="&#xb4;" 
d="M360 732q-30 -40 -69.5 -82t-66.5 -69q-19 -19 -39 -20.5t-30 8.5q-11 10 -7.5 30.5t21.5 37.5q33 30 64 74t57 80q13 16 35 17t35 -9q9 -10 11 -30t-11 -37z" />
    <glyph glyph-name="cedilla" unicode="&#xb8;" 
d="M308 3q-6 -22 8 -38.5t33 -31.5t36 -31t17 -37q0 -20 -6 -40.5t-20.5 -37t-39 -27t-61.5 -10.5q-50 0 -74 18t-37 42q-10 17 -5.5 35.5t15.5 23.5q13 6 25.5 3.5t21.5 -20.5q7 -16 21 -29.5t39 -13.5q27 0 38.5 12t11.5 35q0 22 -17 35t-36 25.5t-32 30.5t-5 51
q5 21 13.5 36.5t30.5 14.5q23 -1 25 -16t-2 -30z" />
    <glyph glyph-name="guillemotright" unicode="&#xbb;" 
d="M474 345q7 -6 10.5 -17.5t3.5 -24t-4 -23.5t-11 -15q-35 -25 -62.5 -48.5t-52 -45t-48 -41t-50.5 -35.5t-41.5 -3.5t-21.5 25.5q-6 13 3 26.5t34 32.5q45 31 82 64.5t77 62.5q-52 40 -86.5 74t-77.5 61q-25 16 -32.5 28t-2.5 24q7 15 20.5 27.5t41.5 -4.5
q18 -11 43 -30.5t53.5 -43t60 -48.5t61.5 -46zM264 343q7 -6 10.5 -17.5t3.5 -24t-4 -23.5t-11 -15q-35 -25 -62.5 -48.5t-52 -45t-48 -41t-50.5 -35.5t-41.5 -3.5t-21.5 25.5q-6 13 3 26.5t34 32.5q45 31 82 64.5t77 62.5q-52 40 -86.5 74t-77.5 61q-25 16 -32.5 28
t-2.5 24q7 15 20.5 27.5t41.5 -4.5q18 -11 43 -30.5t53.5 -43t60 -48.5t61.5 -46z" />
    <glyph glyph-name="onequarter" unicode="&#xbc;" 
d="M151 492q20 0 44.5 -0.5t49.5 -0.5q1 7 2.5 14.5t0.5 17.5q-1 25 2 67.5t5 88.5q-12 -9 -29.5 -20t-30.5 -15q-13 -3 -23.5 8.5t-9.5 23.5q0 8 4.5 14t16.5 13q44 26 61.5 43.5t31.5 17.5q17 0 35 -9.5t18 -14.5q0 -10 -1.5 -34t-3 -49.5t-2.5 -48.5t-1 -31
q0 -11 0.5 -17.5t0.5 -16.5q0 -16 0.5 -28.5t1.5 -25.5q29 -1 51.5 -1.5t30.5 -0.5q20 0 26.5 -6t6.5 -13q1 -13 -6 -25t-28 -12q-9 0 -42.5 0.5t-73.5 0.5t-78.5 0.5t-59.5 0.5q-16 0 -22 11t-6 24q-1 9 5 16.5t23 7.5zM86 392q62 -1 121 -1q58 0 108 0.5t89.5 1t63.5 0.5
q22 0 29 -8t8 -18q0 -13 -7.5 -24.5t-29.5 -11.5q-21 0 -68 -0.5t-103 -0.5t-113 -0.5t-97 -0.5q-22 0 -29.5 11t-7.5 24q-1 10 6 19.5t30 8.5zM322 -17q-12 0 -24 7.5t-13 14.5q0 5 1 19t2 33q-40 0 -79 -1.5t-64 -5.5q-26 -4 -37.5 20t-1.5 46q5 10 21 29t36.5 41t43.5 46
t41 45q11 13 28 16t32 3q15 1 33 -3t21 -16q8 -34 7.5 -76t-1.5 -85q17 -1 30 -1h18q16 0 21.5 -5.5t5.5 -12.5q0 -15 -5 -28.5t-22 -13.5h-19q-13 0 -30 1q1 -13 1.5 -25.5t1.5 -24.5q1 -7 -9.5 -15t-38.5 -8zM294 222q-24 -23 -49.5 -51.5t-43.5 -54.5q22 1 45 1h46
q1 25 2 52.5t0 52.5z" />
    <glyph glyph-name="questiondown" unicode="&#xbf;" 
d="M269 675q34 -4 54 -24.5t20 -49.5t-20 -50t-54 -20q-29 1 -53.5 21.5t-24.5 49.5t21 53t57 20zM317 417q7 -46 34 -72.5t56 -48.5t52 -48.5t23 -73.5q0 -94 -53.5 -140.5t-152.5 -46.5q-34 0 -62 11.5t-49.5 28.5t-37 37.5t-24.5 37.5q-13 25 -8 41.5t20 23.5q19 8 33 7
t31 -26q8 -12 18.5 -26.5t23 -26.5t27.5 -20.5t32 -8.5q50 0 79.5 21t29.5 71q0 32 -21 55t-48.5 46t-54.5 53t-39 77q-7 30 1 47.5t34 24.5q27 7 40 -7.5t16 -36.5z" />
    <glyph glyph-name="Agrave" unicode="&#xc0;" 
d="M316 761q-27 27 -66.5 69t-69.5 82q-13 17 -11 37t11 30q13 10 35 9t35 -17q26 -36 57 -80t64 -74q18 -17 21.5 -37.5t-7.5 -30.5q-10 -10 -30 -8.5t-39 20.5zM503 -2q-16 -7 -34 1t-30 39q-7 19 -19.5 72.5t-27.5 124.5q-18 -1 -43 -2.5t-53.5 -4t-59 -6t-58.5 -7.5
q-22 -62 -38.5 -110.5t-22.5 -66.5q-10 -31 -27.5 -39t-33.5 -1q-15 7 -21 24.5t1 46.5q3 15 17.5 54.5t36.5 91.5q-8 5 -12.5 12.5t-4.5 14.5q-1 13 12.5 25t32.5 18q21 50 45 102.5t47 100t45 88t40 66.5q13 18 24 27t24 9q16 1 31 -6.5t19 -29.5q8 -47 25.5 -136.5
t37.5 -180t38.5 -164.5t28.5 -92q14 -26 4.5 -45t-24.5 -26zM325 563q-12 -18 -26 -47t-29.5 -64t-31 -75t-30.5 -80q51 6 94.5 9t74.5 4q-13 64 -26.5 130t-25.5 123z" />
    <glyph glyph-name="Aacute" unicode="&#xc1;" 
d="M383 912q-30 -40 -69.5 -82t-66.5 -69q-19 -19 -39 -20.5t-30 8.5q-11 10 -7.5 30.5t21.5 37.5q33 30 64 74t57 80q13 16 35 17t35 -9q9 -10 11 -30t-11 -37zM503 -2q-16 -7 -34 1t-30 39q-7 19 -19.5 72.5t-27.5 124.5q-18 -1 -43 -2.5t-53.5 -4t-59 -6t-58.5 -7.5
q-22 -62 -38.5 -110.5t-22.5 -66.5q-10 -31 -27.5 -39t-33.5 -1q-15 7 -21 24.5t1 46.5q3 15 17.5 54.5t36.5 91.5q-8 5 -12.5 12.5t-4.5 14.5q-1 13 12.5 25t32.5 18q21 50 45 102.5t47 100t45 88t40 66.5q13 18 24 27t24 9q16 1 31 -6.5t19 -29.5q8 -47 25.5 -136.5
t37.5 -180t38.5 -164.5t28.5 -92q14 -26 4.5 -45t-24.5 -26zM325 563q-12 -18 -26 -47t-29.5 -64t-31 -75t-30.5 -80q51 6 94.5 9t74.5 4q-13 64 -26.5 130t-25.5 123z" />
    <glyph glyph-name="Acircumflex" unicode="&#xc2;" 
d="M431 744q-5 1 -20 27t-36 61t-45 74t-47 65q-21 -25 -44.5 -63.5t-45 -74t-38.5 -61.5t-23 -28q-24 -6 -38.5 -1.5t-21.5 17.5q-8 12 -3.5 26t18.5 34q12 17 34.5 49.5t47 68t47 68.5t35.5 52q4 7 13 8t17 1q7 0 15 -1.5t13 -7.5q13 -17 34 -48.5t43 -66t42 -67t32 -50.5
q14 -21 27.5 -39t5.5 -30q-7 -13 -22 -15.5t-40 2.5zM503 -2q-16 -7 -34 1t-30 39q-7 19 -19.5 72.5t-27.5 124.5q-18 -1 -43 -2.5t-53.5 -4t-59 -6t-58.5 -7.5q-22 -62 -38.5 -110.5t-22.5 -66.5q-10 -31 -27.5 -39t-33.5 -1q-15 7 -21 24.5t1 46.5q3 15 17.5 54.5
t36.5 91.5q-8 5 -12.5 12.5t-4.5 14.5q-1 13 12.5 25t32.5 18q21 50 45 102.5t47 100t45 88t40 66.5q13 18 24 27t24 9q16 1 31 -6.5t19 -29.5q8 -47 25.5 -136.5t37.5 -180t38.5 -164.5t28.5 -92q14 -26 4.5 -45t-24.5 -26zM325 563q-12 -18 -26 -47t-29.5 -64t-31 -75
t-30.5 -80q51 6 94.5 9t74.5 4q-13 64 -26.5 130t-25.5 123z" />
    <glyph glyph-name="Atilde" unicode="&#xc3;" 
d="M446 888q13 -4 14.5 -21.5t-5.5 -33.5q-27 -50 -54.5 -71.5t-52.5 -21.5q-31 0 -50 14.5t-36 37.5q-13 18 -21.5 25t-24.5 7q-18 0 -25 -12t-25 -44q-6 -10 -21 -13t-26 -1q-7 1 -13 9.5t-3 19.5q19 54 47.5 88t56.5 34q27 0 46 -6t40 -37q12 -17 21.5 -29t25.5 -12
t26.5 4t29.5 37q6 11 19 21.5t31 4.5zM503 -2q-16 -7 -34 1t-30 39q-7 19 -19.5 72.5t-27.5 124.5q-18 -1 -43 -2.5t-53.5 -4t-59 -6t-58.5 -7.5q-22 -62 -38.5 -110.5t-22.5 -66.5q-10 -31 -27.5 -39t-33.5 -1q-15 7 -21 24.5t1 46.5q3 15 17.5 54.5t36.5 91.5
q-8 5 -12.5 12.5t-4.5 14.5q-1 13 12.5 25t32.5 18q21 50 45 102.5t47 100t45 88t40 66.5q13 18 24 27t24 9q16 1 31 -6.5t19 -29.5q8 -47 25.5 -136.5t37.5 -180t38.5 -164.5t28.5 -92q14 -26 4.5 -45t-24.5 -26zM325 563q-12 -18 -26 -47t-29.5 -64t-31 -75t-30.5 -80
q51 6 94.5 9t74.5 4q-13 64 -26.5 130t-25.5 123z" />
    <glyph glyph-name="Adieresis" unicode="&#xc4;" 
d="M372 740q-28 -3 -44.5 16.5t-16.5 44.5q0 24 19 41t42 18q26 1 41.5 -16.5t15.5 -42.5q0 -24 -15.5 -41t-41.5 -20zM195 740q-28 -3 -44 16.5t-16 44.5q0 24 19 41t41 18q27 1 42.5 -16.5t15.5 -42.5q0 -23 -15.5 -40.5t-42.5 -20.5zM503 -2q-16 -7 -34 1t-30 39
q-7 19 -19.5 72.5t-27.5 124.5q-18 -1 -43 -2.5t-53.5 -4t-59 -6t-58.5 -7.5q-22 -62 -38.5 -110.5t-22.5 -66.5q-10 -31 -27.5 -39t-33.5 -1q-15 7 -21 24.5t1 46.5q3 15 17.5 54.5t36.5 91.5q-8 5 -12.5 12.5t-4.5 14.5q-1 13 12.5 25t32.5 18q21 50 45 102.5t47 100
t45 88t40 66.5q13 18 24 27t24 9q16 1 31 -6.5t19 -29.5q8 -47 25.5 -136.5t37.5 -180t38.5 -164.5t28.5 -92q14 -26 4.5 -45t-24.5 -26zM325 563q-12 -18 -26 -47t-29.5 -64t-31 -75t-30.5 -80q51 6 94.5 9t74.5 4q-13 64 -26.5 130t-25.5 123z" />
    <glyph glyph-name="Aring" unicode="&#xc5;" 
d="M279 740q-49 0 -76 28t-27 70q0 16 5 33.5t18.5 32.5t36 25t56.5 10q59 0 77 -32.5t18 -79.5q0 -31 -33 -59t-75 -28zM286 791q16 0 30.5 14.5t14.5 30.5q0 11 -8 32.5t-35 21.5q-25 0 -37.5 -16.5t-11.5 -36.5q1 -17 12 -31.5t35 -14.5zM503 -2q-16 -7 -34 1t-30 39
q-7 19 -19.5 72.5t-27.5 124.5q-18 -1 -43 -2.5t-53.5 -4t-59 -6t-58.5 -7.5q-22 -62 -38.5 -110.5t-22.5 -66.5q-10 -31 -27.5 -39t-33.5 -1q-15 7 -21 24.5t1 46.5q3 15 17.5 54.5t36.5 91.5q-8 5 -12.5 12.5t-4.5 14.5q-1 13 12.5 25t32.5 18q21 50 45 102.5t47 100
t45 88t40 66.5q13 18 24 27t24 9q16 1 31 -6.5t19 -29.5q8 -47 25.5 -136.5t37.5 -180t38.5 -164.5t28.5 -92q14 -26 4.5 -45t-24.5 -26zM325 563q-12 -18 -26 -47t-29.5 -64t-31 -75t-30.5 -80q51 6 94.5 9t74.5 4q-13 64 -26.5 130t-25.5 123z" />
    <glyph glyph-name="AE" unicode="&#xc6;" 
d="M503 -6q-10 2 -92.5 -6.5t-117.5 -4.5q-15 2 -34.5 22.5t-24.5 47.5q-6 28 -21 182q-38 -3 -105 -20q-15 -71 -37 -177q-5 -29 -23 -38.5t-30 -1.5q-20 15 -12 71q4 30 33 146q-10 11 -10 27q-1 13 7 25t21 18q70 267 108 357q16 36 30 36q22 3 29 -25q5 -4 9 -11
q57 11 115.5 10.5t92.5 -6.5q24 -5 28 -35q5 -45 -20 -41q-55 6 -109.5 4t-93.5 -11q8 -98 18 -191q42 1 114 7.5t81 6.5q23 0 28 -35q4 -41 -21 -41q-10 0 -87.5 -9t-105.5 -10q2 -21 7 -63.5t6 -51.5q13 -89 20 -107q0 -2 1 -4q22 -4 91.5 1t87.5 11q36 11 43 -39
q2 -18 -4.5 -32t-21.5 -12zM206 310q-8 69 -15 125q-7 55 -11 103q-9 -32 -27.5 -121.5t-25.5 -119.5q65 12 79 13z" />
    <glyph glyph-name="Ccedilla" unicode="&#xc7;" 
d="M359 667q17 0 33.5 -2t29.5 -6q4 14 15 23t23 10q13 2 30 -7t21 -29q8 -37 8 -65v-44q0 -20 -14.5 -40.5t-29.5 -21.5q-15 -2 -33.5 8.5t-18.5 31.5q0 7 0.5 17t1.5 22q-11 7 -26 17t-33 10q-37 0 -78.5 -29.5t-76 -79.5t-57.5 -117t-23 -141q0 -31 10 -61.5t26.5 -54
t40 -38.5t50.5 -15q63 0 109 22t71 41q16 11 31 16t29 -5q13 -10 15.5 -27t-19.5 -42t-65.5 -51.5t-118.5 -34.5q7 -15 22.5 -27t31 -24.5t27 -26t11.5 -31.5q0 -20 -6 -40.5t-20.5 -37t-39 -27t-61.5 -10.5q-50 0 -74 18t-37 42q-10 17 -5.5 35.5t15.5 23.5q13 6 25.5 3.5
t21.5 -20.5q7 -16 21 -29.5t39 -13.5q27 0 38.5 12t11.5 35q0 20 -14 32t-31 23t-31.5 24.5t-16.5 35.5q-47 2 -84.5 22.5t-63 51.5t-39 70.5t-13.5 78.5q0 104 30.5 191.5t77 150t103.5 97t110 34.5z" />
    <glyph glyph-name="Egrave" unicode="&#xc8;" 
d="M306 761q-27 27 -66.5 69t-69.5 82q-13 17 -11 37t11 30q13 10 35 9t35 -17q26 -36 57 -80t64 -74q18 -17 21.5 -37.5t-7.5 -30.5q-10 -10 -30 -8.5t-39 20.5zM455 -6q-16 1 -57.5 -1.5t-92.5 -5.5t-104 -5t-90 1q-20 1 -42 20.5t-26 49.5q-3 21 -3 60.5t0.5 90t0.5 110
t-2 121.5q-2 66 -0.5 102.5t2.5 69.5q1 27 15 39t31 12q11 1 21 -3t17 -13q43 6 93 8.5t97 2.5t87 -2t62 -5q24 -3 31.5 -12.5t8.5 -22.5q0 -15 -7.5 -29t-32.5 -12q-42 3 -88 4t-89 0t-83 -4t-70 -7q-1 -37 -2.5 -84t-1.5 -107q45 0 94.5 2.5t93.5 5t79.5 4.5t51.5 2
q24 0 31.5 -11t8.5 -24q0 -15 -7.5 -28t-32.5 -13q-15 0 -55 -3t-88 -6.5t-96 -6.5t-79 -3q1 -32 1 -68t1 -67.5t2.5 -55.5t4.5 -33q10 -4 53 -4t93 2t95.5 5.5t60.5 6.5q40 7 50.5 -9.5t11.5 -29.5q0 -15 -11 -30.5t-38 -13.5z" />
    <glyph glyph-name="Eacute" unicode="&#xc9;" 
d="M372 912q-30 -40 -69.5 -82t-66.5 -69q-19 -19 -39 -20.5t-30 8.5q-11 10 -7.5 30.5t21.5 37.5q33 30 64 74t57 80q13 16 35 17t35 -9q9 -10 11 -30t-11 -37zM455 -6q-16 1 -57.5 -1.5t-92.5 -5.5t-104 -5t-90 1q-20 1 -42 20.5t-26 49.5q-3 21 -3 60.5t0.5 90t0.5 110
t-2 121.5q-2 66 -0.5 102.5t2.5 69.5q1 27 15 39t31 12q11 1 21 -3t17 -13q43 6 93 8.5t97 2.5t87 -2t62 -5q24 -3 31.5 -12.5t8.5 -22.5q0 -15 -7.5 -29t-32.5 -12q-42 3 -88 4t-89 0t-83 -4t-70 -7q-1 -37 -2.5 -84t-1.5 -107q45 0 94.5 2.5t93.5 5t79.5 4.5t51.5 2
q24 0 31.5 -11t8.5 -24q0 -15 -7.5 -28t-32.5 -13q-15 0 -55 -3t-88 -6.5t-96 -6.5t-79 -3q1 -32 1 -68t1 -67.5t2.5 -55.5t4.5 -33q10 -4 53 -4t93 2t95.5 5.5t60.5 6.5q40 7 50.5 -9.5t11.5 -29.5q0 -15 -11 -30.5t-38 -13.5z" />
    <glyph glyph-name="Ecircumflex" unicode="&#xca;" 
d="M421 744q-5 1 -20 27t-36 61t-45 74t-47 65q-21 -25 -44.5 -63.5t-45 -74t-38.5 -61.5t-23 -28q-24 -6 -38.5 -1.5t-21.5 17.5q-8 12 -3.5 26t18.5 34q12 17 34.5 49.5t47 68t47 68.5t35.5 52q4 7 13 8t17 1q7 0 15 -1.5t13 -7.5q13 -17 34 -48.5t43 -66t42 -67t32 -50.5
q14 -21 27.5 -39t5.5 -30q-7 -13 -22 -15.5t-40 2.5zM455 -6q-16 1 -57.5 -1.5t-92.5 -5.5t-104 -5t-90 1q-20 1 -42 20.5t-26 49.5q-3 21 -3 60.5t0.5 90t0.5 110t-2 121.5q-2 66 -0.5 102.5t2.5 69.5q1 27 15 39t31 12q11 1 21 -3t17 -13q43 6 93 8.5t97 2.5t87 -2t62 -5
q24 -3 31.5 -12.5t8.5 -22.5q0 -15 -7.5 -29t-32.5 -12q-42 3 -88 4t-89 0t-83 -4t-70 -7q-1 -37 -2.5 -84t-1.5 -107q45 0 94.5 2.5t93.5 5t79.5 4.5t51.5 2q24 0 31.5 -11t8.5 -24q0 -15 -7.5 -28t-32.5 -13q-15 0 -55 -3t-88 -6.5t-96 -6.5t-79 -3q1 -32 1 -68t1 -67.5
t2.5 -55.5t4.5 -33q10 -4 53 -4t93 2t95.5 5.5t60.5 6.5q40 7 50.5 -9.5t11.5 -29.5q0 -15 -11 -30.5t-38 -13.5z" />
    <glyph glyph-name="Edieresis" unicode="&#xcb;" 
d="M361 740q-28 -3 -44.5 16.5t-16.5 44.5q0 24 19 41t42 18q26 1 41.5 -16.5t15.5 -42.5q0 -24 -15.5 -41t-41.5 -20zM184 740q-28 -3 -44 16.5t-16 44.5q0 24 19 41t41 18q27 1 42.5 -16.5t15.5 -42.5q0 -23 -15.5 -40.5t-42.5 -20.5zM455 -6q-16 1 -57.5 -1.5t-92.5 -5.5
t-104 -5t-90 1q-20 1 -42 20.5t-26 49.5q-3 21 -3 60.5t0.5 90t0.5 110t-2 121.5q-2 66 -0.5 102.5t2.5 69.5q1 27 15 39t31 12q11 1 21 -3t17 -13q43 6 93 8.5t97 2.5t87 -2t62 -5q24 -3 31.5 -12.5t8.5 -22.5q0 -15 -7.5 -29t-32.5 -12q-42 3 -88 4t-89 0t-83 -4t-70 -7
q-1 -37 -2.5 -84t-1.5 -107q45 0 94.5 2.5t93.5 5t79.5 4.5t51.5 2q24 0 31.5 -11t8.5 -24q0 -15 -7.5 -28t-32.5 -13q-15 0 -55 -3t-88 -6.5t-96 -6.5t-79 -3q1 -32 1 -68t1 -67.5t2.5 -55.5t4.5 -33q10 -4 53 -4t93 2t95.5 5.5t60.5 6.5q40 7 50.5 -9.5t11.5 -29.5
q0 -15 -11 -30.5t-38 -13.5z" />
    <glyph glyph-name="Igrave" unicode="&#xcc;" 
d="M308 761q-27 27 -66.5 69t-69.5 82q-13 17 -11 37t11 30q13 10 35 9t35 -17q26 -36 57 -80t64 -74q18 -17 21.5 -37.5t-7.5 -30.5q-10 -10 -30 -8.5t-39 20.5zM85 62q29 1 65 2t73 2q1 24 3 60.5t2.5 80.5t0.5 95t-1 103q-3 71 -1 108t3 71q-40 1 -76 1t-60 -1
q-25 -1 -36.5 10.5t-11.5 26.5q-1 15 10.5 27.5t36.5 13.5q102 3 195.5 2t174.5 -9q24 -2 33 -13.5t10 -24.5q0 -15 -10 -32t-35 -13q-19 3 -56 5.5t-81 4.5q-1 -40 -2 -95.5t1 -136.5q2 -85 -1.5 -157.5t-3.5 -125.5q51 0 92.5 -0.5t57.5 -0.5q24 0 31.5 -11t8.5 -24
q0 -15 -7.5 -30t-32.5 -11q-27 4 -79 4t-109 -1.5t-110.5 -3.5t-82.5 -2q-25 0 -36.5 9.5t-11.5 24.5q-1 15 9.5 27.5t36.5 13.5z" />
    <glyph glyph-name="Iacute" unicode="&#xcd;" 
d="M375 912q-30 -40 -69.5 -82t-66.5 -69q-19 -19 -39 -20.5t-30 8.5q-11 10 -7.5 30.5t21.5 37.5q33 30 64 74t57 80q13 16 35 17t35 -9q9 -10 11 -30t-11 -37zM85 62q29 1 65 2t73 2q1 24 3 60.5t2.5 80.5t0.5 95t-1 103q-3 71 -1 108t3 71q-40 1 -76 1t-60 -1
q-25 -1 -36.5 10.5t-11.5 26.5q-1 15 10.5 27.5t36.5 13.5q102 3 195.5 2t174.5 -9q24 -2 33 -13.5t10 -24.5q0 -15 -10 -32t-35 -13q-19 3 -56 5.5t-81 4.5q-1 -40 -2 -95.5t1 -136.5q2 -85 -1.5 -157.5t-3.5 -125.5q51 0 92.5 -0.5t57.5 -0.5q24 0 31.5 -11t8.5 -24
q0 -15 -7.5 -30t-32.5 -11q-27 4 -79 4t-109 -1.5t-110.5 -3.5t-82.5 -2q-25 0 -36.5 9.5t-11.5 24.5q-1 15 9.5 27.5t36.5 13.5z" />
    <glyph glyph-name="Icircumflex" unicode="&#xce;" 
d="M423 744q-5 1 -20 27t-36 61t-45 74t-47 65q-21 -25 -44.5 -63.5t-45 -74t-38.5 -61.5t-23 -28q-24 -6 -38.5 -1.5t-21.5 17.5q-8 12 -3.5 26t18.5 34q12 17 34.5 49.5t47 68t47 68.5t35.5 52q4 7 13 8t17 1q7 0 15 -1.5t13 -7.5q13 -17 34 -48.5t43 -66t42 -67t32 -50.5
q14 -21 27.5 -39t5.5 -30q-7 -13 -22 -15.5t-40 2.5zM85 62q29 1 65 2t73 2q1 24 3 60.5t2.5 80.5t0.5 95t-1 103q-3 71 -1 108t3 71q-40 1 -76 1t-60 -1q-25 -1 -36.5 10.5t-11.5 26.5q-1 15 10.5 27.5t36.5 13.5q102 3 195.5 2t174.5 -9q24 -2 33 -13.5t10 -24.5
q0 -15 -10 -32t-35 -13q-19 3 -56 5.5t-81 4.5q-1 -40 -2 -95.5t1 -136.5q2 -85 -1.5 -157.5t-3.5 -125.5q51 0 92.5 -0.5t57.5 -0.5q24 0 31.5 -11t8.5 -24q0 -15 -7.5 -30t-32.5 -11q-27 4 -79 4t-109 -1.5t-110.5 -3.5t-82.5 -2q-25 0 -36.5 9.5t-11.5 24.5
q-1 15 9.5 27.5t36.5 13.5z" />
    <glyph glyph-name="Idieresis" unicode="&#xcf;" 
d="M363 740q-28 -3 -44.5 16.5t-16.5 44.5q0 24 19 41t42 18q26 1 41.5 -16.5t15.5 -42.5q0 -24 -15.5 -41t-41.5 -20zM186 740q-28 -3 -44 16.5t-16 44.5q0 24 19 41t41 18q27 1 42.5 -16.5t15.5 -42.5q0 -23 -15.5 -40.5t-42.5 -20.5zM85 62q29 1 65 2t73 2q1 24 3 60.5
t2.5 80.5t0.5 95t-1 103q-3 71 -1 108t3 71q-40 1 -76 1t-60 -1q-25 -1 -36.5 10.5t-11.5 26.5q-1 15 10.5 27.5t36.5 13.5q102 3 195.5 2t174.5 -9q24 -2 33 -13.5t10 -24.5q0 -15 -10 -32t-35 -13q-19 3 -56 5.5t-81 4.5q-1 -40 -2 -95.5t1 -136.5q2 -85 -1.5 -157.5
t-3.5 -125.5q51 0 92.5 -0.5t57.5 -0.5q24 0 31.5 -11t8.5 -24q0 -15 -7.5 -30t-32.5 -11q-27 4 -79 4t-109 -1.5t-110.5 -3.5t-82.5 -2q-25 0 -36.5 9.5t-11.5 24.5q-1 15 9.5 27.5t36.5 13.5z" />
    <glyph glyph-name="Ntilde" unicode="&#xd1;" 
d="M439 888q13 -4 14.5 -21.5t-5.5 -33.5q-27 -50 -54.5 -71.5t-52.5 -21.5q-31 0 -50 14.5t-36 37.5q-13 18 -21.5 25t-24.5 7q-18 0 -25 -12t-25 -44q-6 -10 -21 -13t-26 -1q-7 1 -13 9.5t-3 19.5q19 54 47.5 88t56.5 34q27 0 46 -6t40 -37q12 -17 21.5 -29t25.5 -12
t26.5 4t29.5 37q6 11 19 21.5t31 4.5zM488 10q-6 -13 -21 -18t-31 -5q-19 -1 -30.5 7t-15.5 18q-11 24 -45 82.5t-75 132.5t-81 153.5t-64 145.5q4 -66 4 -141.5t-1.5 -143t-3.5 -121t-1 -74.5q1 -31 -13 -44.5t-31 -12.5q-20 1 -27 17.5t-7 44.5q0 25 2 97t3.5 156.5t2 166
t-2.5 127.5q-2 39 20.5 51t45.5 9q13 0 28.5 -6t22.5 -28q11 -34 43.5 -100.5t72 -140t79 -143.5t64.5 -111q1 46 1.5 115.5t0 140t-2.5 131.5t-6 90q-3 23 9 38t30 15q27 0 33.5 -12.5t10.5 -38.5q1 -9 2 -97t0 -192.5t-4.5 -197t-11.5 -111.5z" />
    <glyph glyph-name="Ograve" unicode="&#xd2;" 
d="M311 761q-27 27 -66.5 69t-69.5 82q-13 17 -11 37t11 30q13 10 35 9t35 -17q26 -36 57 -80t64 -74q18 -17 21.5 -37.5t-7.5 -30.5q-10 -10 -30 -8.5t-39 20.5zM245 -23q-44 1 -80.5 21t-62.5 54.5t-40.5 80.5t-13.5 97q0 60 3.5 142.5t32.5 159.5q23 60 82 99.5t134 39.5
q37 0 71.5 -14.5t61.5 -42t45.5 -68.5t22.5 -94q3 -33 4 -74t0 -81.5t-4.5 -77.5t-10.5 -62q-15 -55 -38.5 -90.5t-54 -55t-69 -27t-83.5 -7.5zM245 56q48 0 93 26t64 88q2 7 5.5 35.5t6 68.5t3 86.5t-3.5 90.5q-5 60 -39.5 102t-84.5 42q-52 0 -85.5 -38.5t-48.5 -101.5
q-12 -50 -15 -103t-1 -107q1 -34 7 -68t18 -61t32 -43.5t49 -16.5z" />
    <glyph glyph-name="Oacute" unicode="&#xd3;" 
d="M378 912q-30 -40 -69.5 -82t-66.5 -69q-19 -19 -39 -20.5t-30 8.5q-11 10 -7.5 30.5t21.5 37.5q33 30 64 74t57 80q13 16 35 17t35 -9q9 -10 11 -30t-11 -37zM245 -23q-44 1 -80.5 21t-62.5 54.5t-40.5 80.5t-13.5 97q0 60 3.5 142.5t32.5 159.5q23 60 82 99.5t134 39.5
q37 0 71.5 -14.5t61.5 -42t45.5 -68.5t22.5 -94q3 -33 4 -74t0 -81.5t-4.5 -77.5t-10.5 -62q-15 -55 -38.5 -90.5t-54 -55t-69 -27t-83.5 -7.5zM245 56q48 0 93 26t64 88q2 7 5.5 35.5t6 68.5t3 86.5t-3.5 90.5q-5 60 -39.5 102t-84.5 42q-52 0 -85.5 -38.5t-48.5 -101.5
q-12 -50 -15 -103t-1 -107q1 -34 7 -68t18 -61t32 -43.5t49 -16.5z" />
    <glyph glyph-name="Ocircumflex" unicode="&#xd4;" 
d="M426 744q-5 1 -20 27t-36 61t-45 74t-47 65q-21 -25 -44.5 -63.5t-45 -74t-38.5 -61.5t-23 -28q-24 -6 -38.5 -1.5t-21.5 17.5q-8 12 -3.5 26t18.5 34q12 17 34.5 49.5t47 68t47 68.5t35.5 52q4 7 13 8t17 1q7 0 15 -1.5t13 -7.5q13 -17 34 -48.5t43 -66t42 -67t32 -50.5
q14 -21 27.5 -39t5.5 -30q-7 -13 -22 -15.5t-40 2.5zM245 -23q-44 1 -80.5 21t-62.5 54.5t-40.5 80.5t-13.5 97q0 60 3.5 142.5t32.5 159.5q23 60 82 99.5t134 39.5q37 0 71.5 -14.5t61.5 -42t45.5 -68.5t22.5 -94q3 -33 4 -74t0 -81.5t-4.5 -77.5t-10.5 -62
q-15 -55 -38.5 -90.5t-54 -55t-69 -27t-83.5 -7.5zM245 56q48 0 93 26t64 88q2 7 5.5 35.5t6 68.5t3 86.5t-3.5 90.5q-5 60 -39.5 102t-84.5 42q-52 0 -85.5 -38.5t-48.5 -101.5q-12 -50 -15 -103t-1 -107q1 -34 7 -68t18 -61t32 -43.5t49 -16.5z" />
    <glyph glyph-name="Otilde" unicode="&#xd5;" 
d="M441 888q13 -4 14.5 -21.5t-5.5 -33.5q-27 -50 -54.5 -71.5t-52.5 -21.5q-31 0 -50 14.5t-36 37.5q-13 18 -21.5 25t-24.5 7q-18 0 -25 -12t-25 -44q-6 -10 -21 -13t-26 -1q-7 1 -13 9.5t-3 19.5q19 54 47.5 88t56.5 34q27 0 46 -6t40 -37q12 -17 21.5 -29t25.5 -12
t26.5 4t29.5 37q6 11 19 21.5t31 4.5zM245 -23q-44 1 -80.5 21t-62.5 54.5t-40.5 80.5t-13.5 97q0 60 3.5 142.5t32.5 159.5q23 60 82 99.5t134 39.5q37 0 71.5 -14.5t61.5 -42t45.5 -68.5t22.5 -94q3 -33 4 -74t0 -81.5t-4.5 -77.5t-10.5 -62q-15 -55 -38.5 -90.5t-54 -55
t-69 -27t-83.5 -7.5zM245 56q48 0 93 26t64 88q2 7 5.5 35.5t6 68.5t3 86.5t-3.5 90.5q-5 60 -39.5 102t-84.5 42q-52 0 -85.5 -38.5t-48.5 -101.5q-12 -50 -15 -103t-1 -107q1 -34 7 -68t18 -61t32 -43.5t49 -16.5z" />
    <glyph glyph-name="Odieresis" unicode="&#xd6;" 
d="M367 740q-28 -3 -44.5 16.5t-16.5 44.5q0 24 19 41t42 18q26 1 41.5 -16.5t15.5 -42.5q0 -24 -15.5 -41t-41.5 -20zM190 740q-28 -3 -44 16.5t-16 44.5q0 24 19 41t41 18q27 1 42.5 -16.5t15.5 -42.5q0 -23 -15.5 -40.5t-42.5 -20.5zM245 -23q-44 1 -80.5 21t-62.5 54.5
t-40.5 80.5t-13.5 97q0 60 3.5 142.5t32.5 159.5q23 60 82 99.5t134 39.5q37 0 71.5 -14.5t61.5 -42t45.5 -68.5t22.5 -94q3 -33 4 -74t0 -81.5t-4.5 -77.5t-10.5 -62q-15 -55 -38.5 -90.5t-54 -55t-69 -27t-83.5 -7.5zM245 56q48 0 93 26t64 88q2 7 5.5 35.5t6 68.5t3 86.5
t-3.5 90.5q-5 60 -39.5 102t-84.5 42q-52 0 -85.5 -38.5t-48.5 -101.5q-12 -50 -15 -103t-1 -107q1 -34 7 -68t18 -61t32 -43.5t49 -16.5z" />
    <glyph glyph-name="multiply" unicode="&#xd7;" 
d="M85 99q12 11 50.5 47t86.5 81q-43 40 -79 74t-53 51t-15.5 33.5t11.5 26.5q10 11 28.5 13.5t36.5 -15.5q24 -25 58.5 -58.5t71.5 -68.5q37 34 70.5 67t56.5 58q18 18 36.5 16.5t28.5 -12.5q10 -10 11.5 -26.5t-15.5 -33.5q-16 -16 -52 -50t-79 -74q48 -45 86 -80.5
t50 -46.5q17 -17 12.5 -32.5t-13.5 -25.5q-11 -11 -26.5 -15.5t-31.5 14.5q-9 11 -48 48t-88 83q-48 -46 -87 -83t-48 -48q-16 -19 -31.5 -14.5t-26.5 15.5q-9 10 -13.5 24.5t12.5 31.5z" />
    <glyph glyph-name="Ugrave" unicode="&#xd9;" 
d="M316 761q-27 27 -66.5 69t-69.5 82q-13 17 -11 37t11 30q13 10 35 9t35 -17q26 -36 57 -80t64 -74q18 -17 21.5 -37.5t-7.5 -30.5q-10 -10 -30 -8.5t-39 20.5zM517 243q-3 -76 -28.5 -128.5t-62 -83.5t-80 -44.5t-80.5 -13.5q-32 0 -69.5 12.5t-70 41t-55 77t-24.5 119.5
q-1 56 -2.5 111.5t-2 105t0 93t1.5 77.5q1 26 15.5 39.5t31.5 13.5q16 0 27.5 -10.5t11.5 -37.5v-76q0 -55 1 -116.5t2 -116t2 -74.5q2 -30 9.5 -61t23.5 -56t41.5 -41t63.5 -16q63 0 106.5 43t49.5 137q3 43 4 98.5t0.5 107.5t-1 95.5t-0.5 62.5q0 44 13.5 53t29.5 9
q17 0 29 -13.5t13 -38.5q3 -59 3.5 -157.5t-3.5 -211.5z" />
    <glyph glyph-name="Uacute" unicode="&#xda;" 
d="M383 912q-30 -40 -69.5 -82t-66.5 -69q-19 -19 -39 -20.5t-30 8.5q-11 10 -7.5 30.5t21.5 37.5q33 30 64 74t57 80q13 16 35 17t35 -9q9 -10 11 -30t-11 -37zM517 243q-3 -76 -28.5 -128.5t-62 -83.5t-80 -44.5t-80.5 -13.5q-32 0 -69.5 12.5t-70 41t-55 77t-24.5 119.5
q-1 56 -2.5 111.5t-2 105t0 93t1.5 77.5q1 26 15.5 39.5t31.5 13.5q16 0 27.5 -10.5t11.5 -37.5v-76q0 -55 1 -116.5t2 -116t2 -74.5q2 -30 9.5 -61t23.5 -56t41.5 -41t63.5 -16q63 0 106.5 43t49.5 137q3 43 4 98.5t0.5 107.5t-1 95.5t-0.5 62.5q0 44 13.5 53t29.5 9
q17 0 29 -13.5t13 -38.5q3 -59 3.5 -157.5t-3.5 -211.5z" />
    <glyph glyph-name="Ucircumflex" unicode="&#xdb;" 
d="M431 764q-5 1 -20 26.5t-36 61t-45 74.5t-47 65q-21 -26 -44.5 -64t-45 -73.5t-38.5 -62t-23 -27.5q-24 -6 -38.5 -1.5t-21.5 17.5q-8 12 -3.5 26t18.5 34q12 17 34.5 49.5t47 68t47 68.5t35.5 52q4 7 13 8t17 1q7 0 15 -1.5t13 -7.5q13 -17 34 -48.5t43 -66t42 -67
t32 -50.5q14 -21 27.5 -39t5.5 -30q-7 -13 -22 -15.5t-40 2.5zM517 243q-3 -76 -28.5 -128.5t-62 -83.5t-80 -44.5t-80.5 -13.5q-32 0 -69.5 12.5t-70 41t-55 77t-24.5 119.5q-1 56 -2.5 111.5t-2 105t0 93t1.5 77.5q1 26 15.5 39.5t31.5 13.5q16 0 27.5 -10.5t11.5 -37.5
v-76q0 -55 1 -116.5t2 -116t2 -74.5q2 -30 9.5 -61t23.5 -56t41.5 -41t63.5 -16q63 0 106.5 43t49.5 137q3 43 4 98.5t0.5 107.5t-1 95.5t-0.5 62.5q0 44 13.5 53t29.5 9q17 0 29 -13.5t13 -38.5q3 -59 3.5 -157.5t-3.5 -211.5z" />
    <glyph glyph-name="Udieresis" unicode="&#xdc;" 
d="M371 740q-28 -3 -44.5 16.5t-16.5 44.5q0 24 19 41t42 18q26 1 41.5 -16.5t15.5 -42.5q0 -24 -15.5 -41t-41.5 -20zM194 740q-28 -3 -44 16.5t-16 44.5q0 24 19 41t41 18q27 1 42.5 -16.5t15.5 -42.5q0 -23 -15.5 -40.5t-42.5 -20.5zM517 243q-3 -76 -28.5 -128.5
t-62 -83.5t-80 -44.5t-80.5 -13.5q-32 0 -69.5 12.5t-70 41t-55 77t-24.5 119.5q-1 56 -2.5 111.5t-2 105t0 93t1.5 77.5q1 26 15.5 39.5t31.5 13.5q16 0 27.5 -10.5t11.5 -37.5v-76q0 -55 1 -116.5t2 -116t2 -74.5q2 -30 9.5 -61t23.5 -56t41.5 -41t63.5 -16q63 0 106.5 43
t49.5 137q3 43 4 98.5t0.5 107.5t-1 95.5t-0.5 62.5q0 44 13.5 53t29.5 9q17 0 29 -13.5t13 -38.5q3 -59 3.5 -157.5t-3.5 -211.5z" />
    <glyph glyph-name="Yacute" unicode="&#xdd;" 
d="M379 912q-30 -40 -69.5 -82t-66.5 -69q-19 -19 -39 -20.5t-30 8.5q-11 10 -7.5 30.5t21.5 37.5q33 30 64 74t57 80q13 16 35 17t35 -9q9 -10 11 -30t-11 -37zM513 588q-8 -19 -19 -38.5t-21 -43.5q-13 -31 -34 -67.5t-42 -82.5q-32 -72 -77.5 -161.5t-103.5 -205.5
q-8 -16 -27 -23.5t-37 6.5q-13 10 -19 26.5t5 36.5q27 54 51.5 102.5t46.5 91.5q-25 46 -48 85t-42 75q-29 53 -57.5 99t-46.5 95q-12 33 -3.5 51t23.5 25q16 8 38 2t33 -43q17 -56 42 -101t50 -88q16 -28 30 -55.5t25 -53.5l10 19q4 9 8 19q24 53 48.5 100t44.5 96
q7 17 16.5 34t16.5 36q13 34 32.5 41t35.5 0q13 -7 23.5 -26t-2.5 -51z" />
    <glyph glyph-name="Thorn" unicode="&#xde;" 
d="M258 156q-73 0 -115 10q2 -48 7.5 -83.5t6.5 -59.5q1 -20 -15.5 -31t-37.5 -10q-19 1 -32 12.5t-11 33.5q1 54 1 75t-2.5 115.5t-3.5 149.5q-1 61 1 161l-5 5q-8 13 -5 26t14 22q-1 41 -4 76t-3 59q0 20 17 30.5t37 8.5t32 -13.5t10 -33.5q-5 -39 -6 -110q74 7 120 7
q98 0 160 -52.5t63 -146.5q0 -107 -64 -179t-165 -72zM264 530q-32 0 -118 -8q0 -19 -1.5 -69t-2.5 -103t-1 -104q38 -14 89 -14q47 0 81 13t51 31t26.5 45.5t11 46.5t1.5 45q0 43 -24.5 71t-53.5 37t-59 9z" />
    <glyph glyph-name="agrave" unicode="&#xe0;" 
d="M317 551q-27 27 -66.5 69t-69.5 82q-13 17 -11 37t11 30q13 10 35 9t35 -17q26 -36 57 -80t64 -74q18 -17 21.5 -37.5t-7.5 -30.5q-10 -10 -30 -8.5t-39 20.5zM488 408q-8 -61 -12 -109t-3 -91.5t7.5 -88t18.5 -100.5q7 -31 -6.5 -43t-31.5 -13q-17 -1 -33 7t-24 39
q-2 15 -5 30t-5 31q-23 -39 -60 -69t-91 -30q-41 1 -74.5 20t-56.5 47.5t-35.5 63t-12.5 66.5q0 92 22.5 153.5t59 98t85 51.5t99.5 15t86.5 -19t71.5 -59zM161 198q0 -22 5 -47.5t15.5 -46.5t27 -35.5t38.5 -14.5q24 0 45 13t39 32.5t31.5 44t21.5 46.5q0 35 2 79.5
t8 101.5q-19 16 -36.5 23.5t-48.5 7.5q-19 0 -45 -10t-48.5 -33.5t-38.5 -62.5t-16 -98z" />
    <glyph glyph-name="aacute" unicode="&#xe1;" 
d="M384 702q-30 -40 -69.5 -82t-66.5 -69q-19 -19 -39 -20.5t-30 8.5q-11 10 -7.5 30.5t21.5 37.5q33 30 64 74t57 80q13 16 35 17t35 -9q9 -10 11 -30t-11 -37zM488 408q-8 -61 -12 -109t-3 -91.5t7.5 -88t18.5 -100.5q7 -31 -6.5 -43t-31.5 -13q-17 -1 -33 7t-24 39
q-2 15 -5 30t-5 31q-23 -39 -60 -69t-91 -30q-41 1 -74.5 20t-56.5 47.5t-35.5 63t-12.5 66.5q0 92 22.5 153.5t59 98t85 51.5t99.5 15t86.5 -19t71.5 -59zM161 198q0 -22 5 -47.5t15.5 -46.5t27 -35.5t38.5 -14.5q24 0 45 13t39 32.5t31.5 44t21.5 46.5q0 35 2 79.5
t8 101.5q-19 16 -36.5 23.5t-48.5 7.5q-19 0 -45 -10t-48.5 -33.5t-38.5 -62.5t-16 -98z" />
    <glyph glyph-name="acircumflex" unicode="&#xe2;" 
d="M432 534q-5 1 -20 27t-36 61t-45 74t-47 65q-21 -25 -44.5 -63.5t-45 -74t-38.5 -61.5t-23 -28q-24 -6 -38.5 -1.5t-21.5 17.5q-8 12 -3.5 26t18.5 34q12 17 34.5 49.5t47 68t47 68.5t35.5 52q4 7 13 8t17 1q7 0 15 -1.5t13 -7.5q13 -17 34 -48.5t43 -66t42 -67t32 -50.5
q14 -21 27.5 -39t5.5 -30q-7 -13 -22 -15.5t-40 2.5zM488 408q-8 -61 -12 -109t-3 -91.5t7.5 -88t18.5 -100.5q7 -31 -6.5 -43t-31.5 -13q-17 -1 -33 7t-24 39q-2 15 -5 30t-5 31q-23 -39 -60 -69t-91 -30q-41 1 -74.5 20t-56.5 47.5t-35.5 63t-12.5 66.5q0 92 22.5 153.5
t59 98t85 51.5t99.5 15t86.5 -19t71.5 -59zM161 198q0 -22 5 -47.5t15.5 -46.5t27 -35.5t38.5 -14.5q24 0 45 13t39 32.5t31.5 44t21.5 46.5q0 35 2 79.5t8 101.5q-19 16 -36.5 23.5t-48.5 7.5q-19 0 -45 -10t-48.5 -33.5t-38.5 -62.5t-16 -98z" />
    <glyph glyph-name="atilde" unicode="&#xe3;" 
d="M447 678q13 -4 14.5 -21.5t-5.5 -33.5q-27 -50 -54.5 -71.5t-52.5 -21.5q-31 0 -50 14.5t-36 37.5q-13 18 -21.5 25t-24.5 7q-18 0 -25 -12t-25 -44q-6 -10 -21 -13t-26 -1q-7 1 -13 9.5t-3 19.5q19 54 47.5 88t56.5 34q27 0 46 -6t40 -37q12 -17 21.5 -29t25.5 -12
t26.5 4t29.5 37q6 11 19 21.5t31 4.5zM488 408q-8 -61 -12 -109t-3 -91.5t7.5 -88t18.5 -100.5q7 -31 -6.5 -43t-31.5 -13q-17 -1 -33 7t-24 39q-2 15 -5 30t-5 31q-23 -39 -60 -69t-91 -30q-41 1 -74.5 20t-56.5 47.5t-35.5 63t-12.5 66.5q0 92 22.5 153.5t59 98t85 51.5
t99.5 15t86.5 -19t71.5 -59zM161 198q0 -22 5 -47.5t15.5 -46.5t27 -35.5t38.5 -14.5q24 0 45 13t39 32.5t31.5 44t21.5 46.5q0 35 2 79.5t8 101.5q-19 16 -36.5 23.5t-48.5 7.5q-19 0 -45 -10t-48.5 -33.5t-38.5 -62.5t-16 -98z" />
    <glyph glyph-name="adieresis" unicode="&#xe4;" 
d="M373 530q-28 -3 -44.5 16.5t-16.5 44.5q0 24 19 41t42 18q26 1 41.5 -16.5t15.5 -42.5q0 -24 -15.5 -41t-41.5 -20zM196 530q-28 -3 -44 16.5t-16 44.5q0 24 19 41t41 18q27 1 42.5 -16.5t15.5 -42.5q0 -23 -15.5 -40.5t-42.5 -20.5zM488 408q-8 -61 -12 -109t-3 -91.5
t7.5 -88t18.5 -100.5q7 -31 -6.5 -43t-31.5 -13q-17 -1 -33 7t-24 39q-2 15 -5 30t-5 31q-23 -39 -60 -69t-91 -30q-41 1 -74.5 20t-56.5 47.5t-35.5 63t-12.5 66.5q0 92 22.5 153.5t59 98t85 51.5t99.5 15t86.5 -19t71.5 -59zM161 198q0 -22 5 -47.5t15.5 -46.5t27 -35.5
t38.5 -14.5q24 0 45 13t39 32.5t31.5 44t21.5 46.5q0 35 2 79.5t8 101.5q-19 16 -36.5 23.5t-48.5 7.5q-19 0 -45 -10t-48.5 -33.5t-38.5 -62.5t-16 -98z" />
    <glyph glyph-name="aring" unicode="&#xe5;" 
d="M280 530q-49 0 -76 28t-27 70q0 16 5 33.5t18.5 32.5t36 25t56.5 10q59 0 77 -32.5t18 -79.5q0 -31 -33 -59t-75 -28zM287 581q16 0 30.5 14.5t14.5 30.5q0 11 -8 32.5t-35 21.5q-25 0 -37.5 -16.5t-11.5 -36.5q1 -17 12 -31.5t35 -14.5zM488 408q-8 -61 -12 -109
t-3 -91.5t7.5 -88t18.5 -100.5q7 -31 -6.5 -43t-31.5 -13q-17 -1 -33 7t-24 39q-2 15 -5 30t-5 31q-23 -39 -60 -69t-91 -30q-41 1 -74.5 20t-56.5 47.5t-35.5 63t-12.5 66.5q0 92 22.5 153.5t59 98t85 51.5t99.5 15t86.5 -19t71.5 -59zM161 198q0 -22 5 -47.5t15.5 -46.5
t27 -35.5t38.5 -14.5q24 0 45 13t39 32.5t31.5 44t21.5 46.5q0 35 2 79.5t8 101.5q-19 16 -36.5 23.5t-48.5 7.5q-19 0 -45 -10t-48.5 -33.5t-38.5 -62.5t-16 -98z" />
    <glyph glyph-name="ae" unicode="&#xe6;" 
d="M395 414q-32 0 -60 -41.5t-31 -123.5q127 45 161 89q-15 42 -32 59t-38 17zM530 56q-22 -41 -55 -62t-97 -20q-42 1 -73 28q7 -49 -27 -53q-12 -1 -18 12.5t-9 47.5q-1 9 -3.5 29.5t-3.5 31.5q-42 -99 -108 -99q-37 1 -67 33t-45 76t-15 88q0 89 15.5 153t43 99
t59.5 50.5t71 15.5q31 0 54 -13.5t45 -44.5q45 59 113 59q32 0 70 -37t50 -89q4 -23 -8.5 -50.5t-25.5 -41.5q-13 -13 -31.5 -26.5t-42.5 -27t-41 -22.5t-43 -21.5t-32 -15.5q11 -102 75 -106q33 -2 59.5 19t34.5 36q26 49 51 24q28 -27 4 -73zM78 198q0 -52 16 -98t45 -46
q31 0 57.5 41.5t39.5 94.5q0 86 8 181q-16 17 -28 24t-33 7q-15 0 -32 -10.5t-34 -32t-28 -64t-11 -97.5z" />
    <glyph glyph-name="ccedilla" unicode="&#xe7;" 
d="M471 372q9 -33 -2 -48.5t-27 -22.5q-18 -7 -36.5 -2t-28.5 35q-9 27 -18.5 50.5t-49.5 23.5q-19 0 -43 -9.5t-45.5 -32.5t-38 -62.5t-19.5 -98.5q-1 -21 1 -46.5t12.5 -47.5t33 -38t60.5 -18q54 -2 85 13.5t37 30.5q13 33 32 37.5t35 -2.5t24 -22t-7 -46q-13 -26 -53 -55
t-112 -38q7 -14 22 -26.5t30.5 -24.5t27 -26t11.5 -31q0 -20 -6 -40.5t-20.5 -37t-39 -27t-61.5 -10.5q-50 0 -74 18t-37 42q-10 17 -5.5 35.5t15.5 23.5q13 6 25.5 3.5t21.5 -20.5q7 -16 21 -29.5t39 -13.5q27 0 38.5 12t11.5 35q0 20 -14 32t-31 23t-31.5 24.5t-16.5 36.5
q-41 4 -73.5 23t-54 46.5t-32.5 62t-10 70.5q1 81 23 141.5t58.5 99.5t83.5 58.5t97 19.5q51 0 90 -37.5t51 -83.5z" />
    <glyph glyph-name="egrave" unicode="&#xe8;" 
d="M317 551q-27 27 -66.5 69t-69.5 82q-13 17 -11 37t11 30q13 10 35 9t35 -17q26 -36 57 -80t64 -74q18 -17 21.5 -37.5t-7.5 -30.5q-10 -10 -30 -8.5t-39 20.5zM479 56q-26 -36 -71.5 -59.5t-142.5 -22.5q-93 1 -144.5 67.5t-50.5 180.5q1 63 20 113t50.5 83.5t75.5 51
t94 17.5q21 0 47 -9.5t50 -26t44 -40t29 -50.5q3 -13 -1.5 -27t-12.5 -26.5t-18 -23t-17 -15.5q-23 -17 -59 -33.5t-74 -31.5t-74 -27t-60 -21q7 -43 30.5 -73.5t75.5 -32.5q27 -1 50.5 6.5t40.5 17t28 19t13 12.5q22 29 40 31.5t32 -7.5t20 -27.5t-15 -45.5zM290 414
q-19 0 -40.5 -9t-40.5 -29t-32 -51.5t-16 -75.5q10 3 40 10.5t65 19.5t69 27t53 32q-22 44 -46 60t-52 16z" />
    <glyph glyph-name="eacute" unicode="&#xe9;" 
d="M384 702q-30 -40 -69.5 -82t-66.5 -69q-19 -19 -39 -20.5t-30 8.5q-11 10 -7.5 30.5t21.5 37.5q33 30 64 74t57 80q13 16 35 17t35 -9q9 -10 11 -30t-11 -37zM479 56q-26 -36 -71.5 -59.5t-142.5 -22.5q-93 1 -144.5 67.5t-50.5 180.5q1 63 20 113t50.5 83.5t75.5 51
t94 17.5q21 0 47 -9.5t50 -26t44 -40t29 -50.5q3 -13 -1.5 -27t-12.5 -26.5t-18 -23t-17 -15.5q-23 -17 -59 -33.5t-74 -31.5t-74 -27t-60 -21q7 -43 30.5 -73.5t75.5 -32.5q27 -1 50.5 6.5t40.5 17t28 19t13 12.5q22 29 40 31.5t32 -7.5t20 -27.5t-15 -45.5zM290 414
q-19 0 -40.5 -9t-40.5 -29t-32 -51.5t-16 -75.5q10 3 40 10.5t65 19.5t69 27t53 32q-22 44 -46 60t-52 16z" />
    <glyph glyph-name="ecircumflex" unicode="&#xea;" 
d="M432 534q-5 1 -20 27t-36 61t-45 74t-47 65q-21 -25 -44.5 -63.5t-45 -74t-38.5 -61.5t-23 -28q-24 -6 -38.5 -1.5t-21.5 17.5q-8 12 -3.5 26t18.5 34q12 17 34.5 49.5t47 68t47 68.5t35.5 52q4 7 13 8t17 1q7 0 15 -1.5t13 -7.5q13 -17 34 -48.5t43 -66t42 -67t32 -50.5
q14 -21 27.5 -39t5.5 -30q-7 -13 -22 -15.5t-40 2.5zM479 56q-26 -36 -71.5 -59.5t-142.5 -22.5q-93 1 -144.5 67.5t-50.5 180.5q1 63 20 113t50.5 83.5t75.5 51t94 17.5q21 0 47 -9.5t50 -26t44 -40t29 -50.5q3 -13 -1.5 -27t-12.5 -26.5t-18 -23t-17 -15.5
q-23 -17 -59 -33.5t-74 -31.5t-74 -27t-60 -21q7 -43 30.5 -73.5t75.5 -32.5q27 -1 50.5 6.5t40.5 17t28 19t13 12.5q22 29 40 31.5t32 -7.5t20 -27.5t-15 -45.5zM290 414q-19 0 -40.5 -9t-40.5 -29t-32 -51.5t-16 -75.5q10 3 40 10.5t65 19.5t69 27t53 32q-22 44 -46 60
t-52 16z" />
    <glyph glyph-name="edieresis" unicode="&#xeb;" 
d="M372 530q-28 -3 -44.5 16.5t-16.5 44.5q0 24 19 41t42 18q26 1 41.5 -16.5t15.5 -42.5q0 -24 -15.5 -41t-41.5 -20zM195 530q-28 -3 -44 16.5t-16 44.5q0 24 19 41t41 18q27 1 42.5 -16.5t15.5 -42.5q0 -23 -15.5 -40.5t-42.5 -20.5zM479 56q-26 -36 -71.5 -59.5
t-142.5 -22.5q-93 1 -144.5 67.5t-50.5 180.5q1 63 20 113t50.5 83.5t75.5 51t94 17.5q21 0 47 -9.5t50 -26t44 -40t29 -50.5q3 -13 -1.5 -27t-12.5 -26.5t-18 -23t-17 -15.5q-23 -17 -59 -33.5t-74 -31.5t-74 -27t-60 -21q7 -43 30.5 -73.5t75.5 -32.5q27 -1 50.5 6.5
t40.5 17t28 19t13 12.5q22 29 40 31.5t32 -7.5t20 -27.5t-15 -45.5zM290 414q-19 0 -40.5 -9t-40.5 -29t-32 -51.5t-16 -75.5q10 3 40 10.5t65 19.5t69 27t53 32q-22 44 -46 60t-52 16z" />
    <glyph glyph-name="igrave" unicode="&#xec;" horiz-adv-x="540" 
d="M276 551q-27 27 -66.5 69t-69.5 82q-13 17 -11 37t11 30q13 10 35 9t35 -17q26 -36 57 -80t64 -74q18 -17 21.5 -37.5t-7.5 -30.5q-10 -10 -30 -8.5t-39 20.5zM106 65h145v34q0 17 -1 39q-2 63 0 121.5t4 118.5q-25 3 -53 1t-64 -1q-19 0 -28 11t-9 24q-1 16 8 28.5
t28 12.5q28 2 68.5 4t89.5 1q15 0 24.5 -6.5t15 -16t7 -18.5t1.5 -13q-7 -93 -5.5 -171t5.5 -169h117q24 0 31 -11.5t7 -25.5q-1 -14 -9 -26.5t-31 -12.5q-16 0 -62 -1t-100.5 -1.5t-107.5 -1.5t-82 -1q-25 0 -32.5 13.5t-6.5 28.5q0 15 7.5 27t32.5 12z" />
    <glyph glyph-name="iacute" unicode="&#xed;" horiz-adv-x="540" 
d="M399 702q-30 -40 -69.5 -82t-66.5 -69q-19 -19 -39 -20.5t-30 8.5q-11 10 -7.5 30.5t21.5 37.5q33 30 64 74t57 80q13 16 35 17t35 -9q9 -10 11 -30t-11 -37zM106 65h145v34q0 17 -1 39q-2 63 0 121.5t4 118.5q-25 3 -53 1t-64 -1q-19 0 -28 11t-9 24q-1 16 8 28.5
t28 12.5q28 2 68.5 4t89.5 1q15 0 24.5 -6.5t15 -16t7 -18.5t1.5 -13q-7 -93 -5.5 -171t5.5 -169h117q24 0 31 -11.5t7 -25.5q-1 -14 -9 -26.5t-31 -12.5q-16 0 -62 -1t-100.5 -1.5t-107.5 -1.5t-82 -1q-25 0 -32.5 13.5t-6.5 28.5q0 15 7.5 27t32.5 12z" />
    <glyph glyph-name="icircumflex" unicode="&#xee;" horiz-adv-x="540" 
d="M409 534q-5 1 -20 27t-36 61t-45 74t-47 65q-21 -25 -44.5 -63.5t-45 -74t-38.5 -61.5t-23 -28q-24 -6 -38.5 -1.5t-21.5 17.5q-8 12 -3.5 26t18.5 34q12 17 34.5 49.5t47 68t47 68.5t35.5 52q4 7 13 8t17 1q7 0 15 -1.5t13 -7.5q13 -17 34 -48.5t43 -66t42 -67t32 -50.5
q14 -21 27.5 -39t5.5 -30q-7 -13 -22 -15.5t-40 2.5zM106 65h145v34q0 17 -1 39q-2 63 0 121.5t4 118.5q-25 3 -53 1t-64 -1q-19 0 -28 11t-9 24q-1 16 8 28.5t28 12.5q28 2 68.5 4t89.5 1q15 0 24.5 -6.5t15 -16t7 -18.5t1.5 -13q-7 -93 -5.5 -171t5.5 -169h117
q24 0 31 -11.5t7 -25.5q-1 -14 -9 -26.5t-31 -12.5q-16 0 -62 -1t-100.5 -1.5t-107.5 -1.5t-82 -1q-25 0 -32.5 13.5t-6.5 28.5q0 15 7.5 27t32.5 12z" />
    <glyph glyph-name="idieresis" unicode="&#xef;" horiz-adv-x="540" 
d="M370 530q-28 -3 -44.5 16.5t-16.5 44.5q0 24 19 41t42 18q26 1 41.5 -16.5t15.5 -42.5q0 -24 -15.5 -41t-41.5 -20zM193 530q-28 -3 -44 16.5t-16 44.5q0 24 19 41t41 18q27 1 42.5 -16.5t15.5 -42.5q0 -23 -15.5 -40.5t-42.5 -20.5zM106 65h145v34q0 17 -1 39
q-2 63 0 121.5t4 118.5q-25 3 -53 1t-64 -1q-19 0 -28 11t-9 24q-1 16 8 28.5t28 12.5q28 2 68.5 4t89.5 1q15 0 24.5 -6.5t15 -16t7 -18.5t1.5 -13q-7 -93 -5.5 -171t5.5 -169h117q24 0 31 -11.5t7 -25.5q-1 -14 -9 -26.5t-31 -12.5q-16 0 -62 -1t-100.5 -1.5t-107.5 -1.5
t-82 -1q-25 0 -32.5 13.5t-6.5 28.5q0 15 7.5 27t32.5 12z" />
    <glyph glyph-name="ntilde" unicode="&#xf1;" horiz-adv-x="600" 
d="M469 678q13 -4 14.5 -21.5t-5.5 -33.5q-27 -50 -54.5 -71.5t-52.5 -21.5q-31 0 -50 14.5t-36 37.5q-13 18 -21.5 25t-24.5 7q-18 0 -25 -12t-25 -44q-6 -10 -21 -13t-26 -1q-7 1 -13 9.5t-3 19.5q19 54 47.5 88t56.5 34q27 0 46 -6t40 -37q12 -17 21.5 -29t25.5 -12
t26.5 4t29.5 37q6 11 19 21.5t31 4.5zM200 427q-1 -7 -1.5 -15t-1.5 -16q19 30 59 55.5t101 25.5q66 0 98.5 -49t34.5 -131q2 -76 13.5 -142t14.5 -120q1 -31 -11.5 -43.5t-28.5 -12.5q-18 -1 -34.5 11.5t-18.5 44.5q-4 43 -11 99.5t-10 120.5q-4 77 -15 106t-45 29
q-31 0 -56 -11.5t-44.5 -28.5t-34 -37.5t-23.5 -38.5q-1 -24 -2 -49t0 -50q0 -44 5.5 -83t5.5 -64q0 -30 -16 -40t-35 -9q-15 1 -27.5 11.5t-13.5 37.5q-1 16 -5 45.5t-5 64.5q-3 78 4 153t8 135q1 31 18.5 43.5t35.5 11.5q17 0 30.5 -11.5t10.5 -42.5z" />
    <glyph glyph-name="ograve" unicode="&#xf2;" 
d="M307 551q-27 27 -66.5 69t-69.5 82q-13 17 -11 37t11 30q13 10 35 9t35 -17q26 -36 57 -80t64 -74q18 -17 21.5 -37.5t-7.5 -30.5q-10 -10 -30 -8.5t-39 20.5zM255 -25q-47 1 -84 22t-62.5 55.5t-39 79t-12.5 92.5q0 56 14.5 104.5t43 84t71 56t97.5 20.5q41 0 79.5 -15
t67.5 -48.5t44.5 -87t11.5 -129.5q-7 -110 -60 -172.5t-171 -61.5zM275 54q58 -3 86 47t31 124q4 103 -30.5 147t-91.5 44q-56 0 -84.5 -52t-32.5 -138q-2 -72 21.5 -120t100.5 -52z" />
    <glyph glyph-name="oacute" unicode="&#xf3;" 
d="M373 702q-30 -40 -69.5 -82t-66.5 -69q-19 -19 -39 -20.5t-30 8.5q-11 10 -7.5 30.5t21.5 37.5q33 30 64 74t57 80q13 16 35 17t35 -9q9 -10 11 -30t-11 -37zM255 -25q-47 1 -84 22t-62.5 55.5t-39 79t-12.5 92.5q0 56 14.5 104.5t43 84t71 56t97.5 20.5q41 0 79.5 -15
t67.5 -48.5t44.5 -87t11.5 -129.5q-7 -110 -60 -172.5t-171 -61.5zM275 54q58 -3 86 47t31 124q4 103 -30.5 147t-91.5 44q-56 0 -84.5 -52t-32.5 -138q-2 -72 21.5 -120t100.5 -52z" />
    <glyph glyph-name="ocircumflex" unicode="&#xf4;" 
d="M422 534q-5 1 -20 27t-36 61t-45 74t-47 65q-21 -25 -44.5 -63.5t-45 -74t-38.5 -61.5t-23 -28q-24 -6 -38.5 -1.5t-21.5 17.5q-8 12 -3.5 26t18.5 34q12 17 34.5 49.5t47 68t47 68.5t35.5 52q4 7 13 8t17 1q7 0 15 -1.5t13 -7.5q13 -17 34 -48.5t43 -66t42 -67t32 -50.5
q14 -21 27.5 -39t5.5 -30q-7 -13 -22 -15.5t-40 2.5zM255 -25q-47 1 -84 22t-62.5 55.5t-39 79t-12.5 92.5q0 56 14.5 104.5t43 84t71 56t97.5 20.5q41 0 79.5 -15t67.5 -48.5t44.5 -87t11.5 -129.5q-7 -110 -60 -172.5t-171 -61.5zM275 54q58 -3 86 47t31 124
q4 103 -30.5 147t-91.5 44q-56 0 -84.5 -52t-32.5 -138q-2 -72 21.5 -120t100.5 -52z" />
    <glyph glyph-name="otilde" unicode="&#xf5;" 
d="M436 678q13 -4 14.5 -21.5t-5.5 -33.5q-27 -50 -54.5 -71.5t-52.5 -21.5q-31 0 -50 14.5t-36 37.5q-13 18 -21.5 25t-24.5 7q-18 0 -25 -12t-25 -44q-6 -10 -21 -13t-26 -1q-7 1 -13 9.5t-3 19.5q19 54 47.5 88t56.5 34q27 0 46 -6t40 -37q12 -17 21.5 -29t25.5 -12
t26.5 4t29.5 37q6 11 19 21.5t31 4.5zM255 -25q-47 1 -84 22t-62.5 55.5t-39 79t-12.5 92.5q0 56 14.5 104.5t43 84t71 56t97.5 20.5q41 0 79.5 -15t67.5 -48.5t44.5 -87t11.5 -129.5q-7 -110 -60 -172.5t-171 -61.5zM275 54q58 -3 86 47t31 124q4 103 -30.5 147t-91.5 44
q-56 0 -84.5 -52t-32.5 -138q-2 -72 21.5 -120t100.5 -52z" />
    <glyph glyph-name="odieresis" unicode="&#xf6;" 
d="M362 530q-28 -3 -44.5 16.5t-16.5 44.5q0 24 19 41t42 18q26 1 41.5 -16.5t15.5 -42.5q0 -24 -15.5 -41t-41.5 -20zM185 530q-28 -3 -44 16.5t-16 44.5q0 24 19 41t41 18q27 1 42.5 -16.5t15.5 -42.5q0 -23 -15.5 -40.5t-42.5 -20.5zM255 -25q-47 1 -84 22t-62.5 55.5
t-39 79t-12.5 92.5q0 56 14.5 104.5t43 84t71 56t97.5 20.5q41 0 79.5 -15t67.5 -48.5t44.5 -87t11.5 -129.5q-7 -110 -60 -172.5t-171 -61.5zM275 54q58 -3 86 47t31 124q4 103 -30.5 147t-91.5 44q-56 0 -84.5 -52t-32.5 -138q-2 -72 21.5 -120t100.5 -52z" />
    <glyph glyph-name="divide" unicode="&#xf7;" 
d="M278 375q-32 -3 -51 18t-19 46q0 26 22 44.5t48 19.5q30 1 48 -18t18 -45t-18 -43.5t-48 -21.5zM98 316q45 -1 102 -2q56 -1 109 -1h94h59q24 0 31.5 -12t8.5 -25q0 -15 -7.5 -30t-32.5 -13q-16 1 -63.5 1t-104 -0.5t-111.5 -1.5t-84 -1q-25 0 -35.5 13.5t-10.5 28.5
q-1 15 9.5 29.5t35.5 13.5zM278 49q-32 -3 -51 18t-19 46q0 26 22 44.5t48 19.5q30 1 48 -18t18 -45t-18 -43.5t-48 -21.5z" />
    <glyph glyph-name="ugrave" unicode="&#xf9;" 
d="M314 551q-27 27 -66.5 69t-69.5 82q-13 17 -11 37t11 30q13 10 35 9t35 -17q26 -36 57 -80t64 -74q18 -17 21.5 -37.5t-7.5 -30.5q-10 -10 -30 -8.5t-39 20.5zM392 29v26q-31 -26 -84 -50.5t-110 -19.5q-25 2 -47 15.5t-38.5 32.5t-26 42t-10.5 45q-3 39 -4 76t-1 74
q0 46 2.5 86.5t1.5 69.5q0 24 13.5 34.5t29.5 10.5q18 0 33.5 -10.5t15.5 -34.5q0 -23 -2.5 -63.5t-1.5 -87.5q0 -37 1 -73t6 -74q5 -37 21 -47t42 -10q44 0 87.5 21t72.5 43q1 31 1 65t-1 74q0 37 -1 81t-3 72q0 21 12.5 32t28.5 12q17 0 33 -11t16 -33q3 -19 3.5 -53.5
t1.5 -62.5q3 -82 3 -149v-132q0 -29 -13.5 -40t-29.5 -12q-19 -1 -35.5 9.5t-16.5 41.5z" />
    <glyph glyph-name="uacute" unicode="&#xfa;" 
d="M380 702q-30 -40 -69.5 -82t-66.5 -69q-19 -19 -39 -20.5t-30 8.5q-11 10 -7.5 30.5t21.5 37.5q33 30 64 74t57 80q13 16 35 17t35 -9q9 -10 11 -30t-11 -37zM392 29v26q-31 -26 -84 -50.5t-110 -19.5q-25 2 -47 15.5t-38.5 32.5t-26 42t-10.5 45q-3 39 -4 76t-1 74
q0 46 2.5 86.5t1.5 69.5q0 24 13.5 34.5t29.5 10.5q18 0 33.5 -10.5t15.5 -34.5q0 -23 -2.5 -63.5t-1.5 -87.5q0 -37 1 -73t6 -74q5 -37 21 -47t42 -10q44 0 87.5 21t72.5 43q1 31 1 65t-1 74q0 37 -1 81t-3 72q0 21 12.5 32t28.5 12q17 0 33 -11t16 -33q3 -19 3.5 -53.5
t1.5 -62.5q3 -82 3 -149v-132q0 -29 -13.5 -40t-29.5 -12q-19 -1 -35.5 9.5t-16.5 41.5z" />
    <glyph glyph-name="ucircumflex" unicode="&#xfb;" 
d="M429 534q-5 1 -20 27t-36 61t-45 74t-47 65q-21 -25 -44.5 -63.5t-45 -74t-38.5 -61.5t-23 -28q-24 -6 -38.5 -1.5t-21.5 17.5q-8 12 -3.5 26t18.5 34q12 17 34.5 49.5t47 68t47 68.5t35.5 52q4 7 13 8t17 1q7 0 15 -1.5t13 -7.5q13 -17 34 -48.5t43 -66t42 -67t32 -50.5
q14 -21 27.5 -39t5.5 -30q-7 -13 -22 -15.5t-40 2.5zM392 29v26q-31 -26 -84 -50.5t-110 -19.5q-25 2 -47 15.5t-38.5 32.5t-26 42t-10.5 45q-3 39 -4 76t-1 74q0 46 2.5 86.5t1.5 69.5q0 24 13.5 34.5t29.5 10.5q18 0 33.5 -10.5t15.5 -34.5q0 -23 -2.5 -63.5t-1.5 -87.5
q0 -37 1 -73t6 -74q5 -37 21 -47t42 -10q44 0 87.5 21t72.5 43q1 31 1 65t-1 74q0 37 -1 81t-3 72q0 21 12.5 32t28.5 12q17 0 33 -11t16 -33q3 -19 3.5 -53.5t1.5 -62.5q3 -82 3 -149v-132q0 -29 -13.5 -40t-29.5 -12q-19 -1 -35.5 9.5t-16.5 41.5z" />
    <glyph glyph-name="udieresis" unicode="&#xfc;" 
d="M369 530q-28 -3 -44.5 16.5t-16.5 44.5q0 24 19 41t42 18q26 1 41.5 -16.5t15.5 -42.5q0 -24 -15.5 -41t-41.5 -20zM192 530q-28 -3 -44 16.5t-16 44.5q0 24 19 41t41 18q27 1 42.5 -16.5t15.5 -42.5q0 -23 -15.5 -40.5t-42.5 -20.5zM392 29v26q-31 -26 -84 -50.5
t-110 -19.5q-25 2 -47 15.5t-38.5 32.5t-26 42t-10.5 45q-3 39 -4 76t-1 74q0 46 2.5 86.5t1.5 69.5q0 24 13.5 34.5t29.5 10.5q18 0 33.5 -10.5t15.5 -34.5q0 -23 -2.5 -63.5t-1.5 -87.5q0 -37 1 -73t6 -74q5 -37 21 -47t42 -10q44 0 87.5 21t72.5 43q1 31 1 65t-1 74
q0 37 -1 81t-3 72q0 21 12.5 32t28.5 12q17 0 33 -11t16 -33q3 -19 3.5 -53.5t1.5 -62.5q3 -82 3 -149v-132q0 -29 -13.5 -40t-29.5 -12q-19 -1 -35.5 9.5t-16.5 41.5z" />
    <glyph glyph-name="yacute" unicode="&#xfd;" 
d="M384 702q-30 -40 -69.5 -82t-66.5 -69q-19 -19 -39 -20.5t-30 8.5q-11 10 -7.5 30.5t21.5 37.5q33 30 64 74t57 80q13 16 35 17t35 -9q9 -10 11 -30t-11 -37zM513 397q-39 -92 -120 -254.5t-208 -413.5q-8 -16 -27 -23.5t-37 6.5q-13 10 -19 26.5t5 36.5
q32 64 62.5 123.5t58.5 113.5q-57 108 -102.5 207t-73.5 173q-12 33 -3.5 51t23.5 25q16 8 38 2t33 -43q25 -81 63 -165.5t71 -152.5q43 87 80 167t67 157q13 34 32.5 41t35.5 0q13 -7 23.5 -26t-2.5 -51z" />
    <glyph glyph-name="thorn" unicode="&#xfe;" 
d="M82 711q7 15 22 22.5t30 5.5t26 -14t7 -25q-1 -3 -2 -64.5t-2 -128t-2 -77.5q67 46 134 46q94 0 142 -59t50 -213q1 -53 -20 -105t-67 -89.5t-105 -38.5q-89 -1 -128 11q0 -44 1.5 -118t1.5 -94q1 -23 -11.5 -35.5t-30.5 -12.5q-45 2 -47 49q-8 163 -8 615q0 65 3 191.5
t6 133.5zM160 331q0 -16 1.5 -67.5t2.5 -106t1 -102.5q25 -10 119 -6q56 2 82.5 57t23.5 128q-4 94 -29.5 128.5t-69.5 34.5q-31 0 -67.5 -16t-63.5 -39v-11z" />
    <glyph glyph-name="ydieresis" unicode="&#xff;" 
d="M373 530q-28 -3 -44.5 16.5t-16.5 44.5q0 24 19 41t42 18q26 1 41.5 -16.5t15.5 -42.5q0 -24 -15.5 -41t-41.5 -20zM196 530q-28 -3 -44 16.5t-16 44.5q0 24 19 41t41 18q27 1 42.5 -16.5t15.5 -42.5q0 -23 -15.5 -40.5t-42.5 -20.5zM513 397q-39 -92 -120 -254.5
t-208 -413.5q-8 -16 -27 -23.5t-37 6.5q-13 10 -19 26.5t5 36.5q32 64 62.5 123.5t58.5 113.5q-57 108 -102.5 207t-73.5 173q-12 33 -3.5 51t23.5 25q16 8 38 2t33 -43q25 -81 63 -165.5t71 -152.5q43 87 80 167t67 157q13 34 32.5 41t35.5 0q13 -7 23.5 -26t-2.5 -51z" />
    <glyph glyph-name="Amacron" unicode="&#x100;" 
d="M117 822h53h79q44 0 94 1t98 2q25 1 35.5 -13.5t9.5 -29.5q0 -15 -10.5 -28.5t-35.5 -13.5h-79h-97q-48 0 -89 0.5t-58 1.5q-25 1 -32.5 14.5t-7.5 28.5q1 13 8.5 25t31.5 12zM503 -2q-16 -7 -34 1t-30 39q-7 19 -19.5 72.5t-27.5 124.5q-18 -1 -43 -2.5t-53.5 -4t-59 -6
t-58.5 -7.5q-22 -62 -38.5 -110.5t-22.5 -66.5q-10 -31 -27.5 -39t-33.5 -1q-15 7 -21 24.5t1 46.5q3 15 17.5 54.5t36.5 91.5q-8 5 -12.5 12.5t-4.5 14.5q-1 13 12.5 25t32.5 18q21 50 45 102.5t47 100t45 88t40 66.5q13 18 24 27t24 9q16 1 31 -6.5t19 -29.5
q8 -47 25.5 -136.5t37.5 -180t38.5 -164.5t28.5 -92q14 -26 4.5 -45t-24.5 -26zM325 563q-12 -18 -26 -47t-29.5 -64t-31 -75t-30.5 -80q51 6 94.5 9t74.5 4q-13 64 -26.5 130t-25.5 123z" />
    <glyph glyph-name="amacron" unicode="&#x101;" 
d="M118 612h53h79q44 0 94 1t98 2q25 1 35.5 -13.5t9.5 -29.5q0 -15 -10.5 -28.5t-35.5 -13.5h-79h-97q-48 0 -89 0.5t-58 1.5q-25 1 -32.5 14.5t-7.5 28.5q1 13 8.5 25t31.5 12zM488 408q-8 -61 -12 -109t-3 -91.5t7.5 -88t18.5 -100.5q7 -31 -6.5 -43t-31.5 -13
q-17 -1 -33 7t-24 39q-2 15 -5 30t-5 31q-23 -39 -60 -69t-91 -30q-41 1 -74.5 20t-56.5 47.5t-35.5 63t-12.5 66.5q0 92 22.5 153.5t59 98t85 51.5t99.5 15t86.5 -19t71.5 -59zM161 198q0 -22 5 -47.5t15.5 -46.5t27 -35.5t38.5 -14.5q24 0 45 13t39 32.5t31.5 44
t21.5 46.5q0 35 2 79.5t8 101.5q-19 16 -36.5 23.5t-48.5 7.5q-19 0 -45 -10t-48.5 -33.5t-38.5 -62.5t-16 -98z" />
    <glyph glyph-name="Abreve" unicode="&#x102;" 
d="M123 886q12 -2 28 -14t35.5 -25t43 -24t49.5 -11t45 5t35.5 13.5t33 21t38.5 27.5q22 14 36.5 3t13.5 -26q0 -15 -6 -27.5t-24 -29.5q-24 -23 -64 -41t-107 -18q-34 0 -61 7.5t-47.5 17t-35 20t-22.5 16.5q-19 15 -25 27.5t-6 27.5q1 13 9 23.5t31 6.5zM503 -2
q-16 -7 -34 1t-30 39q-7 19 -19.5 72.5t-27.5 124.5q-18 -1 -43 -2.5t-53.5 -4t-59 -6t-58.5 -7.5q-22 -62 -38.5 -110.5t-22.5 -66.5q-10 -31 -27.5 -39t-33.5 -1q-15 7 -21 24.5t1 46.5q3 15 17.5 54.5t36.5 91.5q-8 5 -12.5 12.5t-4.5 14.5q-1 13 12.5 25t32.5 18
q21 50 45 102.5t47 100t45 88t40 66.5q13 18 24 27t24 9q16 1 31 -6.5t19 -29.5q8 -47 25.5 -136.5t37.5 -180t38.5 -164.5t28.5 -92q14 -26 4.5 -45t-24.5 -26zM325 563q-12 -18 -26 -47t-29.5 -64t-31 -75t-30.5 -80q51 6 94.5 9t74.5 4q-13 64 -26.5 130t-25.5 123z" />
    <glyph glyph-name="abreve" unicode="&#x103;" 
d="M124 676q12 -2 28 -14t35.5 -25t43 -24t49.5 -11t45 5t35.5 13.5t33 21t38.5 27.5q22 14 36.5 3t13.5 -26q0 -15 -6 -27.5t-24 -29.5q-24 -23 -64 -41t-107 -18q-34 0 -61 7.5t-47.5 17t-35 20t-22.5 16.5q-19 15 -25 27.5t-6 27.5q1 13 9 23.5t31 6.5zM488 408
q-8 -61 -12 -109t-3 -91.5t7.5 -88t18.5 -100.5q7 -31 -6.5 -43t-31.5 -13q-17 -1 -33 7t-24 39q-2 15 -5 30t-5 31q-23 -39 -60 -69t-91 -30q-41 1 -74.5 20t-56.5 47.5t-35.5 63t-12.5 66.5q0 92 22.5 153.5t59 98t85 51.5t99.5 15t86.5 -19t71.5 -59zM161 198
q0 -22 5 -47.5t15.5 -46.5t27 -35.5t38.5 -14.5q24 0 45 13t39 32.5t31.5 44t21.5 46.5q0 35 2 79.5t8 101.5q-19 16 -36.5 23.5t-48.5 7.5q-19 0 -45 -10t-48.5 -33.5t-38.5 -62.5t-16 -98z" />
    <glyph glyph-name="Aogonek" unicode="&#x104;" 
d="M518 8q-1 0 -1 -0.5t-1 -0.5q-3 -3 -6.5 -5.5t-5.5 -3.5q-23 -17 -39 -43.5t-16 -55.5q0 -25 10 -52t35 -27q18 0 29.5 3.5t20 7.5t18 8.5t22.5 5.5q11 1 17 -5.5t7 -16.5t-3 -21.5t-12 -20.5q-16 -17 -44 -30.5t-72 -13.5q-20 0 -40 7.5t-36 24t-26 41.5t-10 59
q0 40 9.5 71t34.5 58q9 10 17.5 17.5t16.5 13.5q-1 2 -2 4.5t-2 4.5q-7 19 -19.5 72.5t-27.5 124.5q-18 -1 -43 -2.5t-53.5 -4t-59 -6t-58.5 -7.5q-22 -62 -38.5 -110.5t-22.5 -66.5q-10 -31 -27.5 -39t-33.5 -1q-15 7 -21 24.5t1 46.5q3 15 17.5 54.5t36.5 91.5
q-8 5 -12.5 12.5t-4.5 14.5q-1 13 12.5 25t32.5 18q21 50 45 102.5t47 100t45 88t40 66.5q13 18 24 27t24 9q16 1 31 -6.5t19 -29.5q8 -47 25.5 -136.5t37.5 -180t38.5 -164.5t28.5 -92q9 -16 8 -29.5t-7 -23.5q-1 -2 -2 -4.5t-4 -3.5zM325 563q-12 -18 -26 -47t-29.5 -64
t-31 -75t-30.5 -80q51 6 94.5 9t74.5 4q-13 64 -26.5 130t-25.5 123z" />
    <glyph glyph-name="aogonek" unicode="&#x105;" 
d="M488 408q-8 -61 -12 -109t-3 -91.5t7.5 -88t18.5 -100.5q7 -31 -6.5 -43t-31.5 -13h-15q-10 -14 -16 -31t-6 -34q0 -25 10 -52t35 -27q18 0 29.5 3.5t20 7.5t18 8.5t22.5 5.5q11 1 17 -5.5t7 -16.5t-3 -21.5t-12 -20.5q-16 -17 -44 -30.5t-72 -13.5q-20 0 -40 7.5t-36 24
t-26 41.5t-10 59q0 40 9.5 71t34.5 58l10 10l9 9q-2 13 -4.5 26.5t-4.5 27.5q-23 -39 -60 -69t-91 -30q-41 1 -74.5 20t-56.5 47.5t-35.5 63t-12.5 66.5q0 92 22.5 153.5t59 98t85 51.5t99.5 15t86.5 -19t71.5 -59zM161 198q0 -22 5 -47.5t15.5 -46.5t27 -35.5t38.5 -14.5
q24 0 45 13t39 32.5t31.5 44t21.5 46.5q0 35 2 79.5t8 101.5q-19 16 -36.5 23.5t-48.5 7.5q-19 0 -45 -10t-48.5 -33.5t-38.5 -62.5t-16 -98z" />
    <glyph glyph-name="Cacute" unicode="&#x106;" 
d="M380 912q-30 -40 -69.5 -82t-66.5 -69q-19 -19 -39 -20.5t-30 8.5q-11 10 -7.5 30.5t21.5 37.5q33 30 64 74t57 80q13 16 35 17t35 -9q9 -10 11 -30t-11 -37zM359 667q17 0 33.5 -2t29.5 -6q4 14 15 23t23 10q13 2 30 -7t21 -29q8 -37 8 -65v-44q0 -20 -14.5 -40.5
t-29.5 -21.5q-15 -2 -33.5 8.5t-18.5 31.5q0 7 0.5 17t1.5 22q-11 7 -26 17t-33 10q-37 0 -78.5 -29.5t-76 -79.5t-57.5 -117t-23 -141q0 -31 10 -61.5t26.5 -54t40 -38.5t50.5 -15q63 0 109 22t71 41q16 11 31 16t29 -5q13 -10 15.5 -27t-19.5 -42q-13 -15 -33.5 -31
t-50 -29t-70 -21.5t-93.5 -7.5q-49 0 -88 20t-66 51.5t-41 71.5t-14 80q0 104 30.5 191.5t77 150t103.5 97t110 34.5z" />
    <glyph glyph-name="cacute" unicode="&#x107;" 
d="M378 702q-30 -40 -69.5 -82t-66.5 -69q-19 -19 -39 -20.5t-30 8.5q-11 10 -7.5 30.5t21.5 37.5q33 30 64 74t57 80q13 16 35 17t35 -9q9 -10 11 -30t-11 -37zM471 372q9 -33 -2 -48.5t-27 -22.5q-18 -7 -36.5 -2t-28.5 35q-9 27 -18.5 50.5t-49.5 23.5q-19 0 -43 -9.5
t-45.5 -32.5t-38 -62.5t-19.5 -98.5q-1 -21 1 -46.5t12.5 -47.5t33 -38t60.5 -18q54 -2 85 13.5t37 30.5q13 33 32 37.5t35 -2.5t24 -22t-7 -46q-7 -15 -24 -32.5t-43.5 -31.5t-63.5 -23t-86 -8q-47 1 -83 18.5t-60 45.5t-36.5 64.5t-11.5 74.5q1 81 23 141.5t58.5 99.5
t83.5 58.5t97 19.5q51 0 90 -37.5t51 -83.5z" />
    <glyph glyph-name="Ccircumflex" unicode="&#x108;" 
d="M450 744q-5 1 -20 27t-36 61t-45 74t-47 65q-21 -25 -44.5 -63.5t-45 -74t-38.5 -61.5t-23 -28q-24 -6 -38.5 -1.5t-21.5 17.5q-8 12 -3.5 26t18.5 34q12 17 34.5 49.5t47 68t47 68.5t35.5 52q4 7 13 8t17 1q7 0 15 -1.5t13 -7.5q13 -17 34 -48.5t43 -66t42 -67t32 -50.5
q14 -21 27.5 -39t5.5 -30q-7 -13 -22 -15.5t-40 2.5zM359 667q17 0 33.5 -2t29.5 -6q4 14 15 23t23 10q13 2 30 -7t21 -29q8 -37 8 -65v-44q0 -20 -14.5 -40.5t-29.5 -21.5q-15 -2 -33.5 8.5t-18.5 31.5q0 7 0.5 17t1.5 22q-11 7 -26 17t-33 10q-37 0 -78.5 -29.5t-76 -79.5
t-57.5 -117t-23 -141q0 -31 10 -61.5t26.5 -54t40 -38.5t50.5 -15q63 0 109 22t71 41q16 11 31 16t29 -5q13 -10 15.5 -27t-19.5 -42q-13 -15 -33.5 -31t-50 -29t-70 -21.5t-93.5 -7.5q-49 0 -88 20t-66 51.5t-41 71.5t-14 80q0 104 30.5 191.5t77 150t103.5 97t110 34.5z
" />
    <glyph glyph-name="ccircumflex" unicode="&#x109;" 
d="M426 534q-5 1 -20 27t-36 61t-45 74t-47 65q-21 -25 -44.5 -63.5t-45 -74t-38.5 -61.5t-23 -28q-24 -6 -38.5 -1.5t-21.5 17.5q-8 12 -3.5 26t18.5 34q12 17 34.5 49.5t47 68t47 68.5t35.5 52q4 7 13 8t17 1q7 0 15 -1.5t13 -7.5q13 -17 34 -48.5t43 -66t42 -67t32 -50.5
q14 -21 27.5 -39t5.5 -30q-7 -13 -22 -15.5t-40 2.5zM471 372q9 -33 -2 -48.5t-27 -22.5q-18 -7 -36.5 -2t-28.5 35q-9 27 -18.5 50.5t-49.5 23.5q-19 0 -43 -9.5t-45.5 -32.5t-38 -62.5t-19.5 -98.5q-1 -21 1 -46.5t12.5 -47.5t33 -38t60.5 -18q54 -2 85 13.5t37 30.5
q13 33 32 37.5t35 -2.5t24 -22t-7 -46q-7 -15 -24 -32.5t-43.5 -31.5t-63.5 -23t-86 -8q-47 1 -83 18.5t-60 45.5t-36.5 64.5t-11.5 74.5q1 81 23 141.5t58.5 99.5t83.5 58.5t97 19.5q51 0 90 -37.5t51 -83.5z" />
    <glyph glyph-name="Cdotaccent" unicode="&#x10a;" 
d="M281 743q-40 -4 -63 22.5t-23 58.5q0 33 27 55t59 24q37 1 59.5 -22t22.5 -55q0 -33 -22.5 -56t-59.5 -27zM359 667q17 0 33.5 -2t29.5 -6q4 14 15 23t23 10q13 2 30 -7t21 -29q8 -37 8 -65v-44q0 -20 -14.5 -40.5t-29.5 -21.5q-15 -2 -33.5 8.5t-18.5 31.5q0 7 0.5 17
t1.5 22q-11 7 -26 17t-33 10q-37 0 -78.5 -29.5t-76 -79.5t-57.5 -117t-23 -141q0 -31 10 -61.5t26.5 -54t40 -38.5t50.5 -15q63 0 109 22t71 41q16 11 31 16t29 -5q13 -10 15.5 -27t-19.5 -42q-13 -15 -33.5 -31t-50 -29t-70 -21.5t-93.5 -7.5q-49 0 -88 20t-66 51.5
t-41 71.5t-14 80q0 104 30.5 191.5t77 150t103.5 97t110 34.5z" />
    <glyph glyph-name="cdotaccent" unicode="&#x10b;" 
d="M279 533q-40 -4 -63 22.5t-23 58.5q0 33 27 55t59 24q37 1 59.5 -22t22.5 -55q0 -33 -22.5 -56t-59.5 -27zM471 372q9 -33 -2 -48.5t-27 -22.5q-18 -7 -36.5 -2t-28.5 35q-9 27 -18.5 50.5t-49.5 23.5q-19 0 -43 -9.5t-45.5 -32.5t-38 -62.5t-19.5 -98.5q-1 -21 1 -46.5
t12.5 -47.5t33 -38t60.5 -18q54 -2 85 13.5t37 30.5q13 33 32 37.5t35 -2.5t24 -22t-7 -46q-7 -15 -24 -32.5t-43.5 -31.5t-63.5 -23t-86 -8q-47 1 -83 18.5t-60 45.5t-36.5 64.5t-11.5 74.5q1 81 23 141.5t58.5 99.5t83.5 58.5t97 19.5q51 0 90 -37.5t51 -83.5z" />
    <glyph glyph-name="Ccaron" unicode="&#x10c;" 
d="M418 750q-25 14 -60 38t-79 58q-44 -34 -79 -58t-60 -38q-22 -13 -42 -9.5t-27 16.5q-8 12 0.5 31t30.5 31q37 19 75.5 54t72.5 62q7 5 14.5 7t15.5 2q7 0 14.5 -2.5t13.5 -6.5q34 -27 72.5 -62t75.5 -54q22 -12 30.5 -31t0.5 -31q-7 -13 -27 -16.5t-42 9.5zM359 667
q17 0 33.5 -2t29.5 -6q4 14 15 23t23 10q13 2 30 -7t21 -29q8 -37 8 -65v-44q0 -20 -14.5 -40.5t-29.5 -21.5q-15 -2 -33.5 8.5t-18.5 31.5q0 7 0.5 17t1.5 22q-11 7 -26 17t-33 10q-37 0 -78.5 -29.5t-76 -79.5t-57.5 -117t-23 -141q0 -31 10 -61.5t26.5 -54t40 -38.5
t50.5 -15q63 0 109 22t71 41q16 11 31 16t29 -5q13 -10 15.5 -27t-19.5 -42q-13 -15 -33.5 -31t-50 -29t-70 -21.5t-93.5 -7.5q-49 0 -88 20t-66 51.5t-41 71.5t-14 80q0 104 30.5 191.5t77 150t103.5 97t110 34.5z" />
    <glyph glyph-name="ccaron" unicode="&#x10d;" 
d="M416 540q-25 14 -60 38t-79 58q-44 -34 -79 -58t-60 -38q-22 -13 -42 -9.5t-27 16.5q-8 12 0.5 31t30.5 31q37 19 75.5 54t72.5 62q7 5 14.5 7t15.5 2q7 0 14.5 -2.5t13.5 -6.5q34 -27 72.5 -62t75.5 -54q22 -12 30.5 -31t0.5 -31q-7 -13 -27 -16.5t-42 9.5zM471 372
q9 -33 -2 -48.5t-27 -22.5q-18 -7 -36.5 -2t-28.5 35q-9 27 -18.5 50.5t-49.5 23.5q-19 0 -43 -9.5t-45.5 -32.5t-38 -62.5t-19.5 -98.5q-1 -21 1 -46.5t12.5 -47.5t33 -38t60.5 -18q54 -2 85 13.5t37 30.5q13 33 32 37.5t35 -2.5t24 -22t-7 -46q-7 -15 -24 -32.5
t-43.5 -31.5t-63.5 -23t-86 -8q-47 1 -83 18.5t-60 45.5t-36.5 64.5t-11.5 74.5q1 81 23 141.5t58.5 99.5t83.5 58.5t97 19.5q51 0 90 -37.5t51 -83.5z" />
    <glyph glyph-name="Dcaron" unicode="&#x10e;" 
d="M420 750q-25 14 -60 38t-79 58q-44 -34 -79 -58t-60 -38q-22 -13 -42 -9.5t-27 16.5q-8 12 0.5 31t30.5 31q37 19 75.5 54t72.5 62q7 5 14.5 7t15.5 2q7 0 14.5 -2.5t13.5 -6.5q34 -27 72.5 -62t75.5 -54q22 -12 30.5 -31t0.5 -31q-7 -13 -27 -16.5t-42 9.5zM315 -29
q-101 -1 -161 14t-70 15q-17 0 -30 12t-11 36q1 21 1.5 63t0 96.5t-2 118.5t-3.5 129q-2 60 -0.5 96t2.5 66q1 27 15 39t31 12q22 0 93.5 -13t147.5 -59t136 -136.5t60 -243.5q0 -40 -14 -83.5t-41 -79t-66 -59t-88 -23.5zM131 325q2 -65 3 -124q2 -60 4 -119
q40 -17 82.5 -24t93.5 -7q27 0 49 18t38 45t24.5 60.5t8.5 64.5q0 87 -31 145.5t-76.5 96.5t-99 60.5t-97.5 38.5q-1 -60 -1 -120.5t2 -134.5z" />
    <glyph glyph-name="dcaron" unicode="&#x10f;" 
d="M510 31q-3 -19 -15 -27.5t-27 -11.5q-31 -6 -44 15t-16 53q-19 -28 -50.5 -50.5t-88.5 -22.5q-38 0 -76.5 17t-68.5 50.5t-48 84t-17 116.5q-1 47 13 87.5t40.5 70.5t64.5 47t85 18q46 0 82.5 -11.5t61.5 -28.5q0 30 0.5 58.5t1.5 53.5q-24 14 -55 36t-68 50
q-44 -34 -79 -58t-60 -38q-22 -13 -42 -9.5t-27 16.5q-8 12 0.5 31t30.5 31q37 19 75.5 54t72.5 62q7 5 14.5 7t15.5 2q7 0 14.5 -2.5t13.5 -6.5q22 -18 47 -40.5t50 -41.5q0 5 0.5 9.5t0.5 8.5q3 36 18.5 47t31.5 11q16 -1 28.5 -11.5t10.5 -46.5q-1 -15 -2 -40.5t-2 -58.5
v-5q-1 -39 -2.5 -85t-3 -90.5t-2 -85t-0.5 -69.5q1 -58 5 -92.5t8 -54t6.5 -29.5t1.5 -20zM278 70q29 0 49 8t34 21t24 29t18 30q0 22 -0.5 46t0.5 49q0 16 0.5 31.5t0.5 31.5q-19 31 -53 56t-75 24q-60 -2 -93 -47t-34 -102q-1 -83 33 -130.5t96 -46.5z" />
    <glyph glyph-name="Emacron" unicode="&#x112;" 
d="M106 822h53h79q44 0 94 1t98 2q25 1 35.5 -13.5t9.5 -29.5q0 -15 -10.5 -28.5t-35.5 -13.5h-79h-97q-48 0 -89 0.5t-58 1.5q-25 1 -32.5 14.5t-7.5 28.5q1 13 8.5 25t31.5 12zM455 -6q-16 1 -57.5 -1.5t-92.5 -5.5t-104 -5t-90 1q-20 1 -42 20.5t-26 49.5q-3 21 -3 60.5
t0.5 90t0.5 110t-2 121.5q-2 66 -0.5 102.5t2.5 69.5q1 27 15 39t31 12q11 1 21 -3t17 -13q43 6 93 8.5t97 2.5t87 -2t62 -5q24 -3 31.5 -12.5t8.5 -22.5q0 -15 -7.5 -29t-32.5 -12q-42 3 -88 4t-89 0t-83 -4t-70 -7q-1 -37 -2.5 -84t-1.5 -107q45 0 94.5 2.5t93.5 5
t79.5 4.5t51.5 2q24 0 31.5 -11t8.5 -24q0 -15 -7.5 -28t-32.5 -13q-15 0 -55 -3t-88 -6.5t-96 -6.5t-79 -3q1 -32 1 -68t1 -67.5t2.5 -55.5t4.5 -33q10 -4 53 -4t93 2t95.5 5.5t60.5 6.5q40 7 50.5 -9.5t11.5 -29.5q0 -15 -11 -30.5t-38 -13.5z" />
    <glyph glyph-name="emacron" unicode="&#x113;" 
d="M118 612h53h79q44 0 94 1t98 2q25 1 35.5 -13.5t9.5 -29.5q0 -15 -10.5 -28.5t-35.5 -13.5h-79h-97q-48 0 -89 0.5t-58 1.5q-25 1 -32.5 14.5t-7.5 28.5q1 13 8.5 25t31.5 12zM479 56q-26 -36 -71.5 -59.5t-142.5 -22.5q-93 1 -144.5 67.5t-50.5 180.5q1 63 20 113
t50.5 83.5t75.5 51t94 17.5q21 0 47 -9.5t50 -26t44 -40t29 -50.5q3 -13 -1.5 -27t-12.5 -26.5t-18 -23t-17 -15.5q-23 -17 -59 -33.5t-74 -31.5t-74 -27t-60 -21q7 -43 30.5 -73.5t75.5 -32.5q27 -1 50.5 6.5t40.5 17t28 19t13 12.5q22 29 40 31.5t32 -7.5t20 -27.5
t-15 -45.5zM290 414q-19 0 -40.5 -9t-40.5 -29t-32 -51.5t-16 -75.5q10 3 40 10.5t65 19.5t69 27t53 32q-22 44 -46 60t-52 16z" />
    <glyph glyph-name="Ebreve" unicode="&#x114;" 
d="M112 886q12 -2 28 -14t35.5 -25t43 -24t49.5 -11t45 5t35.5 13.5t33 21t38.5 27.5q22 14 36.5 3t13.5 -26q0 -15 -6 -27.5t-24 -29.5q-24 -23 -64 -41t-107 -18q-34 0 -61 7.5t-47.5 17t-35 20t-22.5 16.5q-19 15 -25 27.5t-6 27.5q1 13 9 23.5t31 6.5zM455 -6
q-16 1 -57.5 -1.5t-92.5 -5.5t-104 -5t-90 1q-20 1 -42 20.5t-26 49.5q-3 21 -3 60.5t0.5 90t0.5 110t-2 121.5q-2 66 -0.5 102.5t2.5 69.5q1 27 15 39t31 12q11 1 21 -3t17 -13q43 6 93 8.5t97 2.5t87 -2t62 -5q24 -3 31.5 -12.5t8.5 -22.5q0 -15 -7.5 -29t-32.5 -12
q-42 3 -88 4t-89 0t-83 -4t-70 -7q-1 -37 -2.5 -84t-1.5 -107q45 0 94.5 2.5t93.5 5t79.5 4.5t51.5 2q24 0 31.5 -11t8.5 -24q0 -15 -7.5 -28t-32.5 -13q-15 0 -55 -3t-88 -6.5t-96 -6.5t-79 -3q1 -32 1 -68t1 -67.5t2.5 -55.5t4.5 -33q10 -4 53 -4t93 2t95.5 5.5t60.5 6.5
q40 7 50.5 -9.5t11.5 -29.5q0 -15 -11 -30.5t-38 -13.5z" />
    <glyph glyph-name="ebreve" unicode="&#x115;" 
d="M123 676q12 -2 28 -14t35.5 -25t43 -24t49.5 -11t45 5t35.5 13.5t33 21t38.5 27.5q22 14 36.5 3t13.5 -26q0 -15 -6 -27.5t-24 -29.5q-24 -23 -64 -41t-107 -18q-34 0 -61 7.5t-47.5 17t-35 20t-22.5 16.5q-19 15 -25 27.5t-6 27.5q1 13 9 23.5t31 6.5zM479 56
q-26 -36 -71.5 -59.5t-142.5 -22.5q-93 1 -144.5 67.5t-50.5 180.5q1 63 20 113t50.5 83.5t75.5 51t94 17.5q21 0 47 -9.5t50 -26t44 -40t29 -50.5q3 -13 -1.5 -27t-12.5 -26.5t-18 -23t-17 -15.5q-23 -17 -59 -33.5t-74 -31.5t-74 -27t-60 -21q7 -43 30.5 -73.5t75.5 -32.5
q27 -1 50.5 6.5t40.5 17t28 19t13 12.5q22 29 40 31.5t32 -7.5t20 -27.5t-15 -45.5zM290 414q-19 0 -40.5 -9t-40.5 -29t-32 -51.5t-16 -75.5q10 3 40 10.5t65 19.5t69 27t53 32q-22 44 -46 60t-52 16z" />
    <glyph glyph-name="Edotaccent" unicode="&#x116;" 
d="M273 743q-40 -4 -63 22.5t-23 58.5q0 33 27 55t59 24q37 1 59.5 -22t22.5 -55q0 -33 -22.5 -56t-59.5 -27zM455 -6q-16 1 -57.5 -1.5t-92.5 -5.5t-104 -5t-90 1q-20 1 -42 20.5t-26 49.5q-3 21 -3 60.5t0.5 90t0.5 110t-2 121.5q-2 66 -0.5 102.5t2.5 69.5q1 27 15 39
t31 12q11 1 21 -3t17 -13q43 6 93 8.5t97 2.5t87 -2t62 -5q24 -3 31.5 -12.5t8.5 -22.5q0 -15 -7.5 -29t-32.5 -12q-42 3 -88 4t-89 0t-83 -4t-70 -7q-1 -37 -2.5 -84t-1.5 -107q45 0 94.5 2.5t93.5 5t79.5 4.5t51.5 2q24 0 31.5 -11t8.5 -24q0 -15 -7.5 -28t-32.5 -13
q-15 0 -55 -3t-88 -6.5t-96 -6.5t-79 -3q1 -32 1 -68t1 -67.5t2.5 -55.5t4.5 -33q10 -4 53 -4t93 2t95.5 5.5t60.5 6.5q40 7 50.5 -9.5t11.5 -29.5q0 -15 -11 -30.5t-38 -13.5z" />
    <glyph glyph-name="edotaccent" unicode="&#x117;" 
d="M284 533q-40 -4 -63 22.5t-23 58.5q0 33 27 55t59 24q37 1 59.5 -22t22.5 -55q0 -33 -22.5 -56t-59.5 -27zM479 56q-26 -36 -71.5 -59.5t-142.5 -22.5q-93 1 -144.5 67.5t-50.5 180.5q1 63 20 113t50.5 83.5t75.5 51t94 17.5q21 0 47 -9.5t50 -26t44 -40t29 -50.5
q3 -13 -1.5 -27t-12.5 -26.5t-18 -23t-17 -15.5q-23 -17 -59 -33.5t-74 -31.5t-74 -27t-60 -21q7 -43 30.5 -73.5t75.5 -32.5q27 -1 50.5 6.5t40.5 17t28 19t13 12.5q22 29 40 31.5t32 -7.5t20 -27.5t-15 -45.5zM290 414q-19 0 -40.5 -9t-40.5 -29t-32 -51.5t-16 -75.5
q10 3 40 10.5t65 19.5t69 27t53 32q-22 44 -46 60t-52 16z" />
    <glyph glyph-name="Eogonek" unicode="&#x118;" 
d="M455 -6q-16 1 -57 -1t-91 -5q-19 -18 -31 -41.5t-12 -48.5t10 -52t35 -27q18 0 29.5 3.5t20 7.5t18 8.5t22.5 5.5q11 1 17 -5.5t7 -16.5t-3 -21.5t-12 -20.5q-16 -17 -44 -30.5t-72 -13.5q-20 0 -40 7.5t-36 24t-26 41.5t-10 59q0 35 7 63t25 52q-28 -1 -54 -1t-47 1
q-20 1 -42 20.5t-26 49.5q-3 21 -3 60.5t0.5 90t0.5 110t-2 121.5q-2 66 -0.5 102.5t2.5 69.5q1 27 15 39t31 12q11 1 21 -3t17 -13q43 6 93 8.5t97 2.5t87 -2t62 -5q24 -3 31.5 -12.5t8.5 -22.5q0 -15 -7.5 -29t-32.5 -12q-42 3 -88 4t-89 0t-83 -4t-70 -7q-1 -37 -2.5 -84
t-1.5 -107q45 0 94.5 2.5t93.5 5t79.5 4.5t51.5 2q24 0 31.5 -11t8.5 -24q0 -15 -7.5 -28t-32.5 -13q-15 0 -55 -3t-88 -6.5t-96 -6.5t-79 -3q1 -32 1 -68t1 -67.5t2.5 -55.5t4.5 -33q10 -4 53 -4t93 2t95.5 5.5t60.5 6.5q40 7 50.5 -9.5t11.5 -29.5q0 -15 -11 -30.5
t-38 -13.5z" />
    <glyph glyph-name="eogonek" unicode="&#x119;" 
d="M408 -220q-16 -17 -44 -30.5t-72 -13.5q-20 0 -40 7.5t-36 24t-26 41.5t-10 59t6.5 62t24.5 51q-69 19 -105.5 82t-35.5 159q1 63 20 113t50.5 83.5t75.5 51t94 17.5q21 0 47 -9.5t50 -26t44 -40t29 -50.5q3 -13 -1.5 -27t-12.5 -26.5t-18 -23t-17 -15.5
q-23 -17 -59 -33.5t-74 -31.5t-74 -27t-60 -21q7 -43 30.5 -73.5t75.5 -32.5q27 -1 50.5 6.5t40.5 17t28 19t13 12.5q22 29 40 31.5t32 -7.5t20 -27.5t-15 -45.5q-24 -33 -63.5 -56t-120.5 -26q-14 -16 -22.5 -35.5t-8.5 -40.5q0 -25 10 -52t35 -27q18 0 29.5 3.5t20 7.5
t18 8.5t22.5 5.5q11 1 17 -5.5t7 -16.5t-3 -21.5t-12 -20.5zM290 414q-19 0 -40.5 -9t-40.5 -29t-32 -51.5t-16 -75.5q10 3 40 10.5t65 19.5t69 27t53 32q-22 44 -46 60t-52 16z" />
    <glyph glyph-name="Ecaron" unicode="&#x11a;" 
d="M410 750q-25 14 -60 38t-79 58q-44 -34 -79 -58t-60 -38q-22 -13 -42 -9.5t-27 16.5q-8 12 0.5 31t30.5 31q37 19 75.5 54t72.5 62q7 5 14.5 7t15.5 2q7 0 14.5 -2.5t13.5 -6.5q34 -27 72.5 -62t75.5 -54q22 -12 30.5 -31t0.5 -31q-7 -13 -27 -16.5t-42 9.5zM455 -6
q-16 1 -57.5 -1.5t-92.5 -5.5t-104 -5t-90 1q-20 1 -42 20.5t-26 49.5q-3 21 -3 60.5t0.5 90t0.5 110t-2 121.5q-2 66 -0.5 102.5t2.5 69.5q1 27 15 39t31 12q11 1 21 -3t17 -13q43 6 93 8.5t97 2.5t87 -2t62 -5q24 -3 31.5 -12.5t8.5 -22.5q0 -15 -7.5 -29t-32.5 -12
q-42 3 -88 4t-89 0t-83 -4t-70 -7q-1 -37 -2.5 -84t-1.5 -107q45 0 94.5 2.5t93.5 5t79.5 4.5t51.5 2q24 0 31.5 -11t8.5 -24q0 -15 -7.5 -28t-32.5 -13q-15 0 -55 -3t-88 -6.5t-96 -6.5t-79 -3q1 -32 1 -68t1 -67.5t2.5 -55.5t4.5 -33q10 -4 53 -4t93 2t95.5 5.5t60.5 6.5
q40 7 50.5 -9.5t11.5 -29.5q0 -15 -11 -30.5t-38 -13.5z" />
    <glyph glyph-name="ecaron" unicode="&#x11b;" 
d="M421 540q-25 14 -60 38t-79 58q-44 -34 -79 -58t-60 -38q-22 -13 -42 -9.5t-27 16.5q-8 12 0.5 31t30.5 31q37 19 75.5 54t72.5 62q7 5 14.5 7t15.5 2q7 0 14.5 -2.5t13.5 -6.5q34 -27 72.5 -62t75.5 -54q22 -12 30.5 -31t0.5 -31q-7 -13 -27 -16.5t-42 9.5zM479 56
q-26 -36 -71.5 -59.5t-142.5 -22.5q-93 1 -144.5 67.5t-50.5 180.5q1 63 20 113t50.5 83.5t75.5 51t94 17.5q21 0 47 -9.5t50 -26t44 -40t29 -50.5q3 -13 -1.5 -27t-12.5 -26.5t-18 -23t-17 -15.5q-23 -17 -59 -33.5t-74 -31.5t-74 -27t-60 -21q7 -43 30.5 -73.5t75.5 -32.5
q27 -1 50.5 6.5t40.5 17t28 19t13 12.5q22 29 40 31.5t32 -7.5t20 -27.5t-15 -45.5zM290 414q-19 0 -40.5 -9t-40.5 -29t-32 -51.5t-16 -75.5q10 3 40 10.5t65 19.5t69 27t53 32q-22 44 -46 60t-52 16z" />
    <glyph glyph-name="Gcircumflex" unicode="&#x11c;" 
d="M430 744q-5 1 -20 27t-36 61t-45 74t-47 65q-21 -25 -44.5 -63.5t-45 -74t-38.5 -61.5t-23 -28q-24 -6 -38.5 -1.5t-21.5 17.5q-8 12 -3.5 26t18.5 34q12 17 34.5 49.5t47 68t47 68.5t35.5 52q4 7 13 8t17 1q7 0 15 -1.5t13 -7.5q13 -17 34 -48.5t43 -66t42 -67t32 -50.5
q14 -21 27.5 -39t5.5 -30q-7 -13 -22 -15.5t-40 2.5zM223 311q15 7 48 12.5t71 8.5t74.5 4t58.5 0q25 -1 33.5 -9t10.5 -21q1 -13 -2 -25.5t-18 -17.5q-1 -7 -2 -16t-2 -19q-3 -29 -22.5 -73t-51.5 -85t-76.5 -70.5t-97.5 -28.5q-49 0 -88 20t-66 51.5t-41 71.5t-14 80
q0 107 30.5 196t77 152.5t103.5 99t110 35.5q21 0 45 -5.5t45.5 -13.5t37.5 -16.5t22 -14.5q13 -13 13 -28.5t-3 -24.5q-4 -11 -17.5 -17t-28.5 -1q-8 3 -20 10.5t-26.5 15t-30 13.5t-30.5 6q-37 0 -78.5 -30.5t-76 -82t-57.5 -120t-23 -144.5q0 -31 10 -61.5t26.5 -54
t40 -38.5t50.5 -15q29 0 57 22t50 53.5t38.5 67.5t23.5 62q-25 -1 -54 -3.5t-56 -6t-49 -9t-34 -11.5q-16 -9 -30.5 1t-16.5 25t5 29.5t31 25.5z" />
    <glyph glyph-name="gcircumflex" unicode="&#x11d;" 
d="M427 534q-5 1 -20 27t-36 61t-45 74t-47 65q-21 -25 -44.5 -63.5t-45 -74t-38.5 -61.5t-23 -28q-24 -6 -38.5 -1.5t-21.5 17.5q-8 12 -3.5 26t18.5 34q12 17 34.5 49.5t47 68t47 68.5t35.5 52q4 7 13 8t17 1q7 0 15 -1.5t13 -7.5q13 -17 34 -48.5t43 -66t42 -67t32 -50.5
q14 -21 27.5 -39t5.5 -30q-7 -13 -22 -15.5t-40 2.5zM450 456q13 -7 14.5 -23t-3.5 -25q-1 -1 -2 -3t-2 -3q12 -3 17.5 -12.5t5.5 -23.5q0 -34 1 -84.5t1 -106t-2 -112t-6 -102.5q-6 -59 -30 -103.5t-59 -73t-79 -43t-90 -14.5q-33 0 -62.5 9.5t-43.5 16.5q-16 9 -25 15.5
t-9 25.5t12.5 31t27.5 9q13 -2 34 -15.5t48 -13.5q72 0 128.5 45t66.5 116q2 13 3 30t2 39q-20 -28 -55.5 -46t-94.5 -18q-93 1 -134 63t-41 176q1 72 23.5 123t58.5 82.5t83.5 46t97.5 14.5q51 0 72.5 -4.5t41.5 -15.5zM402 361q0 6 1.5 11.5t4.5 10.5l-6 1
q-18 5 -43.5 9.5t-47.5 3.5q-23 -1 -48 -10t-46.5 -27.5t-36.5 -48t-18 -71.5q-2 -36 1 -70.5t13.5 -60.5t30.5 -41.5t52 -14.5q35 1 60.5 13.5t42.5 30.5t26 39.5t12 41.5q1 38 1 84t1 99z" />
    <glyph glyph-name="Gbreve" unicode="&#x11e;" 
d="M121 886q12 -2 28 -14t35.5 -25t43 -24t49.5 -11t45 5t35.5 13.5t33 21t38.5 27.5q22 14 36.5 3t13.5 -26q0 -15 -6 -27.5t-24 -29.5q-24 -23 -64 -41t-107 -18q-34 0 -61 7.5t-47.5 17t-35 20t-22.5 16.5q-19 15 -25 27.5t-6 27.5q1 13 9 23.5t31 6.5zM223 311
q15 7 48 12.5t71 8.5t74.5 4t58.5 0q25 -1 33.5 -9t10.5 -21q1 -13 -2 -25.5t-18 -17.5q-1 -7 -2 -16t-2 -19q-3 -29 -22.5 -73t-51.5 -85t-76.5 -70.5t-97.5 -28.5q-49 0 -88 20t-66 51.5t-41 71.5t-14 80q0 107 30.5 196t77 152.5t103.5 99t110 35.5q21 0 45 -5.5
t45.5 -13.5t37.5 -16.5t22 -14.5q13 -13 13 -28.5t-3 -24.5q-4 -11 -17.5 -17t-28.5 -1q-8 3 -20 10.5t-26.5 15t-30 13.5t-30.5 6q-37 0 -78.5 -30.5t-76 -82t-57.5 -120t-23 -144.5q0 -31 10 -61.5t26.5 -54t40 -38.5t50.5 -15q29 0 57 22t50 53.5t38.5 67.5t23.5 62
q-25 -1 -54 -3.5t-56 -6t-49 -9t-34 -11.5q-16 -9 -30.5 1t-16.5 25t5 29.5t31 25.5z" />
    <glyph glyph-name="gbreve" unicode="&#x11f;" 
d="M118 676q12 -2 28 -14t35.5 -25t43 -24t49.5 -11t45 5t35.5 13.5t33 21t38.5 27.5q22 14 36.5 3t13.5 -26q0 -15 -6 -27.5t-24 -29.5q-24 -23 -64 -41t-107 -18q-34 0 -61 7.5t-47.5 17t-35 20t-22.5 16.5q-19 15 -25 27.5t-6 27.5q1 13 9 23.5t31 6.5zM450 456
q13 -7 14.5 -23t-3.5 -25q-1 -1 -2 -3t-2 -3q12 -3 17.5 -12.5t5.5 -23.5q0 -34 1 -84.5t1 -106t-2 -112t-6 -102.5q-6 -59 -30 -103.5t-59 -73t-79 -43t-90 -14.5q-33 0 -62.5 9.5t-43.5 16.5q-16 9 -25 15.5t-9 25.5t12.5 31t27.5 9q13 -2 34 -15.5t48 -13.5
q72 0 128.5 45t66.5 116q2 13 3 30t2 39q-20 -28 -55.5 -46t-94.5 -18q-93 1 -134 63t-41 176q1 72 23.5 123t58.5 82.5t83.5 46t97.5 14.5q51 0 72.5 -4.5t41.5 -15.5zM402 361q0 6 1.5 11.5t4.5 10.5l-6 1q-18 5 -43.5 9.5t-47.5 3.5q-23 -1 -48 -10t-46.5 -27.5
t-36.5 -48t-18 -71.5q-2 -36 1 -70.5t13.5 -60.5t30.5 -41.5t52 -14.5q35 1 60.5 13.5t42.5 30.5t26 39.5t12 41.5q1 38 1 84t1 99z" />
    <glyph glyph-name="Gdotaccent" unicode="&#x120;" 
d="M282 743q-40 -4 -63 22.5t-23 58.5q0 33 27 55t59 24q37 1 59.5 -22t22.5 -55q0 -33 -22.5 -56t-59.5 -27zM223 311q15 7 48 12.5t71 8.5t74.5 4t58.5 0q25 -1 33.5 -9t10.5 -21q1 -13 -2 -25.5t-18 -17.5q-1 -7 -2 -16t-2 -19q-3 -29 -22.5 -73t-51.5 -85t-76.5 -70.5
t-97.5 -28.5q-49 0 -88 20t-66 51.5t-41 71.5t-14 80q0 107 30.5 196t77 152.5t103.5 99t110 35.5q21 0 45 -5.5t45.5 -13.5t37.5 -16.5t22 -14.5q13 -13 13 -28.5t-3 -24.5q-4 -11 -17.5 -17t-28.5 -1q-8 3 -20 10.5t-26.5 15t-30 13.5t-30.5 6q-37 0 -78.5 -30.5t-76 -82
t-57.5 -120t-23 -144.5q0 -31 10 -61.5t26.5 -54t40 -38.5t50.5 -15q29 0 57 22t50 53.5t38.5 67.5t23.5 62q-25 -1 -54 -3.5t-56 -6t-49 -9t-34 -11.5q-16 -9 -30.5 1t-16.5 25t5 29.5t31 25.5z" />
    <glyph glyph-name="gdotaccent" unicode="&#x121;" 
d="M279 533q-40 -4 -63 22.5t-23 58.5q0 33 27 55t59 24q37 1 59.5 -22t22.5 -55q0 -33 -22.5 -56t-59.5 -27zM450 456q13 -7 14.5 -23t-3.5 -25q-1 -1 -2 -3t-2 -3q12 -3 17.5 -12.5t5.5 -23.5q0 -34 1 -84.5t1 -106t-2 -112t-6 -102.5q-6 -59 -30 -103.5t-59 -73t-79 -43
t-90 -14.5q-33 0 -62.5 9.5t-43.5 16.5q-16 9 -25 15.5t-9 25.5t12.5 31t27.5 9q13 -2 34 -15.5t48 -13.5q72 0 128.5 45t66.5 116q2 13 3 30t2 39q-20 -28 -55.5 -46t-94.5 -18q-93 1 -134 63t-41 176q1 72 23.5 123t58.5 82.5t83.5 46t97.5 14.5q51 0 72.5 -4.5
t41.5 -15.5zM402 361q0 6 1.5 11.5t4.5 10.5l-6 1q-18 5 -43.5 9.5t-47.5 3.5q-23 -1 -48 -10t-46.5 -27.5t-36.5 -48t-18 -71.5q-2 -36 1 -70.5t13.5 -60.5t30.5 -41.5t52 -14.5q35 1 60.5 13.5t42.5 30.5t26 39.5t12 41.5q1 38 1 84t1 99z" />
    <glyph glyph-name="Gcommaaccent" unicode="&#x122;" 
d="M223 311q15 7 48 12.5t71 8.5t74.5 4t58.5 0q25 -1 33.5 -9t10.5 -21q1 -13 -2 -25.5t-18 -17.5q-1 -7 -2 -16t-2 -19q-3 -29 -22.5 -73t-51.5 -85t-76.5 -70.5t-97.5 -28.5q-49 0 -88 20t-66 51.5t-41 71.5t-14 80q0 107 30.5 196t77 152.5t103.5 99t110 35.5
q21 0 45 -5.5t45.5 -13.5t37.5 -16.5t22 -14.5q13 -13 13 -28.5t-3 -24.5q-4 -11 -17.5 -17t-28.5 -1q-8 3 -20 10.5t-26.5 15t-30 13.5t-30.5 6q-37 0 -78.5 -30.5t-76 -82t-57.5 -120t-23 -144.5q0 -31 10 -61.5t26.5 -54t40 -38.5t50.5 -15q29 0 57 22t50 53.5t38.5 67.5
t23.5 62q-25 -1 -54 -3.5t-56 -6t-49 -9t-34 -11.5q-16 -9 -30.5 1t-16.5 25t5 29.5t31 25.5zM349 -251q-4 -18 -14.5 -56.5t-24 -79t-27 -76t-22.5 -47.5q-16 -21 -39 -28.5t-37 -2.5q-14 4 -23.5 20.5t3.5 36.5q10 15 25.5 51t30 76t26 76.5t14.5 52.5q4 21 23 25.5
t34 0.5q13 -4 24 -16.5t7 -32.5z" />
    <glyph glyph-name="gcommaaccent" unicode="&#x123;" 
d="M426 923q-4 -18 -14.5 -56.5t-24 -79t-27 -76t-22.5 -47.5q-16 -21 -39 -28.5t-37 -2.5q-14 4 -23.5 20.5t3.5 36.5q10 15 25.5 51t30 76t26 76.5t14.5 52.5q4 21 23 25.5t34 0.5q13 -4 24 -16.5t7 -32.5zM450 456q13 -7 14.5 -23t-3.5 -25q-1 -1 -2 -3t-2 -3
q12 -3 17.5 -12.5t5.5 -23.5q0 -34 1 -84.5t1 -106t-2 -112t-6 -102.5q-6 -59 -30 -103.5t-59 -73t-79 -43t-90 -14.5q-33 0 -62.5 9.5t-43.5 16.5q-16 9 -25 15.5t-9 25.5t12.5 31t27.5 9q13 -2 34 -15.5t48 -13.5q72 0 128.5 45t66.5 116q2 13 3 30t2 39
q-20 -28 -55.5 -46t-94.5 -18q-93 1 -134 63t-41 176q1 72 23.5 123t58.5 82.5t83.5 46t97.5 14.5q51 0 72.5 -4.5t41.5 -15.5zM402 361q0 6 1.5 11.5t4.5 10.5l-6 1q-18 5 -43.5 9.5t-47.5 3.5q-23 -1 -48 -10t-46.5 -27.5t-36.5 -48t-18 -71.5q-2 -36 1 -70.5t13.5 -60.5
t30.5 -41.5t52 -14.5q35 1 60.5 13.5t42.5 30.5t26 39.5t12 41.5q1 38 1 84t1 99z" />
    <glyph glyph-name="Hcircumflex" unicode="&#x124;" 
d="M422 744q-5 1 -20 27t-36 61t-45 74t-47 65q-21 -25 -44.5 -63.5t-45 -74t-38.5 -61.5t-23 -28q-24 -6 -38.5 -1.5t-21.5 17.5q-8 12 -3.5 26t18.5 34q12 17 34.5 49.5t47 68t47 68.5t35.5 52q4 7 13 8t17 1q7 0 15 -1.5t13 -7.5q13 -17 34 -48.5t43 -66t42 -67t32 -50.5
q14 -21 27.5 -39t5.5 -30q-7 -13 -22 -15.5t-40 2.5zM151 620q0 -19 -2.5 -40.5t-2.5 -57.5q0 -37 1 -74t1 -76q83 1 149.5 11.5t102.5 12.5q0 10 -0.5 19.5t-0.5 19.5q-2 66 -0.5 107t2.5 75q1 27 15 39t31 12q19 1 33.5 -10t14.5 -38q0 -46 -2 -118.5t1 -171.5
q2 -89 -2 -172.5t-3 -134.5q-2 -21 -19 -32.5t-36 -10.5q-17 0 -30 12t-11 36q1 16 2.5 45.5t3 67.5t2 84t0.5 95q-19 -1 -51 -5.5t-68 -10t-72.5 -9.5t-63.5 -4q0 -4 -0.5 -9.5t-0.5 -9.5q-4 -75 -2.5 -140.5t2.5 -108.5q-2 -21 -19 -32.5t-36 -10.5q-17 0 -30 12t-11 36
q2 22 2 78t1 130q1 69 3 135t0 129q-1 26 -1 42.5t0.5 28.5t1.5 22t1 24q1 27 15 39t31 12q19 1 33.5 -10t14.5 -38z" />
    <glyph glyph-name="hcircumflex" unicode="&#x125;" 
d="M429 844q-5 1 -20 27t-36 61t-45 74t-47 65q-21 -25 -44.5 -63.5t-45 -74t-38.5 -61.5t-23 -28q-24 -6 -38.5 -1.5t-21.5 17.5q-8 12 -3.5 26t18.5 34q12 17 34.5 49.5t47 68t47 68.5t35.5 52q4 7 13 8t17 1q7 0 15 -1.5t13 -7.5q13 -17 34 -48.5t43 -66t42 -67t32 -50.5
q14 -21 27.5 -39t5.5 -30q-7 -13 -22 -15.5t-40 2.5zM176 212v1q0 -8 -0.5 -17.5t-0.5 -19.5q-1 -49 -1 -84t-4 -69q-2 -21 -19 -32.5t-36 -10.5q-17 0 -30 12t-11 36q1 10 3 45.5t3.5 78t3 83t0.5 61.5q-2 43 -3 94t-1 101.5t0.5 96.5t1.5 79q1 27 15 39t31 12
q19 1 33.5 -10t14.5 -38v-42q0 -34 0.5 -77.5t1 -89.5t0.5 -81q19 34 63 64.5t122 30.5q32 0 53.5 -14.5t34.5 -39t18.5 -57t5.5 -67.5q-1 -76 4 -140t5 -119q0 -31 -15.5 -45.5t-33.5 -13.5q-16 1 -32 14.5t-16 36.5q0 51 2 106.5t1 118.5t-15.5 97.5t-42.5 34.5
q-51 -1 -82 -26t-47.5 -56t-21.5 -59t-5 -34z" />
    <glyph glyph-name="Itilde" unicode="&#x128;" 
d="M438 888q13 -4 14.5 -21.5t-5.5 -33.5q-27 -50 -54.5 -71.5t-52.5 -21.5q-31 0 -50 14.5t-36 37.5q-13 18 -21.5 25t-24.5 7q-18 0 -25 -12t-25 -44q-6 -10 -21 -13t-26 -1q-7 1 -13 9.5t-3 19.5q19 54 47.5 88t56.5 34q27 0 46 -6t40 -37q12 -17 21.5 -29t25.5 -12
t26.5 4t29.5 37q6 11 19 21.5t31 4.5zM85 62q29 1 65 2t73 2q1 24 3 60.5t2.5 80.5t0.5 95t-1 103q-3 71 -1 108t3 71q-40 1 -76 1t-60 -1q-25 -1 -36.5 10.5t-11.5 26.5q-1 15 10.5 27.5t36.5 13.5q102 3 195.5 2t174.5 -9q24 -2 33 -13.5t10 -24.5q0 -15 -10 -32t-35 -13
q-19 3 -56 5.5t-81 4.5q-1 -40 -2 -95.5t1 -136.5q2 -85 -1.5 -157.5t-3.5 -125.5q51 0 92.5 -0.5t57.5 -0.5q24 0 31.5 -11t8.5 -24q0 -15 -7.5 -30t-32.5 -11q-27 4 -79 4t-109 -1.5t-110.5 -3.5t-82.5 -2q-25 0 -36.5 9.5t-11.5 24.5q-1 15 9.5 27.5t36.5 13.5z" />
    <glyph glyph-name="itilde" unicode="&#x129;" horiz-adv-x="540" 
d="M444 678q13 -4 14.5 -21.5t-5.5 -33.5q-27 -50 -54.5 -71.5t-52.5 -21.5q-31 0 -50 14.5t-36 37.5q-13 18 -21.5 25t-24.5 7q-18 0 -25 -12t-25 -44q-6 -10 -21 -13t-26 -1q-7 1 -13 9.5t-3 19.5q19 54 47.5 88t56.5 34q27 0 46 -6t40 -37q12 -17 21.5 -29t25.5 -12
t26.5 4t29.5 37q6 11 19 21.5t31 4.5zM106 65h145v34q0 17 -1 39q-2 63 0 121.5t4 118.5q-25 3 -53 1t-64 -1q-19 0 -28 11t-9 24q-1 16 8 28.5t28 12.5q28 2 68.5 4t89.5 1q15 0 24.5 -6.5t15 -16t7 -18.5t1.5 -13q-7 -93 -5.5 -171t5.5 -169h117q24 0 31 -11.5t7 -25.5
q-1 -14 -9 -26.5t-31 -12.5q-16 0 -62 -1t-100.5 -1.5t-107.5 -1.5t-82 -1q-25 0 -32.5 13.5t-6.5 28.5q0 15 7.5 27t32.5 12z" />
    <glyph glyph-name="Imacron" unicode="&#x12a;" 
d="M109 822h53h79q44 0 94 1t98 2q25 1 35.5 -13.5t9.5 -29.5q0 -15 -10.5 -28.5t-35.5 -13.5h-79h-97q-48 0 -89 0.5t-58 1.5q-25 1 -32.5 14.5t-7.5 28.5q1 13 8.5 25t31.5 12zM85 62q29 1 65 2t73 2q1 24 3 60.5t2.5 80.5t0.5 95t-1 103q-3 71 -1 108t3 71q-40 1 -76 1
t-60 -1q-25 -1 -36.5 10.5t-11.5 26.5q-1 15 10.5 27.5t36.5 13.5q102 3 195.5 2t174.5 -9q24 -2 33 -13.5t10 -24.5q0 -15 -10 -32t-35 -13q-19 3 -56 5.5t-81 4.5q-1 -40 -2 -95.5t1 -136.5q2 -85 -1.5 -157.5t-3.5 -125.5q51 0 92.5 -0.5t57.5 -0.5q24 0 31.5 -11
t8.5 -24q0 -15 -7.5 -30t-32.5 -11q-27 4 -79 4t-109 -1.5t-110.5 -3.5t-82.5 -2q-25 0 -36.5 9.5t-11.5 24.5q-1 15 9.5 27.5t36.5 13.5z" />
    <glyph glyph-name="imacron" unicode="&#x12b;" horiz-adv-x="540" 
d="M115 612h53h79q44 0 94 1t98 2q25 1 35.5 -13.5t9.5 -29.5q0 -15 -10.5 -28.5t-35.5 -13.5h-79h-97q-48 0 -89 0.5t-58 1.5q-25 1 -32.5 14.5t-7.5 28.5q1 13 8.5 25t31.5 12zM106 65h145v34q0 17 -1 39q-2 63 0 121.5t4 118.5q-25 3 -53 1t-64 -1q-19 0 -28 11t-9 24
q-1 16 8 28.5t28 12.5q28 2 68.5 4t89.5 1q15 0 24.5 -6.5t15 -16t7 -18.5t1.5 -13q-7 -93 -5.5 -171t5.5 -169h117q24 0 31 -11.5t7 -25.5q-1 -14 -9 -26.5t-31 -12.5q-16 0 -62 -1t-100.5 -1.5t-107.5 -1.5t-82 -1q-25 0 -32.5 13.5t-6.5 28.5q0 15 7.5 27t32.5 12z" />
    <glyph glyph-name="Ibreve" unicode="&#x12c;" 
d="M114 886q12 -2 28 -14t35.5 -25t43 -24t49.5 -11t45 5t35.5 13.5t33 21t38.5 27.5q22 14 36.5 3t13.5 -26q0 -15 -6 -27.5t-24 -29.5q-24 -23 -64 -41t-107 -18q-34 0 -61 7.5t-47.5 17t-35 20t-22.5 16.5q-19 15 -25 27.5t-6 27.5q1 13 9 23.5t31 6.5zM85 62q29 1 65 2
t73 2q1 24 3 60.5t2.5 80.5t0.5 95t-1 103q-3 71 -1 108t3 71q-40 1 -76 1t-60 -1q-25 -1 -36.5 10.5t-11.5 26.5q-1 15 10.5 27.5t36.5 13.5q102 3 195.5 2t174.5 -9q24 -2 33 -13.5t10 -24.5q0 -15 -10 -32t-35 -13q-19 3 -56 5.5t-81 4.5q-1 -40 -2 -95.5t1 -136.5
q2 -85 -1.5 -157.5t-3.5 -125.5q51 0 92.5 -0.5t57.5 -0.5q24 0 31.5 -11t8.5 -24q0 -15 -7.5 -30t-32.5 -11q-27 4 -79 4t-109 -1.5t-110.5 -3.5t-82.5 -2q-25 0 -36.5 9.5t-11.5 24.5q-1 15 9.5 27.5t36.5 13.5z" />
    <glyph glyph-name="ibreve" unicode="&#x12d;" horiz-adv-x="540" 
d="M112 676q12 -2 28 -14t35.5 -25t43 -24t49.5 -11t45 5t35.5 13.5t33 21t38.5 27.5q22 14 36.5 3t13.5 -26q0 -15 -6 -27.5t-24 -29.5q-24 -23 -64 -41t-107 -18q-34 0 -61 7.5t-47.5 17t-35 20t-22.5 16.5q-19 15 -25 27.5t-6 27.5q1 13 9 23.5t31 6.5zM106 65h145v34
q0 17 -1 39q-2 63 0 121.5t4 118.5q-25 3 -53 1t-64 -1q-19 0 -28 11t-9 24q-1 16 8 28.5t28 12.5q28 2 68.5 4t89.5 1q15 0 24.5 -6.5t15 -16t7 -18.5t1.5 -13q-7 -93 -5.5 -171t5.5 -169h117q24 0 31 -11.5t7 -25.5q-1 -14 -9 -26.5t-31 -12.5q-16 0 -62 -1t-100.5 -1.5
t-107.5 -1.5t-82 -1q-25 0 -32.5 13.5t-6.5 28.5q0 15 7.5 27t32.5 12z" />
    <glyph glyph-name="Iogonek" unicode="&#x12e;" 
d="M85 62q29 1 65 2t73 2q1 24 3 60.5t2.5 80.5t0.5 95t-1 103q-3 71 -1 108t3 71q-40 1 -76 1t-60 -1q-25 -1 -36.5 10.5t-11.5 26.5q-1 15 10.5 27.5t36.5 13.5q102 3 195.5 2t174.5 -9q24 -2 33 -13.5t10 -24.5q0 -15 -10 -32t-35 -13q-19 3 -56 5.5t-81 4.5
q-1 -40 -2 -95.5t1 -136.5q2 -85 -1.5 -157.5t-3.5 -125.5q51 0 92.5 -0.5t57.5 -0.5q24 0 31.5 -11t8.5 -24q0 -15 -7.5 -30t-32.5 -11q-23 3 -64.5 3.5t-90.5 -0.5q-21 -17 -35 -42t-14 -53q0 -25 10 -52t35 -27q18 0 29.5 3.5t20 7.5t18 8.5t22.5 5.5q11 1 17 -5.5
t7 -16.5t-3 -21.5t-12 -20.5q-16 -17 -44 -30.5t-72 -13.5q-20 0 -40 7.5t-36 24t-26 41.5t-10 59q0 38 8 67.5t30 54.5q-40 -1 -74.5 -2t-56.5 -1q-25 0 -36.5 9.5t-11.5 24.5q-1 15 9.5 27.5t36.5 13.5z" />
    <glyph glyph-name="iogonek" unicode="&#x12f;" 
d="M281 521q-36 -4 -57 20t-21 53t24.5 49.5t53.5 21.5q34 1 54 -20t20 -50t-20 -49.5t-54 -24.5zM106 65h145v34q0 17 -1 39q-2 63 0 121.5t4 118.5q-25 3 -53 1t-64 -1q-19 0 -28 11t-9 24q-1 16 8 28.5t28 12.5q28 2 68.5 4t89.5 1q15 0 24.5 -6.5t15 -16t7 -18.5
t1.5 -13q-7 -93 -5.5 -171t5.5 -169h117q24 0 31 -11.5t7 -25.5q-1 -14 -9 -26.5t-31 -12.5q-15 0 -57.5 -0.5t-93.5 -1.5q-18 -17 -30 -40.5t-12 -48.5t10 -52t35 -27q18 0 29.5 3.5t20 7.5t18 8.5t22.5 5.5q11 1 17 -5.5t7 -16.5t-3 -21.5t-12 -20.5q-16 -17 -44 -30.5
t-72 -13.5q-20 0 -40 7.5t-36 24t-26 41.5t-10 59q0 36 7.5 64t26.5 53q-33 -1 -61 -1h-48q-25 0 -32.5 13.5t-6.5 28.5q0 15 7.5 27t32.5 12z" />
    <glyph glyph-name="Idotaccent" unicode="&#x130;" 
d="M275 743q-40 -4 -63 22.5t-23 58.5q0 33 27 55t59 24q37 1 59.5 -22t22.5 -55q0 -33 -22.5 -56t-59.5 -27zM85 62q29 1 65 2t73 2q1 24 3 60.5t2.5 80.5t0.5 95t-1 103q-3 71 -1 108t3 71q-40 1 -76 1t-60 -1q-25 -1 -36.5 10.5t-11.5 26.5q-1 15 10.5 27.5t36.5 13.5
q102 3 195.5 2t174.5 -9q24 -2 33 -13.5t10 -24.5q0 -15 -10 -32t-35 -13q-19 3 -56 5.5t-81 4.5q-1 -40 -2 -95.5t1 -136.5q2 -85 -1.5 -157.5t-3.5 -125.5q51 0 92.5 -0.5t57.5 -0.5q24 0 31.5 -11t8.5 -24q0 -15 -7.5 -30t-32.5 -11q-27 4 -79 4t-109 -1.5t-110.5 -3.5
t-82.5 -2q-25 0 -36.5 9.5t-11.5 24.5q-1 15 9.5 27.5t36.5 13.5z" />
    <glyph glyph-name="dotlessi" unicode="&#x131;" 
d="M106 65h145v34q0 17 -1 39q-2 63 0 121.5t4 118.5q-25 3 -53 1t-64 -1q-19 0 -28 11t-9 24q-1 16 8 28.5t28 12.5q28 2 68.5 4t89.5 1q15 0 24.5 -6.5t15 -16t7 -18.5t1.5 -13q-7 -93 -5.5 -171t5.5 -169h117q24 0 31 -11.5t7 -25.5q-1 -14 -9 -26.5t-31 -12.5
q-16 0 -62 -1t-100.5 -1.5t-107.5 -1.5t-82 -1q-25 0 -32.5 13.5t-6.5 28.5q0 15 7.5 27t32.5 12z" />
    <glyph glyph-name="Jcircumflex" unicode="&#x134;" 
d="M429 744q-5 1 -20 27t-36 61t-45 74t-47 65q-21 -25 -44.5 -63.5t-45 -74t-38.5 -61.5t-23 -28q-24 -6 -38.5 -1.5t-21.5 17.5q-8 12 -3.5 26t18.5 34q12 17 34.5 49.5t47 68t47 68.5t35.5 52q4 7 13 8t17 1q7 0 15 -1.5t13 -7.5q13 -17 34 -48.5t43 -66t42 -67t32 -50.5
q14 -21 27.5 -39t5.5 -30q-7 -13 -22 -15.5t-40 2.5zM103 662q102 3 195.5 2t174.5 -9q24 -2 33 -13.5t10 -24.5q0 -15 -10 -32t-35 -13q-15 2 -41.5 4.5t-59.5 3.5q0 -35 2 -82.5t3.5 -98.5t1.5 -102.5t-3 -95.5q-10 -128 -38 -181t-72 -53q-50 0 -90 25t-68 57t-44 64
t-18 47q-2 17 3 41.5t34 28.5q22 4 34 -8.5t12 -29.5q0 -11 5.5 -32.5t19.5 -43t38.5 -38t62.5 -16.5q17 0 26.5 43.5t11.5 118.5q1 44 -1.5 125.5t-0.5 233.5q-53 1 -103.5 1.5t-81.5 -0.5q-25 -1 -36.5 10.5t-11.5 26.5q-1 15 10.5 27.5t36.5 13.5z" />
    <glyph glyph-name="jcircumflex" unicode="&#x135;" 
d="M464 534q-5 1 -20 27t-36 61t-45 74t-47 65q-21 -25 -44.5 -63.5t-45 -74t-38.5 -61.5t-23 -28q-24 -6 -38.5 -1.5t-21.5 17.5q-8 12 -3.5 26t18.5 34q12 17 34.5 49.5t47 68t47 68.5t35.5 52q4 7 13 8t17 1q7 0 15 -1.5t13 -7.5q13 -17 34 -48.5t43 -66t42 -67t32 -50.5
q14 -21 27.5 -39t5.5 -30q-7 -13 -22 -15.5t-40 2.5zM333 -13q0 31 -6 129.5t1 254.5q-11 -1 -37 -1h-55q-29 0 -57 0.5t-43 0.5q-22 0 -35 15t-12 31q0 13 12.5 23.5t33.5 11.5q12 1 42 2t66 2t71.5 1.5t59.5 -0.5q15 0 24.5 -6.5t15 -16t7 -18.5t1.5 -13
q-3 -24 -5.5 -38.5t-2.5 -36.5q0 -23 1 -63.5t2 -88.5t2 -101t1 -100q0 -72 -28 -119t-72 -74.5t-98.5 -38.5t-105.5 -11q-19 0 -32 9t-13 28t12.5 33t27.5 14q42 0 82 9.5t71 30t50 53t19 78.5z" />
    <glyph glyph-name="Kcommaaccent" unicode="&#x136;" 
d="M419 4q-10 12 -46 45.5t-80.5 74.5t-89.5 84.5t-72 75.5v-19q2 -78 4.5 -137.5t3.5 -104.5q-2 -21 -19 -32.5t-36 -10.5q-17 0 -30 12t-11 36q1 20 1.5 61.5t0 95.5t-2 116.5t-3.5 123.5q-3 70 -1 113.5t3 78.5q1 27 15 39t31 12q19 1 33.5 -10t14.5 -38q0 -36 -2 -94.5
t-3 -129.5q38 37 80 78t79 77t65 63t37 35q20 19 36.5 18.5t26.5 -10.5q10 -11 10 -27t-18 -38q-7 -8 -34 -36t-63 -64l-78 -78q-41 -41 -75 -74q31 -32 80.5 -78.5t96.5 -91t83.5 -81t41.5 -48.5q7 -16 0 -31t-17 -22q-14 -10 -30 -6.5t-32 22.5zM328 -260
q-4 -18 -14.5 -56.5t-24 -79t-27 -76t-22.5 -47.5q-16 -21 -39 -28.5t-37 -2.5q-14 4 -23.5 20.5t3.5 36.5q10 15 25.5 51t30 76t26 76.5t14.5 52.5q4 21 23 25.5t34 0.5q13 -4 24 -16.5t7 -32.5z" />
    <glyph glyph-name="kcommaaccent" unicode="&#x137;" 
d="M419 4q-8 11 -31 39t-50 62.5t-52.5 71.5t-37.5 66q-22 -19 -41.5 -36.5t-34.5 -30.5l-1 -1h-1q-1 -49 2.5 -84.5t2.5 -60.5q-1 -31 -17 -41.5t-36 -9.5q-15 1 -30.5 11.5t-13.5 37.5q4 46 5 133t1 183t-0.5 186t-0.5 141q0 25 15.5 36t34.5 11q17 0 31 -10.5t14 -35.5
q0 -29 -0.5 -74t-1.5 -96.5t-2 -106.5t-2 -104q35 31 70 61.5t65 55.5t52.5 43.5t31.5 27.5q20 19 36.5 18.5t26.5 -10.5q10 -11 10 -27t-18 -38q-10 -11 -49 -46.5t-86 -76.5q17 -30 49 -72.5t63 -82.5t55 -71t24 -38q1 -17 -5 -28.5t-16 -18.5q-14 -10 -30.5 -8t-31.5 24z
M359 -258q-4 -18 -14.5 -56.5t-24 -79t-27 -76t-22.5 -47.5q-16 -21 -39 -28.5t-37 -2.5q-14 4 -23.5 20.5t3.5 36.5q10 15 25.5 51t30 76t26 76.5t14.5 52.5q4 21 23 25.5t34 0.5q13 -4 24 -16.5t7 -32.5z" />
    <glyph glyph-name="Lacute" unicode="&#x139;" 
d="M376 912q-30 -40 -69.5 -82t-66.5 -69q-19 -19 -39 -20.5t-30 8.5q-11 10 -7.5 30.5t21.5 37.5q33 30 64 74t57 80q13 16 35 17t35 -9q9 -10 11 -30t-11 -37zM466 9q-38 -7 -98.5 -11.5t-120 -7t-106.5 -3.5t-57 -1q-17 0 -30 12t-11 36q3 43 11.5 113t14.5 186
q1 32 1 73.5t-0.5 81t-1 72.5t-0.5 49q1 27 15 39t31 12q19 1 33.5 -10t14.5 -38q0 -46 -3.5 -130t-6.5 -185q-2 -66 -7.5 -119.5t-5.5 -110.5q43 0 93 2.5t95.5 7t81.5 9.5t51 9q23 6 34 -12t12 -33q0 -15 -7.5 -26t-32.5 -15z" />
    <glyph glyph-name="lacute" unicode="&#x13a;" 
d="M382 1012q-30 -40 -69.5 -82t-66.5 -69q-19 -19 -39 -20.5t-30 8.5q-11 10 -7.5 30.5t21.5 37.5q33 30 64 74t57 80q13 16 35 17t35 -9q9 -10 11 -30t-11 -37zM94 79h69q37 -1 75 -2v28q0 15 -1 33q-1 35 -1 96.5t1 131t2.5 140t2.5 121.5q-22 -1 -47.5 -1.5t-62.5 -0.5
q-22 0 -32 14t-9 30q0 14 9.5 25.5t30.5 11.5q47 0 71.5 1t40 1.5t28 1t36.5 -0.5q6 0 10.5 -3.5t6.5 -10.5q6 -2 9 -6t3 -9q-3 -17 -5 -68t-3.5 -108t-2 -107.5t-0.5 -65.5v-44v-36q0 -17 0.5 -34.5t0.5 -41.5q0 -29 0.5 -52.5t1.5 -48.5q48 -1 84 -2t49 -1q28 0 37 -11.5
t10 -24.5q1 -16 -8.5 -29.5t-40.5 -13.5q-13 0 -60.5 0.5t-105 1t-114 1t-86.5 0.5q-22 0 -31 12.5t-9 27.5q-1 16 8 30t33 14z" />
    <glyph glyph-name="Lcommaaccent" unicode="&#x13b;" 
d="M466 9q-38 -7 -98.5 -11.5t-120 -7t-106.5 -3.5t-57 -1q-17 0 -30 12t-11 36q3 43 11.5 113t14.5 186q1 32 1 73.5t-0.5 81t-1 72.5t-0.5 49q1 27 15 39t31 12q19 1 33.5 -10t14.5 -38q0 -46 -3.5 -130t-6.5 -185q-2 -66 -7.5 -119.5t-5.5 -110.5q43 0 93 2.5t95.5 7
t81.5 9.5t51 9q23 6 34 -12t12 -33q0 -15 -7.5 -26t-32.5 -15zM363 -266q-4 -18 -14.5 -56.5t-24 -79t-27 -76t-22.5 -47.5q-16 -21 -39 -28.5t-37 -2.5q-14 4 -23.5 20.5t3.5 36.5q10 15 25.5 51t30 76t26 76.5t14.5 52.5q4 21 23 25.5t34 0.5q13 -4 24 -16.5t7 -32.5z" />
    <glyph glyph-name="lcommaaccent" unicode="&#x13c;" 
d="M94 79h69q37 -1 75 -2v28q0 15 -1 33q-1 35 -1 96.5t1 131t2.5 140t2.5 121.5q-22 -1 -47.5 -1.5t-62.5 -0.5q-22 0 -32 14t-9 30q0 14 9.5 25.5t30.5 11.5q47 0 71.5 1t40 1.5t28 1t36.5 -0.5q6 0 10.5 -3.5t6.5 -10.5q6 -2 9 -6t3 -9q-3 -17 -5 -68t-3.5 -108
t-2 -107.5t-0.5 -65.5v-44v-36q0 -17 0.5 -34.5t0.5 -41.5q0 -29 0.5 -52.5t1.5 -48.5q48 -1 84 -2t49 -1q28 0 37 -11.5t10 -24.5q1 -16 -8.5 -29.5t-40.5 -13.5q-13 0 -60.5 0.5t-105 1t-114 1t-86.5 0.5q-22 0 -31 12.5t-9 27.5q-1 16 8 30t33 14zM370 -272
q-4 -18 -14.5 -56.5t-24 -79t-27 -76t-22.5 -47.5q-16 -21 -39 -28.5t-37 -2.5q-14 4 -23.5 20.5t3.5 36.5q10 15 25.5 51t30 76t26 76.5t14.5 52.5q4 21 23 25.5t34 0.5q13 -4 24 -16.5t7 -32.5z" />
    <glyph glyph-name="Nacute" unicode="&#x143;" 
d="M376 912q-30 -40 -69.5 -82t-66.5 -69q-19 -19 -39 -20.5t-30 8.5q-11 10 -7.5 30.5t21.5 37.5q33 30 64 74t57 80q13 16 35 17t35 -9q9 -10 11 -30t-11 -37zM488 10q-6 -13 -21 -18t-31 -5q-19 -1 -30.5 7t-15.5 18q-11 24 -45 82.5t-75 132.5t-81 153.5t-64 145.5
q4 -66 4 -141.5t-1.5 -143t-3.5 -121t-1 -74.5q1 -31 -13 -44.5t-31 -12.5q-20 1 -27 17.5t-7 44.5q0 25 2 97t3.5 156.5t2 166t-2.5 127.5q-2 39 20.5 51t45.5 9q13 0 28.5 -6t22.5 -28q11 -34 43.5 -100.5t72 -140t79 -143.5t64.5 -111q1 46 1.5 115.5t0 140t-2.5 131.5
t-6 90q-3 23 9 38t30 15q27 0 33.5 -12.5t10.5 -38.5q1 -9 2 -97t0 -192.5t-4.5 -197t-11.5 -111.5z" />
    <glyph glyph-name="nacute" unicode="&#x144;" horiz-adv-x="600" 
d="M406 702q-30 -40 -69.5 -82t-66.5 -69q-19 -19 -39 -20.5t-30 8.5q-11 10 -7.5 30.5t21.5 37.5q33 30 64 74t57 80q13 16 35 17t35 -9q9 -10 11 -30t-11 -37zM200 427q-1 -7 -1.5 -15t-1.5 -16q19 30 59 55.5t101 25.5q66 0 98.5 -49t34.5 -131q2 -76 13.5 -142
t14.5 -120q1 -31 -11.5 -43.5t-28.5 -12.5q-18 -1 -34.5 11.5t-18.5 44.5q-4 43 -11 99.5t-10 120.5q-4 77 -15 106t-45 29q-31 0 -56 -11.5t-44.5 -28.5t-34 -37.5t-23.5 -38.5q-1 -24 -2 -49t0 -50q0 -44 5.5 -83t5.5 -64q0 -30 -16 -40t-35 -9q-15 1 -27.5 11.5
t-13.5 37.5q-1 16 -5 45.5t-5 64.5q-3 78 4 153t8 135q1 31 18.5 43.5t35.5 11.5q17 0 30.5 -11.5t10.5 -42.5z" />
    <glyph glyph-name="Ncommaaccent" unicode="&#x145;" 
d="M488 10q-6 -13 -21 -18t-31 -5q-19 -1 -30.5 7t-15.5 18q-11 24 -45 82.5t-75 132.5t-81 153.5t-64 145.5q4 -66 4 -141.5t-1.5 -143t-3.5 -121t-1 -74.5q1 -31 -13 -44.5t-31 -12.5q-20 1 -27 17.5t-7 44.5q0 25 2 97t3.5 156.5t2 166t-2.5 127.5q-2 39 20.5 51t45.5 9
q13 0 28.5 -6t22.5 -28q11 -34 43.5 -100.5t72 -140t79 -143.5t64.5 -111q1 46 1.5 115.5t0 140t-2.5 131.5t-6 90q-3 23 9 38t30 15q27 0 33.5 -12.5t10.5 -38.5q1 -9 2 -97t0 -192.5t-4.5 -197t-11.5 -111.5zM374 -267q-4 -18 -14.5 -56.5t-24 -79t-27 -76t-22.5 -47.5
q-16 -21 -39 -28.5t-37 -2.5q-14 4 -23.5 20.5t3.5 36.5q10 15 25.5 51t30 76t26 76.5t14.5 52.5q4 21 23 25.5t34 0.5q13 -4 24 -16.5t7 -32.5z" />
    <glyph glyph-name="ncommaaccent" unicode="&#x146;" horiz-adv-x="600" 
d="M200 427q-1 -7 -1.5 -15t-1.5 -16q19 30 59 55.5t101 25.5q66 0 98.5 -49t34.5 -131q2 -76 13.5 -142t14.5 -120q1 -31 -11.5 -43.5t-28.5 -12.5q-18 -1 -34.5 11.5t-18.5 44.5q-4 43 -11 99.5t-10 120.5q-4 77 -15 106t-45 29q-31 0 -56 -11.5t-44.5 -28.5t-34 -37.5
t-23.5 -38.5q-1 -24 -2 -49t0 -50q0 -44 5.5 -83t5.5 -64q0 -30 -16 -40t-35 -9q-15 1 -27.5 11.5t-13.5 37.5q-1 16 -5 45.5t-5 64.5q-3 78 4 153t8 135q1 31 18.5 43.5t35.5 11.5q17 0 30.5 -11.5t10.5 -42.5zM404 -259q-4 -18 -14.5 -56.5t-24 -79t-27 -76t-22.5 -47.5
q-16 -21 -39 -28.5t-37 -2.5q-14 4 -23.5 20.5t3.5 36.5q10 15 25.5 51t30 76t26 76.5t14.5 52.5q4 21 23 25.5t34 0.5q13 -4 24 -16.5t7 -32.5z" />
    <glyph glyph-name="Ncaron" unicode="&#x147;" 
d="M414 750q-25 14 -60 38t-79 58q-44 -34 -79 -58t-60 -38q-22 -13 -42 -9.5t-27 16.5q-8 12 0.5 31t30.5 31q37 19 75.5 54t72.5 62q7 5 14.5 7t15.5 2q7 0 14.5 -2.5t13.5 -6.5q34 -27 72.5 -62t75.5 -54q22 -12 30.5 -31t0.5 -31q-7 -13 -27 -16.5t-42 9.5zM488 10
q-6 -13 -21 -18t-31 -5q-19 -1 -30.5 7t-15.5 18q-11 24 -45 82.5t-75 132.5t-81 153.5t-64 145.5q4 -66 4 -141.5t-1.5 -143t-3.5 -121t-1 -74.5q1 -31 -13 -44.5t-31 -12.5q-20 1 -27 17.5t-7 44.5q0 25 2 97t3.5 156.5t2 166t-2.5 127.5q-2 39 20.5 51t45.5 9
q13 0 28.5 -6t22.5 -28q11 -34 43.5 -100.5t72 -140t79 -143.5t64.5 -111q1 46 1.5 115.5t0 140t-2.5 131.5t-6 90q-3 23 9 38t30 15q27 0 33.5 -12.5t10.5 -38.5q1 -9 2 -97t0 -192.5t-4.5 -197t-11.5 -111.5z" />
    <glyph glyph-name="ncaron" unicode="&#x148;" horiz-adv-x="600" 
d="M444 540q-25 14 -60 38t-79 58q-44 -34 -79 -58t-60 -38q-22 -13 -42 -9.5t-27 16.5q-8 12 0.5 31t30.5 31q37 19 75.5 54t72.5 62q7 5 14.5 7t15.5 2q7 0 14.5 -2.5t13.5 -6.5q34 -27 72.5 -62t75.5 -54q22 -12 30.5 -31t0.5 -31q-7 -13 -27 -16.5t-42 9.5zM200 427
q-1 -7 -1.5 -15t-1.5 -16q19 30 59 55.5t101 25.5q66 0 98.5 -49t34.5 -131q2 -76 13.5 -142t14.5 -120q1 -31 -11.5 -43.5t-28.5 -12.5q-18 -1 -34.5 11.5t-18.5 44.5q-4 43 -11 99.5t-10 120.5q-4 77 -15 106t-45 29q-31 0 -56 -11.5t-44.5 -28.5t-34 -37.5t-23.5 -38.5
q-1 -24 -2 -49t0 -50q0 -44 5.5 -83t5.5 -64q0 -30 -16 -40t-35 -9q-15 1 -27.5 11.5t-13.5 37.5q-1 16 -5 45.5t-5 64.5q-3 78 4 153t8 135q1 31 18.5 43.5t35.5 11.5q17 0 30.5 -11.5t10.5 -42.5z" />
    <glyph glyph-name="Omacron" unicode="&#x14c;" 
d="M112 822h53h79q44 0 94 1t98 2q25 1 35.5 -13.5t9.5 -29.5q0 -15 -10.5 -28.5t-35.5 -13.5h-79h-97q-48 0 -89 0.5t-58 1.5q-25 1 -32.5 14.5t-7.5 28.5q1 13 8.5 25t31.5 12zM245 -23q-44 1 -80.5 21t-62.5 54.5t-40.5 80.5t-13.5 97q0 60 3.5 142.5t32.5 159.5
q23 60 82 99.5t134 39.5q37 0 71.5 -14.5t61.5 -42t45.5 -68.5t22.5 -94q3 -33 4 -74t0 -81.5t-4.5 -77.5t-10.5 -62q-15 -55 -38.5 -90.5t-54 -55t-69 -27t-83.5 -7.5zM245 56q48 0 93 26t64 88q2 7 5.5 35.5t6 68.5t3 86.5t-3.5 90.5q-5 60 -39.5 102t-84.5 42
q-52 0 -85.5 -38.5t-48.5 -101.5q-12 -50 -15 -103t-1 -107q1 -34 7 -68t18 -61t32 -43.5t49 -16.5z" />
    <glyph glyph-name="omacron" unicode="&#x14d;" 
d="M107 612h53h79q44 0 94 1t98 2q25 1 35.5 -13.5t9.5 -29.5q0 -15 -10.5 -28.5t-35.5 -13.5h-79h-97q-48 0 -89 0.5t-58 1.5q-25 1 -32.5 14.5t-7.5 28.5q1 13 8.5 25t31.5 12zM255 -25q-47 1 -84 22t-62.5 55.5t-39 79t-12.5 92.5q0 56 14.5 104.5t43 84t71 56t97.5 20.5
q41 0 79.5 -15t67.5 -48.5t44.5 -87t11.5 -129.5q-7 -110 -60 -172.5t-171 -61.5zM275 54q58 -3 86 47t31 124q4 103 -30.5 147t-91.5 44q-56 0 -84.5 -52t-32.5 -138q-2 -72 21.5 -120t100.5 -52z" />
    <glyph glyph-name="Obreve" unicode="&#x14e;" 
d="M118 886q12 -2 28 -14t35.5 -25t43 -24t49.5 -11t45 5t35.5 13.5t33 21t38.5 27.5q22 14 36.5 3t13.5 -26q0 -15 -6 -27.5t-24 -29.5q-24 -23 -64 -41t-107 -18q-34 0 -61 7.5t-47.5 17t-35 20t-22.5 16.5q-19 15 -25 27.5t-6 27.5q1 13 9 23.5t31 6.5zM245 -23
q-44 1 -80.5 21t-62.5 54.5t-40.5 80.5t-13.5 97q0 60 3.5 142.5t32.5 159.5q23 60 82 99.5t134 39.5q37 0 71.5 -14.5t61.5 -42t45.5 -68.5t22.5 -94q3 -33 4 -74t0 -81.5t-4.5 -77.5t-10.5 -62q-15 -55 -38.5 -90.5t-54 -55t-69 -27t-83.5 -7.5zM245 56q48 0 93 26t64 88
q2 7 5.5 35.5t6 68.5t3 86.5t-3.5 90.5q-5 60 -39.5 102t-84.5 42q-52 0 -85.5 -38.5t-48.5 -101.5q-12 -50 -15 -103t-1 -107q1 -34 7 -68t18 -61t32 -43.5t49 -16.5z" />
    <glyph glyph-name="obreve" unicode="&#x14f;" 
d="M113 676q12 -2 28 -14t35.5 -25t43 -24t49.5 -11t45 5t35.5 13.5t33 21t38.5 27.5q22 14 36.5 3t13.5 -26q0 -15 -6 -27.5t-24 -29.5q-24 -23 -64 -41t-107 -18q-34 0 -61 7.5t-47.5 17t-35 20t-22.5 16.5q-19 15 -25 27.5t-6 27.5q1 13 9 23.5t31 6.5zM255 -25
q-47 1 -84 22t-62.5 55.5t-39 79t-12.5 92.5q0 56 14.5 104.5t43 84t71 56t97.5 20.5q41 0 79.5 -15t67.5 -48.5t44.5 -87t11.5 -129.5q-7 -110 -60 -172.5t-171 -61.5zM275 54q58 -3 86 47t31 124q4 103 -30.5 147t-91.5 44q-56 0 -84.5 -52t-32.5 -138q-2 -72 21.5 -120
t100.5 -52z" />
    <glyph glyph-name="Ohungarumlaut" unicode="&#x150;" 
d="M295 930q-10 -18 -23.5 -40t-28 -44.5t-29.5 -43t-28 -35.5q-16 -19 -30.5 -21t-27.5 5t-12.5 24.5t13.5 39.5q9 15 20 35l22 40q11 20 20.5 39.5t16.5 32.5q10 20 28 22t33 -5q12 -5 24 -17.5t2 -31.5zM434 916q-20 -36 -57.5 -80.5t-63.5 -74.5q-16 -19 -29 -21t-26 5
t-12.5 24.5t13.5 39.5q19 30 44.5 71.5t38.5 68.5q10 20 26 23.5t31 -3.5q6 -3 14 -8t14.5 -12t9 -15.5t-2.5 -17.5zM245 -23q-44 1 -80.5 21t-62.5 54.5t-40.5 80.5t-13.5 97q0 60 3.5 142.5t32.5 159.5q23 60 82 99.5t134 39.5q37 0 71.5 -14.5t61.5 -42t45.5 -68.5
t22.5 -94q3 -33 4 -74t0 -81.5t-4.5 -77.5t-10.5 -62q-15 -55 -38.5 -90.5t-54 -55t-69 -27t-83.5 -7.5zM245 56q48 0 93 26t64 88q2 7 5.5 35.5t6 68.5t3 86.5t-3.5 90.5q-5 60 -39.5 102t-84.5 42q-52 0 -85.5 -38.5t-48.5 -101.5q-12 -50 -15 -103t-1 -107q1 -34 7 -68
t18 -61t32 -43.5t49 -16.5z" />
    <glyph glyph-name="ohungarumlaut" unicode="&#x151;" 
d="M291 720q-10 -18 -23.5 -40t-28 -44.5t-29.5 -43t-28 -35.5q-16 -19 -30.5 -21t-27.5 5t-12.5 24.5t13.5 39.5q9 15 20 35l22 40q11 20 20.5 39.5t16.5 32.5q10 20 28 22t33 -5q12 -5 24 -17.5t2 -31.5zM430 706q-20 -36 -57.5 -80.5t-63.5 -74.5q-16 -19 -29 -21t-26 5
t-12.5 24.5t13.5 39.5q19 30 44.5 71.5t38.5 68.5q10 20 26 23.5t31 -3.5q6 -3 14 -8t14.5 -12t9 -15.5t-2.5 -17.5zM255 -25q-47 1 -84 22t-62.5 55.5t-39 79t-12.5 92.5q0 56 14.5 104.5t43 84t71 56t97.5 20.5q41 0 79.5 -15t67.5 -48.5t44.5 -87t11.5 -129.5
q-7 -110 -60 -172.5t-171 -61.5zM275 54q58 -3 86 47t31 124q4 103 -30.5 147t-91.5 44q-56 0 -84.5 -52t-32.5 -138q-2 -72 21.5 -120t100.5 -52z" />
    <glyph glyph-name="OE" unicode="&#x152;" 
d="M500 -6q-12 1 -75 -7t-110 -4q-17 1 -33 18q-41 -24 -111 -24q-72 1 -119 74.5t-45 178.5v16q0 57 0.5 91.5t8 92.5t21.5 102q20 61 69 100t111 39q33 0 63 -16q7 3 15 3q20 2 31 -16q81 11 108.5 10.5t73.5 -6.5q18 -3 25 -11.5t8 -23.5q0 -45 -33 -41q-21 2 -35.5 3
t-29.5 1t-21.5 0.5t-21.5 -1.5t-18 -2t-23 -3.5t-25 -4.5q-3 -98 -3 -191q57 1 105 7.5t59 6.5q32 0 34 -35q0 -41 -34 -41q-13 0 -68.5 -9t-95.5 -10q1 -21 1 -53.5t0.5 -56.5t1 -49t2 -41.5t3.5 -23.5q23 -6 70.5 -1.5t79.5 11.5q50 11 52 -39q0 -18 -10 -32t-31 -12z
M256 88q-1 28 0 148.5t-1 198.5q-2 65 1 143q-22 17 -48 17q-43 0 -71 -37t-41 -103q-18 -88 -13 -210q7 -189 88 -189q49 0 85 32z" />
    <glyph glyph-name="oe" unicode="&#x153;" 
d="M78 210q0 -74 21 -115t74 -41q58 0 76 101q1 4 5 4q11 0 30 -26t19 -49q0 -7 -2 -12q-39 -97 -143 -97q-69 0 -110 71.5t-41 172.5v5q0 116 44 190.5t124 74.5q38 0 71 -22.5t53 -68.5q4 -9 4 -19q0 -26 -18 -55.5t-28 -29.5q-3 0 -3 4q-14 118 -89 118q-42 0 -64.5 -57
t-22.5 -149zM518 137q14 0 24 -13t10 -29q0 -18 -12 -39q-22 -40 -55.5 -61t-96.5 -21q-74 0 -113.5 63t-39.5 179q0 126 50.5 198.5t128.5 72.5q34 0 74 -37t53 -89q1 -5 1 -10q0 -22 -12.5 -46t-25.5 -36q-13 -13 -32.5 -26.5t-44.5 -27t-43 -22.5t-45 -21.5t-34 -15.5
q13 -106 84 -106q33 0 59.5 20.5t34.5 34.5q18 32 35 32zM399 414q-33 0 -62.5 -41.5t-33.5 -123.5q133 45 169 89q-16 42 -33.5 59t-39.5 17z" />
    <glyph glyph-name="Racute" unicode="&#x154;" 
d="M382 912q-30 -40 -69.5 -82t-66.5 -69q-19 -19 -39 -20.5t-30 8.5q-11 10 -7.5 30.5t21.5 37.5q33 30 64 74t57 80q13 16 35 17t35 -9q9 -10 11 -30t-11 -37zM427 7q-13 17 -41.5 47.5t-67.5 64.5t-86.5 67.5t-97.5 55.5q4 -70 10 -123t9 -96q1 -21 -16.5 -31.5
t-36.5 -9.5q-17 1 -31 11.5t-12 34.5q1 21 2.5 39t2 44t0 65.5t-1.5 102.5q-1 38 1.5 78t0.5 108q-1 45 -5 89.5t-4 62.5v5q-1 8 2.5 16.5t9.5 14.5q6 7 15 11t19 4q8 0 15.5 -2t13.5 -6q100 -5 171 -29t115 -58t64.5 -74.5t20.5 -78.5q0 -42 -18.5 -69.5t-52 -44
t-80.5 -25.5t-103 -13q50 -26 93.5 -56.5t77.5 -61t57 -58t33 -48.5q7 -16 0 -31t-17 -22q-14 -10 -30.5 -6.5t-31.5 22.5zM146 465q0 -22 -3.5 -58.5t-6.5 -70.5q8 -1 22 -1.5t37 0.5q102 5 160 20t58 61q0 34 -29 62t-71 49.5t-89 35.5t-82 20l2 -56q1 -28 2 -62z" />
    <glyph glyph-name="racute" unicode="&#x155;" 
d="M382 702q-30 -40 -69.5 -82t-66.5 -69q-19 -19 -39 -20.5t-30 8.5q-11 10 -7.5 30.5t21.5 37.5q33 30 64 74t57 80q13 16 35 17t35 -9q9 -10 11 -30t-11 -37zM194 428q-1 -14 -3 -28.5t-3 -28.5q10 17 32.5 35.5t54.5 34t75 24.5t93 8q11 -3 18.5 -20.5t11 -40.5t4 -46.5
t-3.5 -38.5q-4 -19 -15 -27t-24 -12q-16 -4 -30.5 7.5t-16.5 27.5q-4 22 -3 39.5t-11 30.5q-40 0 -74 -18t-59.5 -41.5t-41.5 -47.5t-20 -37q-1 -18 -1.5 -36.5t0.5 -37.5q0 -44 5 -85t6 -69t-14.5 -36t-32.5 -7q-16 1 -28.5 9.5t-14.5 33.5q-1 18 -6 50t-6 67
q-3 78 4.5 153.5t8.5 135.5q1 31 17.5 42.5t35.5 11.5q17 0 30 -11t12 -42z" />
    <glyph glyph-name="Rcommaaccent" unicode="&#x156;" 
d="M427 7q-13 17 -41.5 47.5t-67.5 64.5t-86.5 67.5t-97.5 55.5q4 -70 10 -123t9 -96q1 -21 -16.5 -31.5t-36.5 -9.5q-17 1 -31 11.5t-12 34.5q1 21 2.5 39t2 44t0 65.5t-1.5 102.5q-1 38 1.5 78t0.5 108q-1 45 -5 89.5t-4 62.5v5q-1 8 2.5 16.5t9.5 14.5q6 7 15 11t19 4
q8 0 15.5 -2t13.5 -6q100 -5 171 -29t115 -58t64.5 -74.5t20.5 -78.5q0 -42 -18.5 -69.5t-52 -44t-80.5 -25.5t-103 -13q50 -26 93.5 -56.5t77.5 -61t57 -58t33 -48.5q7 -16 0 -31t-17 -22q-14 -10 -30.5 -6.5t-31.5 22.5zM146 465q0 -22 -3.5 -58.5t-6.5 -70.5
q8 -1 22 -1.5t37 0.5q102 5 160 20t58 61q0 34 -29 62t-71 49.5t-89 35.5t-82 20l2 -56q1 -28 2 -62zM430 -262q-4 -18 -14.5 -56.5t-24 -79t-27 -76t-22.5 -47.5q-16 -21 -39 -28.5t-37 -2.5q-14 4 -23.5 20.5t3.5 36.5q10 15 25.5 51t30 76t26 76.5t14.5 52.5
q4 21 23 25.5t34 0.5q13 -4 24 -16.5t7 -32.5z" />
    <glyph glyph-name="rcommaaccent" unicode="&#x157;" 
d="M194 428q-1 -14 -3 -28.5t-3 -28.5q10 17 32.5 35.5t54.5 34t75 24.5t93 8q11 -3 18.5 -20.5t11 -40.5t4 -46.5t-3.5 -38.5q-4 -19 -15 -27t-24 -12q-16 -4 -30.5 7.5t-16.5 27.5q-4 22 -3 39.5t-11 30.5q-40 0 -74 -18t-59.5 -41.5t-41.5 -47.5t-20 -37
q-1 -18 -1.5 -36.5t0.5 -37.5q0 -44 5 -85t6 -69t-14.5 -36t-32.5 -7q-16 1 -28.5 9.5t-14.5 33.5q-1 18 -6 50t-6 67q-3 78 4.5 153.5t8.5 135.5q1 31 17.5 42.5t35.5 11.5q17 0 30 -11t12 -42zM371 -255q-4 -18 -14.5 -56.5t-24 -79t-27 -76t-22.5 -47.5
q-16 -21 -39 -28.5t-37 -2.5q-14 4 -23.5 20.5t3.5 36.5q10 15 25.5 51t30 76t26 76.5t14.5 52.5q4 21 23 25.5t34 0.5q13 -4 24 -16.5t7 -32.5z" />
    <glyph glyph-name="Rcaron" unicode="&#x158;" 
d="M420 750q-25 14 -60 38t-79 58q-44 -34 -79 -58t-60 -38q-22 -13 -42 -9.5t-27 16.5q-8 12 0.5 31t30.5 31q37 19 75.5 54t72.5 62q7 5 14.5 7t15.5 2q7 0 14.5 -2.5t13.5 -6.5q34 -27 72.5 -62t75.5 -54q22 -12 30.5 -31t0.5 -31q-7 -13 -27 -16.5t-42 9.5zM427 7
q-13 17 -41.5 47.5t-67.5 64.5t-86.5 67.5t-97.5 55.5q4 -70 10 -123t9 -96q1 -21 -16.5 -31.5t-36.5 -9.5q-17 1 -31 11.5t-12 34.5q1 21 2.5 39t2 44t0 65.5t-1.5 102.5q-1 38 1.5 78t0.5 108q-1 45 -5 89.5t-4 62.5v5q-1 8 2.5 16.5t9.5 14.5q6 7 15 11t19 4q8 0 15.5 -2
t13.5 -6q100 -5 171 -29t115 -58t64.5 -74.5t20.5 -78.5q0 -42 -18.5 -69.5t-52 -44t-80.5 -25.5t-103 -13q50 -26 93.5 -56.5t77.5 -61t57 -58t33 -48.5q7 -16 0 -31t-17 -22q-14 -10 -30.5 -6.5t-31.5 22.5zM146 465q0 -22 -3.5 -58.5t-6.5 -70.5q8 -1 22 -1.5t37 0.5
q102 5 160 20t58 61q0 34 -29 62t-71 49.5t-89 35.5t-82 20l2 -56q1 -28 2 -62z" />
    <glyph glyph-name="rcaron" unicode="&#x159;" 
d="M420 540q-25 14 -60 38t-79 58q-44 -34 -79 -58t-60 -38q-22 -13 -42 -9.5t-27 16.5q-8 12 0.5 31t30.5 31q37 19 75.5 54t72.5 62q7 5 14.5 7t15.5 2q7 0 14.5 -2.5t13.5 -6.5q34 -27 72.5 -62t75.5 -54q22 -12 30.5 -31t0.5 -31q-7 -13 -27 -16.5t-42 9.5zM194 428
q-1 -14 -3 -28.5t-3 -28.5q10 17 32.5 35.5t54.5 34t75 24.5t93 8q11 -3 18.5 -20.5t11 -40.5t4 -46.5t-3.5 -38.5q-4 -19 -15 -27t-24 -12q-16 -4 -30.5 7.5t-16.5 27.5q-4 22 -3 39.5t-11 30.5q-40 0 -74 -18t-59.5 -41.5t-41.5 -47.5t-20 -37q-1 -18 -1.5 -36.5
t0.5 -37.5q0 -44 5 -85t6 -69t-14.5 -36t-32.5 -7q-16 1 -28.5 9.5t-14.5 33.5q-1 18 -6 50t-6 67q-3 78 4.5 153.5t8.5 135.5q1 31 17.5 42.5t35.5 11.5q17 0 30 -11t12 -42z" />
    <glyph glyph-name="Sacute" unicode="&#x15a;" 
d="M379 912q-30 -40 -69.5 -82t-66.5 -69q-19 -19 -39 -20.5t-30 8.5q-11 10 -7.5 30.5t21.5 37.5q33 30 64 74t57 80q13 16 35 17t35 -9q9 -10 11 -30t-11 -37zM52 62q-13 25 -8 41.5t20 23.5q19 8 33 7t31 -26q16 -24 45 -40t69 -16q28 0 59 10t57 28.5t43.5 45t17.5 58.5
q0 22 -6.5 44t-27.5 41t-62.5 34t-110.5 22q-34 4 -60.5 18t-44.5 33.5t-27 42.5t-9 44q0 39 17.5 76t51.5 65t84.5 45.5t116.5 17.5q10 0 28 -1t37.5 -3t37 -5t26.5 -6q19 -7 26 -21.5t5 -29.5q-3 -23 -22.5 -24.5t-33.5 2.5q-20 5 -42.5 9.5t-69.5 4.5q-31 0 -61.5 -7.5
t-54 -21.5t-38 -33.5t-14.5 -44.5q0 -35 31 -60.5t90 -28.5q67 -3 111 -22.5t69.5 -47.5t35.5 -61.5t10 -65.5q0 -55 -22.5 -99t-60.5 -74.5t-87.5 -47t-103.5 -16.5q-69 0 -118.5 27.5t-67.5 61.5z" />
    <glyph glyph-name="sacute" unicode="&#x15b;" 
d="M382 702q-30 -40 -69.5 -82t-66.5 -69q-19 -19 -39 -20.5t-30 8.5q-11 10 -7.5 30.5t21.5 37.5q33 30 64 74t57 80q13 16 35 17t35 -9q9 -10 11 -30t-11 -37zM72 62q-7 29 -1 45.5t21 23.5q19 8 41 2t33 -33q11 -26 23.5 -38.5t52.5 -12.5q19 0 45.5 7.5t51 20.5t42 30
t19.5 35q1 17 -18.5 27.5t-50.5 19t-70 17t-76 20.5q-54 18 -73 38.5t-19 60.5q0 72 81.5 116t249.5 44q9 0 16 -15.5t12 -35.5t8 -38.5t3 -23.5q1 -16 -2.5 -32.5t-22.5 -22.5q-20 -7 -35.5 3.5t-19.5 21.5q-5 12 -9.5 23.5t-11.5 37.5q-25 0 -56.5 -4.5t-58.5 -14
t-44.5 -24.5t-15.5 -35q1 -8 11.5 -14.5t25.5 -11.5t31.5 -8.5t29.5 -6.5q44 -9 83.5 -20.5t68.5 -28t44.5 -40t11.5 -54.5q-5 -41 -28 -73.5t-58 -54.5t-81 -34t-96 -12q-51 0 -98 23t-60 72z" />
    <glyph glyph-name="Scircumflex" unicode="&#x15c;" 
d="M427 744q-5 1 -20 27t-36 61t-45 74t-47 65q-21 -25 -44.5 -63.5t-45 -74t-38.5 -61.5t-23 -28q-24 -6 -38.5 -1.5t-21.5 17.5q-8 12 -3.5 26t18.5 34q12 17 34.5 49.5t47 68t47 68.5t35.5 52q4 7 13 8t17 1q7 0 15 -1.5t13 -7.5q13 -17 34 -48.5t43 -66t42 -67t32 -50.5
q14 -21 27.5 -39t5.5 -30q-7 -13 -22 -15.5t-40 2.5zM52 62q-13 25 -8 41.5t20 23.5q19 8 33 7t31 -26q16 -24 45 -40t69 -16q28 0 59 10t57 28.5t43.5 45t17.5 58.5q0 22 -6.5 44t-27.5 41t-62.5 34t-110.5 22q-34 4 -60.5 18t-44.5 33.5t-27 42.5t-9 44q0 39 17.5 76
t51.5 65t84.5 45.5t116.5 17.5q10 0 28 -1t37.5 -3t37 -5t26.5 -6q19 -7 26 -21.5t5 -29.5q-3 -23 -22.5 -24.5t-33.5 2.5q-20 5 -42.5 9.5t-69.5 4.5q-31 0 -61.5 -7.5t-54 -21.5t-38 -33.5t-14.5 -44.5q0 -35 31 -60.5t90 -28.5q67 -3 111 -22.5t69.5 -47.5t35.5 -61.5
t10 -65.5q0 -55 -22.5 -99t-60.5 -74.5t-87.5 -47t-103.5 -16.5q-69 0 -118.5 27.5t-67.5 61.5z" />
    <glyph glyph-name="scircumflex" unicode="&#x15d;" 
d="M431 534q-5 1 -20 27t-36 61t-45 74t-47 65q-21 -25 -44.5 -63.5t-45 -74t-38.5 -61.5t-23 -28q-24 -6 -38.5 -1.5t-21.5 17.5q-8 12 -3.5 26t18.5 34q12 17 34.5 49.5t47 68t47 68.5t35.5 52q4 7 13 8t17 1q7 0 15 -1.5t13 -7.5q13 -17 34 -48.5t43 -66t42 -67t32 -50.5
q14 -21 27.5 -39t5.5 -30q-7 -13 -22 -15.5t-40 2.5zM72 62q-7 29 -1 45.5t21 23.5q19 8 41 2t33 -33q11 -26 23.5 -38.5t52.5 -12.5q19 0 45.5 7.5t51 20.5t42 30t19.5 35q1 17 -18.5 27.5t-50.5 19t-70 17t-76 20.5q-54 18 -73 38.5t-19 60.5q0 72 81.5 116t249.5 44
q9 0 16 -15.5t12 -35.5t8 -38.5t3 -23.5q1 -16 -2.5 -32.5t-22.5 -22.5q-20 -7 -35.5 3.5t-19.5 21.5q-5 12 -9.5 23.5t-11.5 37.5q-25 0 -56.5 -4.5t-58.5 -14t-44.5 -24.5t-15.5 -35q1 -8 11.5 -14.5t25.5 -11.5t31.5 -8.5t29.5 -6.5q44 -9 83.5 -20.5t68.5 -28t44.5 -40
t11.5 -54.5q-5 -41 -28 -73.5t-58 -54.5t-81 -34t-96 -12q-51 0 -98 23t-60 72z" />
    <glyph glyph-name="Scedilla" unicode="&#x15e;" 
d="M52 62q-13 25 -8 41.5t20 23.5q19 8 33 7t31 -26q16 -24 45 -40t69 -16q28 0 59 10t57 28.5t43.5 45t17.5 58.5q0 22 -6.5 44t-27.5 41t-62.5 34t-110.5 22q-34 4 -60.5 18t-44.5 33.5t-27 42.5t-9 44q0 39 17.5 76t51.5 65t84.5 45.5t116.5 17.5q10 0 28 -1t37.5 -3
t37 -5t26.5 -6q19 -7 26 -21.5t5 -29.5q-3 -23 -22.5 -24.5t-33.5 2.5q-20 5 -42.5 9.5t-69.5 4.5q-31 0 -61.5 -7.5t-54 -21.5t-38 -33.5t-14.5 -44.5q0 -35 31 -60.5t90 -28.5q67 -3 111 -22.5t69.5 -47.5t35.5 -61.5t10 -65.5q0 -46 -16 -84.5t-43.5 -67.5t-64.5 -49
t-80 -29q5 -16 20.5 -29t31.5 -26t29 -27.5t13 -32.5q0 -20 -6 -40.5t-20.5 -37t-39 -27t-61.5 -10.5q-50 0 -74 18t-37 42q-10 17 -5.5 35.5t15.5 23.5q13 6 25.5 3.5t21.5 -20.5q7 -16 21 -29.5t39 -13.5q27 0 38.5 12t11.5 35q0 20 -14 32t-31 23t-31.5 25t-16.5 37
q-69 0 -118.5 27.5t-67.5 61.5z" />
    <glyph glyph-name="scedilla" unicode="&#x15f;" 
d="M72 62q-7 29 -1 45.5t21 23.5q19 8 41 2t33 -33q11 -26 23.5 -38.5t52.5 -12.5q19 0 45.5 7.5t51 20.5t42 30t19.5 35q1 17 -18.5 27.5t-50.5 19t-70 17t-76 20.5q-54 18 -73 38.5t-19 60.5q0 72 81.5 116t249.5 44q9 0 16 -15.5t12 -35.5t8 -38.5t3 -23.5
q1 -16 -2.5 -32.5t-22.5 -22.5q-20 -7 -35.5 3.5t-19.5 21.5q-5 12 -9.5 23.5t-11.5 37.5q-25 0 -56.5 -4.5t-58.5 -14t-44.5 -24.5t-15.5 -35q1 -8 11.5 -14.5t25.5 -11.5t31.5 -8.5t29.5 -6.5q44 -9 83.5 -20.5t68.5 -28t44.5 -40t11.5 -54.5q-8 -65 -59 -108t-124 -58
q6 -15 22 -27l30 -25q16 -13 28 -26.5t12 -31.5q0 -20 -6 -40.5t-20.5 -37t-39 -27t-61.5 -10.5q-50 0 -74 18t-37 42q-10 17 -5.5 35.5t15.5 23.5q13 6 25.5 3.5t21.5 -20.5q7 -16 21 -29.5t39 -13.5q27 0 38.5 12t11.5 35q0 19 -13 31t-29.5 22.5t-31.5 23.5t-18 34h-9
q-51 0 -98 23t-60 72z" />
    <glyph glyph-name="Scaron" unicode="&#x160;" 
d="M417 750q-25 14 -60 38t-79 58q-44 -34 -79 -58t-60 -38q-22 -13 -42 -9.5t-27 16.5q-8 12 0.5 31t30.5 31q37 19 75.5 54t72.5 62q7 5 14.5 7t15.5 2q7 0 14.5 -2.5t13.5 -6.5q34 -27 72.5 -62t75.5 -54q22 -12 30.5 -31t0.5 -31q-7 -13 -27 -16.5t-42 9.5zM52 62
q-13 25 -8 41.5t20 23.5q19 8 33 7t31 -26q16 -24 45 -40t69 -16q28 0 59 10t57 28.5t43.5 45t17.5 58.5q0 22 -6.5 44t-27.5 41t-62.5 34t-110.5 22q-34 4 -60.5 18t-44.5 33.5t-27 42.5t-9 44q0 39 17.5 76t51.5 65t84.5 45.5t116.5 17.5q10 0 28 -1t37.5 -3t37 -5
t26.5 -6q19 -7 26 -21.5t5 -29.5q-3 -23 -22.5 -24.5t-33.5 2.5q-20 5 -42.5 9.5t-69.5 4.5q-31 0 -61.5 -7.5t-54 -21.5t-38 -33.5t-14.5 -44.5q0 -35 31 -60.5t90 -28.5q67 -3 111 -22.5t69.5 -47.5t35.5 -61.5t10 -65.5q0 -55 -22.5 -99t-60.5 -74.5t-87.5 -47
t-103.5 -16.5q-69 0 -118.5 27.5t-67.5 61.5z" />
    <glyph glyph-name="scaron" unicode="&#x161;" 
d="M420 540q-25 14 -60 38t-79 58q-44 -34 -79 -58t-60 -38q-22 -13 -42 -9.5t-27 16.5q-8 12 0.5 31t30.5 31q37 19 75.5 54t72.5 62q7 5 14.5 7t15.5 2q7 0 14.5 -2.5t13.5 -6.5q34 -27 72.5 -62t75.5 -54q22 -12 30.5 -31t0.5 -31q-7 -13 -27 -16.5t-42 9.5zM72 62
q-7 29 -1 45.5t21 23.5q19 8 41 2t33 -33q11 -26 23.5 -38.5t52.5 -12.5q19 0 45.5 7.5t51 20.5t42 30t19.5 35q1 17 -18.5 27.5t-50.5 19t-70 17t-76 20.5q-54 18 -73 38.5t-19 60.5q0 72 81.5 116t249.5 44q9 0 16 -15.5t12 -35.5t8 -38.5t3 -23.5q1 -16 -2.5 -32.5
t-22.5 -22.5q-20 -7 -35.5 3.5t-19.5 21.5q-5 12 -9.5 23.5t-11.5 37.5q-25 0 -56.5 -4.5t-58.5 -14t-44.5 -24.5t-15.5 -35q1 -8 11.5 -14.5t25.5 -11.5t31.5 -8.5t29.5 -6.5q44 -9 83.5 -20.5t68.5 -28t44.5 -40t11.5 -54.5q-5 -41 -28 -73.5t-58 -54.5t-81 -34t-96 -12
q-51 0 -98 23t-60 72z" />
    <glyph glyph-name="Tcaron" unicode="&#x164;" 
d="M415 750q-25 14 -60 38t-79 58q-44 -34 -79 -58t-60 -38q-22 -13 -42 -9.5t-27 16.5q-8 12 0.5 31t30.5 31q37 19 75.5 54t72.5 62q7 5 14.5 7t15.5 2q7 0 14.5 -2.5t13.5 -6.5q34 -27 72.5 -62t75.5 -54q22 -12 30.5 -31t0.5 -31q-7 -13 -27 -16.5t-42 9.5zM88 667
q19 -3 66 -5.5t103 -3.5t113.5 -2t97.5 -1q24 0 33 -12.5t10 -25.5q0 -15 -10 -30.5t-35 -14.5q-19 1 -57.5 2.5t-84.5 2.5q0 -48 1.5 -121t3.5 -150t4 -151t3 -124q-2 -21 -19 -32.5t-36 -10.5q-17 0 -30 12t-11 36q2 30 0.5 99.5t-4 150t-5 161.5t-1.5 133q-46 2 -84 4
t-57 5q-25 4 -36.5 13t-11.5 24q-1 15 10.5 30t36.5 11z" />
    <glyph glyph-name="tcaron" unicode="&#x165;" 
d="M433 -8q-29 -11 -62.5 -15t-62.5 -3q-69 2 -120 44.5t-53 123.5q-2 72 1.5 128.5t7.5 107.5h-46q-25 0 -32.5 13t-6.5 28q0 15 7.5 27.5t32.5 12.5h22q13 0 27 -1q1 22 1 45.5t-1 48.5q-5 -4 -10.5 -7t-9.5 -5q-22 -13 -42 -9.5t-27 16.5q-8 12 0.5 31t30.5 31
q37 19 75.5 54t72.5 62q7 5 14.5 7t15.5 2q7 0 14.5 -2.5t13.5 -6.5q34 -27 72.5 -62t75.5 -54q22 -12 30.5 -31t0.5 -31q-7 -13 -27 -16.5t-42 9.5q-25 14 -60 38t-79 58q-9 -7 -17.5 -13.5t-16.5 -12.5q1 -1 1.5 -3t0.5 -3q2 -22 1.5 -61t-1.5 -87q58 -1 111 -3t72 -2
q25 0 32.5 -13t7.5 -28q-1 -13 -8.5 -24t-31.5 -11q-22 0 -73.5 0.5t-112.5 1.5q-1 -35 -3 -70t-3 -65.5t-1.5 -54.5t0.5 -38q2 -40 27 -67t70 -28q25 -1 53.5 3.5t57.5 17.5q14 6 25.5 -2t15.5 -26q4 -19 -9.5 -33.5t-31.5 -21.5z" />
    <glyph glyph-name="Utilde" unicode="&#x168;" 
d="M446 888q13 -4 14.5 -21.5t-5.5 -33.5q-27 -50 -54.5 -71.5t-52.5 -21.5q-31 0 -50 14.5t-36 37.5q-13 18 -21.5 25t-24.5 7q-18 0 -25 -12t-25 -44q-6 -10 -21 -13t-26 -1q-7 1 -13 9.5t-3 19.5q19 54 47.5 88t56.5 34q27 0 46 -6t40 -37q12 -17 21.5 -29t25.5 -12
t26.5 4t29.5 37q6 11 19 21.5t31 4.5zM517 243q-3 -76 -28.5 -128.5t-62 -83.5t-80 -44.5t-80.5 -13.5q-32 0 -69.5 12.5t-70 41t-55 77t-24.5 119.5q-1 56 -2.5 111.5t-2 105t0 93t1.5 77.5q1 26 15.5 39.5t31.5 13.5q16 0 27.5 -10.5t11.5 -37.5v-76q0 -55 1 -116.5
t2 -116t2 -74.5q2 -30 9.5 -61t23.5 -56t41.5 -41t63.5 -16q63 0 106.5 43t49.5 137q3 43 4 98.5t0.5 107.5t-1 95.5t-0.5 62.5q0 44 13.5 53t29.5 9q17 0 29 -13.5t13 -38.5q3 -59 3.5 -157.5t-3.5 -211.5z" />
    <glyph glyph-name="utilde" unicode="&#x169;" 
d="M443 678q13 -4 14.5 -21.5t-5.5 -33.5q-27 -50 -54.5 -71.5t-52.5 -21.5q-31 0 -50 14.5t-36 37.5q-13 18 -21.5 25t-24.5 7q-18 0 -25 -12t-25 -44q-6 -10 -21 -13t-26 -1q-7 1 -13 9.5t-3 19.5q19 54 47.5 88t56.5 34q27 0 46 -6t40 -37q12 -17 21.5 -29t25.5 -12
t26.5 4t29.5 37q6 11 19 21.5t31 4.5zM392 29v26q-31 -26 -84 -50.5t-110 -19.5q-25 2 -47 15.5t-38.5 32.5t-26 42t-10.5 45q-3 39 -4 76t-1 74q0 46 2.5 86.5t1.5 69.5q0 24 13.5 34.5t29.5 10.5q18 0 33.5 -10.5t15.5 -34.5q0 -23 -2.5 -63.5t-1.5 -87.5q0 -37 1 -73
t6 -74q5 -37 21 -47t42 -10q44 0 87.5 21t72.5 43q1 31 1 65t-1 74q0 37 -1 81t-3 72q0 21 12.5 32t28.5 12q17 0 33 -11t16 -33q3 -19 3.5 -53.5t1.5 -62.5q3 -82 3 -149v-132q0 -29 -13.5 -40t-29.5 -12q-19 -1 -35.5 9.5t-16.5 41.5z" />
    <glyph glyph-name="Umacron" unicode="&#x16a;" 
d="M117 822h53h79q44 0 94 1t98 2q25 1 35.5 -13.5t9.5 -29.5q0 -15 -10.5 -28.5t-35.5 -13.5h-79h-97q-48 0 -89 0.5t-58 1.5q-25 1 -32.5 14.5t-7.5 28.5q1 13 8.5 25t31.5 12zM517 243q-3 -76 -28.5 -128.5t-62 -83.5t-80 -44.5t-80.5 -13.5q-32 0 -69.5 12.5t-70 41
t-55 77t-24.5 119.5q-1 56 -2.5 111.5t-2 105t0 93t1.5 77.5q1 26 15.5 39.5t31.5 13.5q16 0 27.5 -10.5t11.5 -37.5v-76q0 -55 1 -116.5t2 -116t2 -74.5q2 -30 9.5 -61t23.5 -56t41.5 -41t63.5 -16q63 0 106.5 43t49.5 137q3 43 4 98.5t0.5 107.5t-1 95.5t-0.5 62.5
q0 44 13.5 53t29.5 9q17 0 29 -13.5t13 -38.5q3 -59 3.5 -157.5t-3.5 -211.5z" />
    <glyph glyph-name="umacron" unicode="&#x16b;" 
d="M115 612h53h79q44 0 94 1t98 2q25 1 35.5 -13.5t9.5 -29.5q0 -15 -10.5 -28.5t-35.5 -13.5h-79h-97q-48 0 -89 0.5t-58 1.5q-25 1 -32.5 14.5t-7.5 28.5q1 13 8.5 25t31.5 12zM392 29v26q-31 -26 -84 -50.5t-110 -19.5q-25 2 -47 15.5t-38.5 32.5t-26 42t-10.5 45
q-3 39 -4 76t-1 74q0 46 2.5 86.5t1.5 69.5q0 24 13.5 34.5t29.5 10.5q18 0 33.5 -10.5t15.5 -34.5q0 -23 -2.5 -63.5t-1.5 -87.5q0 -37 1 -73t6 -74q5 -37 21 -47t42 -10q44 0 87.5 21t72.5 43q1 31 1 65t-1 74q0 37 -1 81t-3 72q0 21 12.5 32t28.5 12q17 0 33 -11t16 -33
q3 -19 3.5 -53.5t1.5 -62.5q3 -82 3 -149v-132q0 -29 -13.5 -40t-29.5 -12q-19 -1 -35.5 9.5t-16.5 41.5z" />
    <glyph glyph-name="Ubreve" unicode="&#x16c;" 
d="M122 886q12 -2 28 -14t35.5 -25t43 -24t49.5 -11t45 5t35.5 13.5t33 21t38.5 27.5q22 14 36.5 3t13.5 -26q0 -15 -6 -27.5t-24 -29.5q-24 -23 -64 -41t-107 -18q-34 0 -61 7.5t-47.5 17t-35 20t-22.5 16.5q-19 15 -25 27.5t-6 27.5q1 13 9 23.5t31 6.5zM517 243
q-3 -76 -28.5 -128.5t-62 -83.5t-80 -44.5t-80.5 -13.5q-32 0 -69.5 12.5t-70 41t-55 77t-24.5 119.5q-1 56 -2.5 111.5t-2 105t0 93t1.5 77.5q1 26 15.5 39.5t31.5 13.5q16 0 27.5 -10.5t11.5 -37.5v-76q0 -55 1 -116.5t2 -116t2 -74.5q2 -30 9.5 -61t23.5 -56t41.5 -41
t63.5 -16q63 0 106.5 43t49.5 137q3 43 4 98.5t0.5 107.5t-1 95.5t-0.5 62.5q0 44 13.5 53t29.5 9q17 0 29 -13.5t13 -38.5q3 -59 3.5 -157.5t-3.5 -211.5z" />
    <glyph glyph-name="ubreve" unicode="&#x16d;" 
d="M120 676q12 -2 28 -14t35.5 -25t43 -24t49.5 -11t45 5t35.5 13.5t33 21t38.5 27.5q22 14 36.5 3t13.5 -26q0 -15 -6 -27.5t-24 -29.5q-24 -23 -64 -41t-107 -18q-34 0 -61 7.5t-47.5 17t-35 20t-22.5 16.5q-19 15 -25 27.5t-6 27.5q1 13 9 23.5t31 6.5zM392 29v26
q-31 -26 -84 -50.5t-110 -19.5q-25 2 -47 15.5t-38.5 32.5t-26 42t-10.5 45q-3 39 -4 76t-1 74q0 46 2.5 86.5t1.5 69.5q0 24 13.5 34.5t29.5 10.5q18 0 33.5 -10.5t15.5 -34.5q0 -23 -2.5 -63.5t-1.5 -87.5q0 -37 1 -73t6 -74q5 -37 21 -47t42 -10q44 0 87.5 21t72.5 43
q1 31 1 65t-1 74q0 37 -1 81t-3 72q0 21 12.5 32t28.5 12q17 0 33 -11t16 -33q3 -19 3.5 -53.5t1.5 -62.5q3 -82 3 -149v-132q0 -29 -13.5 -40t-29.5 -12q-19 -1 -35.5 9.5t-16.5 41.5z" />
    <glyph glyph-name="Uring" unicode="&#x16e;" 
d="M279 740q-49 0 -76 28t-27 70q0 16 5 33.5t18.5 32.5t36 25t56.5 10q59 0 77 -32.5t18 -79.5q0 -31 -33 -59t-75 -28zM286 791q16 0 30.5 14.5t14.5 30.5q0 11 -8 32.5t-35 21.5q-25 0 -37.5 -16.5t-11.5 -36.5q1 -17 12 -31.5t35 -14.5zM517 243q-3 -76 -28.5 -128.5
t-62 -83.5t-80 -44.5t-80.5 -13.5q-32 0 -69.5 12.5t-70 41t-55 77t-24.5 119.5q-1 56 -2.5 111.5t-2 105t0 93t1.5 77.5q1 26 15.5 39.5t31.5 13.5q16 0 27.5 -10.5t11.5 -37.5v-76q0 -55 1 -116.5t2 -116t2 -74.5q2 -30 9.5 -61t23.5 -56t41.5 -41t63.5 -16q63 0 106.5 43
t49.5 137q3 43 4 98.5t0.5 107.5t-1 95.5t-0.5 62.5q0 44 13.5 53t29.5 9q17 0 29 -13.5t13 -38.5q3 -59 3.5 -157.5t-3.5 -211.5z" />
    <glyph glyph-name="uring" unicode="&#x16f;" 
d="M277 530q-49 0 -76 28t-27 70q0 16 5 33.5t18.5 32.5t36 25t56.5 10q59 0 77 -32.5t18 -79.5q0 -31 -33 -59t-75 -28zM284 581q16 0 30.5 14.5t14.5 30.5q0 11 -8 32.5t-35 21.5q-25 0 -37.5 -16.5t-11.5 -36.5q1 -17 12 -31.5t35 -14.5zM392 29v26q-31 -26 -84 -50.5
t-110 -19.5q-25 2 -47 15.5t-38.5 32.5t-26 42t-10.5 45q-3 39 -4 76t-1 74q0 46 2.5 86.5t1.5 69.5q0 24 13.5 34.5t29.5 10.5q18 0 33.5 -10.5t15.5 -34.5q0 -23 -2.5 -63.5t-1.5 -87.5q0 -37 1 -73t6 -74q5 -37 21 -47t42 -10q44 0 87.5 21t72.5 43q1 31 1 65t-1 74
q0 37 -1 81t-3 72q0 21 12.5 32t28.5 12q17 0 33 -11t16 -33q3 -19 3.5 -53.5t1.5 -62.5q3 -82 3 -149v-132q0 -29 -13.5 -40t-29.5 -12q-19 -1 -35.5 9.5t-16.5 41.5z" />
    <glyph glyph-name="Uhungarumlaut" unicode="&#x170;" 
d="M300 930q-10 -18 -23.5 -40t-28 -44.5t-29.5 -43t-28 -35.5q-16 -19 -30.5 -21t-27.5 5t-12.5 24.5t13.5 39.5q9 15 20 35l22 40q11 20 20.5 39.5t16.5 32.5q10 20 28 22t33 -5q12 -5 24 -17.5t2 -31.5zM439 916q-20 -36 -57.5 -80.5t-63.5 -74.5q-16 -19 -29 -21t-26 5
t-12.5 24.5t13.5 39.5q19 30 44.5 71.5t38.5 68.5q10 20 26 23.5t31 -3.5q6 -3 14 -8t14.5 -12t9 -15.5t-2.5 -17.5zM517 243q-3 -76 -28.5 -128.5t-62 -83.5t-80 -44.5t-80.5 -13.5q-32 0 -69.5 12.5t-70 41t-55 77t-24.5 119.5q-1 56 -2.5 111.5t-2 105t0 93t1.5 77.5
q1 26 15.5 39.5t31.5 13.5q16 0 27.5 -10.5t11.5 -37.5v-76q0 -55 1 -116.5t2 -116t2 -74.5q2 -30 9.5 -61t23.5 -56t41.5 -41t63.5 -16q63 0 106.5 43t49.5 137q3 43 4 98.5t0.5 107.5t-1 95.5t-0.5 62.5q0 44 13.5 53t29.5 9q17 0 29 -13.5t13 -38.5q3 -59 3.5 -157.5
t-3.5 -211.5z" />
    <glyph glyph-name="uhungarumlaut" unicode="&#x171;" 
d="M298 720q-10 -18 -23.5 -40t-28 -44.5t-29.5 -43t-28 -35.5q-16 -19 -30.5 -21t-27.5 5t-12.5 24.5t13.5 39.5q9 15 20 35l22 40q11 20 20.5 39.5t16.5 32.5q10 20 28 22t33 -5q12 -5 24 -17.5t2 -31.5zM437 706q-20 -36 -57.5 -80.5t-63.5 -74.5q-16 -19 -29 -21t-26 5
t-12.5 24.5t13.5 39.5q19 30 44.5 71.5t38.5 68.5q10 20 26 23.5t31 -3.5q6 -3 14 -8t14.5 -12t9 -15.5t-2.5 -17.5zM392 29v26q-31 -26 -84 -50.5t-110 -19.5q-25 2 -47 15.5t-38.5 32.5t-26 42t-10.5 45q-3 39 -4 76t-1 74q0 46 2.5 86.5t1.5 69.5q0 24 13.5 34.5
t29.5 10.5q18 0 33.5 -10.5t15.5 -34.5q0 -23 -2.5 -63.5t-1.5 -87.5q0 -37 1 -73t6 -74q5 -37 21 -47t42 -10q44 0 87.5 21t72.5 43q1 31 1 65t-1 74q0 37 -1 81t-3 72q0 21 12.5 32t28.5 12q17 0 33 -11t16 -33q3 -19 3.5 -53.5t1.5 -62.5q3 -82 3 -149v-132
q0 -29 -13.5 -40t-29.5 -12q-19 -1 -35.5 9.5t-16.5 41.5z" />
    <glyph glyph-name="Uogonek" unicode="&#x172;" 
d="M517 243q-2 -69 -23.5 -118.5t-53.5 -81t-70.5 -48t-74.5 -20.5q-13 -16 -22 -36t-9 -41q0 -25 10 -52t35 -27q18 0 29.5 3.5t20 7.5t18 8.5t22.5 5.5q11 1 17 -5.5t7 -16.5t-3 -21.5t-12 -20.5q-16 -17 -44 -30.5t-72 -13.5q-20 0 -40 7.5t-36 24t-26 41.5t-10 59
t6.5 61.5t23.5 51.5q-28 8 -56.5 25.5t-51.5 46t-38 71t-17 99.5q-1 56 -2.5 111.5t-2 105t0 93t1.5 77.5q1 26 15.5 39.5t31.5 13.5q16 0 27.5 -10.5t11.5 -37.5v-76q0 -55 1 -116.5t2 -116t2 -74.5q2 -30 9.5 -61t23.5 -56t41.5 -41t63.5 -16q63 0 106.5 43t49.5 137
q3 43 4 98.5t0.5 107.5t-1 95.5t-0.5 62.5q0 44 13.5 53t29.5 9q17 0 29 -13.5t13 -38.5q3 -59 3.5 -157.5t-3.5 -211.5z" />
    <glyph glyph-name="uogonek" unicode="&#x173;" 
d="M333 7q-28 -16 -48.5 -45.5t-20.5 -63.5q0 -25 10 -52t35 -27q18 0 29.5 3.5t20 7.5t18 8.5t22.5 5.5q11 1 17 -5.5t7 -16.5t-3 -21.5t-12 -20.5q-16 -17 -44 -30.5t-72 -13.5q-20 0 -40 7.5t-36 24t-26 41.5t-10 59q0 36 7 64t26 52q-4 0 -7.5 0.5t-7.5 0.5
q-25 2 -47 15.5t-38.5 32.5t-26 42t-10.5 45q-3 39 -4 76t-1 74q0 46 2.5 86.5t1.5 69.5q0 24 13.5 34.5t29.5 10.5q18 0 33.5 -10.5t15.5 -34.5q0 -23 -2.5 -63.5t-1.5 -87.5q0 -37 1 -73t6 -74q5 -37 21 -47t42 -10q44 0 87.5 21t72.5 43q1 31 1 65t-1 74q0 37 -1 81
t-3 72q0 21 12.5 32t28.5 12q17 0 33 -11t16 -33q3 -19 3.5 -53.5t1.5 -62.5q3 -82 3 -149v-132q0 -29 -13.5 -40t-29.5 -12q-19 -1 -35.5 9.5t-16.5 41.5v26q-10 -9 -24 -18.5t-30 -17.5q1 -3 0 -6.5t-5 -5.5z" />
    <glyph glyph-name="Wcircumflex" unicode="&#x174;" 
d="M424 744q-5 1 -20 27t-36 61t-45 74t-47 65q-21 -25 -44.5 -63.5t-45 -74t-38.5 -61.5t-23 -28q-24 -6 -38.5 -1.5t-21.5 17.5q-8 12 -3.5 26t18.5 34q12 17 34.5 49.5t47 68t47 68.5t35.5 52q4 7 13 8t17 1q7 0 15 -1.5t13 -7.5q13 -17 34 -48.5t43 -66t42 -67t32 -50.5
q14 -21 27.5 -39t5.5 -30q-7 -13 -22 -15.5t-40 2.5zM235 642q6 13 21 18t31 5q19 1 31 -6t15 -19q4 -17 9.5 -53.5t11.5 -83.5t12 -102t13 -110q6 -49 13.5 -96t14.5 -87q9 74 16 160.5t14 192.5q4 55 5.5 91t0.5 51q-1 31 13 48t31 16q20 -1 27 -21t7 -48q0 -15 -2.5 -56
t-6.5 -90q-5 -57 -11 -125.5t-12.5 -129.5t-14 -108.5t-15.5 -62.5q-10 -21 -30.5 -29t-36.5 -7q-13 0 -29 6t-22 28q-9 35 -19 99t-17 140q-4 38 -7.5 78t-6.5 77t-6 70.5t-6 58.5q-4 -48 -12 -125.5t-17 -156t-18 -146t-16 -95.5q-6 -22 -28 -28.5t-38 -5.5q-13 0 -35 4
t-26 35q-2 18 -10 61t-14 99t-11.5 119.5t-11 120.5t-9.5 101t-5 61q-2 30 5 48t22 25q16 7 35.5 -2t18.5 -40q0 -17 2.5 -58.5t6.5 -95.5t9.5 -118t11.5 -126q4 -41 8.5 -80t8.5 -74q7 54 17.5 144.5t22 179.5t22 160.5t17.5 87.5z" />
    <glyph glyph-name="wcircumflex" unicode="&#x175;" 
d="M426 534q-5 1 -20 27t-36 61t-45 74t-47 65q-21 -25 -44.5 -63.5t-45 -74t-38.5 -61.5t-23 -28q-24 -6 -38.5 -1.5t-21.5 17.5q-8 12 -3.5 26t18.5 34q12 17 34.5 49.5t47 68t47 68.5t35.5 52q4 7 13 8t17 1q7 0 15 -1.5t13 -7.5q13 -17 34 -48.5t43 -66t42 -67t32 -50.5
q14 -21 27.5 -39t5.5 -30q-7 -13 -22 -15.5t-40 2.5zM448 9q-7 -21 -23.5 -28t-35.5 -6q-16 0 -30.5 6.5t-22.5 26.5q-13 33 -21.5 75.5t-15 86.5t-11 86t-9.5 74q-18 -70 -32 -156t-44 -177q-5 -16 -18 -23.5t-24 -7.5q-12 0 -26 7.5t-21 29.5q-33 107 -56 211.5t-30 198.5
q-3 25 8.5 36.5t27.5 13.5t32 -6.5t20 -34.5q4 -42 10.5 -89.5t13.5 -93.5t14 -89t13 -75q7 38 16.5 89t18.5 101.5t18.5 95t16.5 69.5q6 22 19.5 29.5t29.5 6.5q13 -1 25.5 -8t19.5 -29q1 -6 7.5 -45.5t15.5 -93.5t20.5 -113.5t22.5 -103.5q7 33 13.5 77t12.5 91t12 94.5
t10 86.5q3 28 18.5 35.5t30.5 4.5q14 -3 24 -15.5t7 -41.5q-5 -41 -13.5 -96.5t-18.5 -110.5t-22 -106t-23 -83z" />
    <glyph glyph-name="Ycircumflex" unicode="&#x176;" 
d="M427 744q-5 1 -20 27t-36 61t-45 74t-47 65q-21 -25 -44.5 -63.5t-45 -74t-38.5 -61.5t-23 -28q-24 -6 -38.5 -1.5t-21.5 17.5q-8 12 -3.5 26t18.5 34q12 17 34.5 49.5t47 68t47 68.5t35.5 52q4 7 13 8t17 1q7 0 15 -1.5t13 -7.5q13 -17 34 -48.5t43 -66t42 -67t32 -50.5
q14 -21 27.5 -39t5.5 -30q-7 -13 -22 -15.5t-40 2.5zM513 588q-8 -19 -19 -38.5t-21 -43.5q-13 -31 -34 -67.5t-42 -82.5q-32 -72 -77.5 -161.5t-103.5 -205.5q-8 -16 -27 -23.5t-37 6.5q-13 10 -19 26.5t5 36.5q27 54 51.5 102.5t46.5 91.5q-25 46 -48 85t-42 75
q-29 53 -57.5 99t-46.5 95q-12 33 -3.5 51t23.5 25q16 8 38 2t33 -43q17 -56 42 -101t50 -88q16 -28 30 -55.5t25 -53.5l10 19q4 9 8 19q24 53 48.5 100t44.5 96q7 17 16.5 34t16.5 36q13 34 32.5 41t35.5 0q13 -7 23.5 -26t-2.5 -51z" />
    <glyph glyph-name="ycircumflex" unicode="&#x177;" 
d="M432 534q-5 1 -20 27t-36 61t-45 74t-47 65q-21 -25 -44.5 -63.5t-45 -74t-38.5 -61.5t-23 -28q-24 -6 -38.5 -1.5t-21.5 17.5q-8 12 -3.5 26t18.5 34q12 17 34.5 49.5t47 68t47 68.5t35.5 52q4 7 13 8t17 1q7 0 15 -1.5t13 -7.5q13 -17 34 -48.5t43 -66t42 -67t32 -50.5
q14 -21 27.5 -39t5.5 -30q-7 -13 -22 -15.5t-40 2.5zM513 397q-39 -92 -120 -254.5t-208 -413.5q-8 -16 -27 -23.5t-37 6.5q-13 10 -19 26.5t5 36.5q32 64 62.5 123.5t58.5 113.5q-57 108 -102.5 207t-73.5 173q-12 33 -3.5 51t23.5 25q16 8 38 2t33 -43q25 -81 63 -165.5
t71 -152.5q43 87 80 167t67 157q13 34 32.5 41t35.5 0q13 -7 23.5 -26t-2.5 -51z" />
    <glyph glyph-name="Ydieresis" unicode="&#x178;" 
d="M368 740q-28 -3 -44.5 16.5t-16.5 44.5q0 24 19 41t42 18q26 1 41.5 -16.5t15.5 -42.5q0 -24 -15.5 -41t-41.5 -20zM191 740q-28 -3 -44 16.5t-16 44.5q0 24 19 41t41 18q27 1 42.5 -16.5t15.5 -42.5q0 -23 -15.5 -40.5t-42.5 -20.5zM513 588q-8 -19 -19 -38.5t-21 -43.5
q-13 -31 -34 -67.5t-42 -82.5q-32 -72 -77.5 -161.5t-103.5 -205.5q-8 -16 -27 -23.5t-37 6.5q-13 10 -19 26.5t5 36.5q27 54 51.5 102.5t46.5 91.5q-25 46 -48 85t-42 75q-29 53 -57.5 99t-46.5 95q-12 33 -3.5 51t23.5 25q16 8 38 2t33 -43q17 -56 42 -101t50 -88
q16 -28 30 -55.5t25 -53.5l10 19q4 9 8 19q24 53 48.5 100t44.5 96q7 17 16.5 34t16.5 36q13 34 32.5 41t35.5 0q13 -7 23.5 -26t-2.5 -51z" />
    <glyph glyph-name="Zacute" unicode="&#x179;" 
d="M380 912q-30 -40 -69.5 -82t-66.5 -69q-19 -19 -39 -20.5t-30 8.5q-11 10 -7.5 30.5t21.5 37.5q33 30 64 74t57 80q13 16 35 17t35 -9q9 -10 11 -30t-11 -37zM44 49q0 8 7 28t32 64q15 26 53 85t83 125.5t89 130t71 98.5q-37 -1 -77 -1.5t-77.5 -1t-70.5 -1t-57 -1.5
q-22 -1 -31 12t-9 28q-1 16 15.5 31.5t40.5 15.5q31 0 57 -5.5t60 -5.5q68 -1 131 3.5t105 6.5q16 1 27.5 -14t12.5 -34q0 -6 -7.5 -16.5t-18 -22t-21.5 -24t-17 -22.5q-29 -47 -68 -103t-79.5 -115t-80 -120t-69.5 -118q105 7 191.5 7t129.5 -6q28 -5 37 -15t10 -23
q1 -16 -8.5 -29.5t-40.5 -13.5q-13 0 -57.5 1t-101 2t-116.5 1.5t-104 -1.5q-19 -1 -30 19t-11 35z" />
    <glyph glyph-name="zacute" unicode="&#x17a;" 
d="M375 702q-30 -40 -69.5 -82t-66.5 -69q-19 -19 -39 -20.5t-30 8.5q-11 10 -7.5 30.5t21.5 37.5q33 30 64 74t57 80q13 16 35 17t35 -9q9 -10 11 -30t-11 -37zM64 49q0 8 7.5 22.5t43.5 51.5q17 17 52.5 51t74.5 72t76 75t56 60q-73 -3 -143 -3t-114 7q-22 4 -31 14.5
t-9 25.5q-1 16 8 31t33 13q93 -10 174 -11t144 3q16 1 27.5 -14t12.5 -34q1 -13 -11 -33t-20 -33q-29 -44 -62 -79t-67.5 -66t-70 -62t-70.5 -67q96 6 157.5 6t103.5 -6q28 -5 37 -15t10 -23q1 -16 -8.5 -29.5t-40.5 -13.5q-13 0 -50 1t-84 2t-99 1.5t-96 -1.5
q-19 -1 -30 19t-11 35z" />
    <glyph glyph-name="Zdotaccent" unicode="&#x17b;" 
d="M281 743q-40 -4 -63 22.5t-23 58.5q0 33 27 55t59 24q37 1 59.5 -22t22.5 -55q0 -33 -22.5 -56t-59.5 -27zM44 49q0 8 7 28t32 64q15 26 53 85t83 125.5t89 130t71 98.5q-37 -1 -77 -1.5t-77.5 -1t-70.5 -1t-57 -1.5q-22 -1 -31 12t-9 28q-1 16 15.5 31.5t40.5 15.5
q31 0 57 -5.5t60 -5.5q68 -1 131 3.5t105 6.5q16 1 27.5 -14t12.5 -34q0 -6 -7.5 -16.5t-18 -22t-21.5 -24t-17 -22.5q-29 -47 -68 -103t-79.5 -115t-80 -120t-69.5 -118q105 7 191.5 7t129.5 -6q28 -5 37 -15t10 -23q1 -16 -8.5 -29.5t-40.5 -13.5q-13 0 -57.5 1t-101 2
t-116.5 1.5t-104 -1.5q-19 -1 -30 19t-11 35z" />
    <glyph glyph-name="zdotaccent" unicode="&#x17c;" 
d="M276 533q-40 -4 -63 22.5t-23 58.5q0 33 27 55t59 24q37 1 59.5 -22t22.5 -55q0 -33 -22.5 -56t-59.5 -27zM64 49q0 8 7.5 22.5t43.5 51.5q17 17 52.5 51t74.5 72t76 75t56 60q-73 -3 -143 -3t-114 7q-22 4 -31 14.5t-9 25.5q-1 16 8 31t33 13q93 -10 174 -11t144 3
q16 1 27.5 -14t12.5 -34q1 -13 -11 -33t-20 -33q-29 -44 -62 -79t-67.5 -66t-70 -62t-70.5 -67q96 6 157.5 6t103.5 -6q28 -5 37 -15t10 -23q1 -16 -8.5 -29.5t-40.5 -13.5q-13 0 -50 1t-84 2t-99 1.5t-96 -1.5q-19 -1 -30 19t-11 35z" />
    <glyph glyph-name="Zcaron" unicode="&#x17d;" 
d="M418 750q-25 14 -60 38t-79 58q-44 -34 -79 -58t-60 -38q-22 -13 -42 -9.5t-27 16.5q-8 12 0.5 31t30.5 31q37 19 75.5 54t72.5 62q7 5 14.5 7t15.5 2q7 0 14.5 -2.5t13.5 -6.5q34 -27 72.5 -62t75.5 -54q22 -12 30.5 -31t0.5 -31q-7 -13 -27 -16.5t-42 9.5zM44 49
q0 8 7 28t32 64q15 26 53 85t83 125.5t89 130t71 98.5q-37 -1 -77 -1.5t-77.5 -1t-70.5 -1t-57 -1.5q-22 -1 -31 12t-9 28q-1 16 15.5 31.5t40.5 15.5q31 0 57 -5.5t60 -5.5q68 -1 131 3.5t105 6.5q16 1 27.5 -14t12.5 -34q0 -6 -7.5 -16.5t-18 -22t-21.5 -24t-17 -22.5
q-29 -47 -68 -103t-79.5 -115t-80 -120t-69.5 -118q105 7 191.5 7t129.5 -6q28 -5 37 -15t10 -23q1 -16 -8.5 -29.5t-40.5 -13.5q-13 0 -57.5 1t-101 2t-116.5 1.5t-104 -1.5q-19 -1 -30 19t-11 35z" />
    <glyph glyph-name="zcaron" unicode="&#x17e;" 
d="M413 540q-25 14 -60 38t-79 58q-44 -34 -79 -58t-60 -38q-22 -13 -42 -9.5t-27 16.5q-8 12 0.5 31t30.5 31q37 19 75.5 54t72.5 62q7 5 14.5 7t15.5 2q7 0 14.5 -2.5t13.5 -6.5q34 -27 72.5 -62t75.5 -54q22 -12 30.5 -31t0.5 -31q-7 -13 -27 -16.5t-42 9.5zM64 49
q0 8 7.5 22.5t43.5 51.5q17 17 52.5 51t74.5 72t76 75t56 60q-73 -3 -143 -3t-114 7q-22 4 -31 14.5t-9 25.5q-1 16 8 31t33 13q93 -10 174 -11t144 3q16 1 27.5 -14t12.5 -34q1 -13 -11 -33t-20 -33q-29 -44 -62 -79t-67.5 -66t-70 -62t-70.5 -67q96 6 157.5 6t103.5 -6
q28 -5 37 -15t10 -23q1 -16 -8.5 -29.5t-40.5 -13.5q-13 0 -50 1t-84 2t-99 1.5t-96 -1.5q-19 -1 -30 19t-11 35z" />
    <glyph glyph-name="longs" unicode="&#x17f;" 
d="M125 71q10 0 30.5 -0.5t30.5 -1.5q1 17 -1.5 32.5t-2.5 36.5q0 5 -12 240q-17 -1 -46 -1q-40 0 -40 40q-2 41 39 41h45q-1 15 -1 43q0 108 74.5 161t187.5 53q20 0 32.5 -9.5t12.5 -27.5q0 -19 -10 -31.5t-25 -12.5q-83 0 -133.5 -39.5t-50.5 -102.5q0 -19 1 -33l3 -79
q1 -24 5 -120.5t6 -147.5q2 -42 2 -45q81 -3 121 -3q46 0 46 -36q0 -18 -12 -30.5t-36 -12.5q-1 0 -63 -1t-116 -0.5t-88 3.5q-25 1 -36 13.5t-10 30.5q0 41 47 40z" />
    <glyph glyph-name="uni01BF" unicode="&#x1bf;" 
d="M82 484q7 15 22 22.5t30 5.5t26 -14t7 -25q-4 -16 -6 -43q67 46 134 46q84 0 106 -6q56 -15 74 -86q11 -42 12 -111q1 -30 -10.5 -59.5t-26 -51.5t-46 -53.5t-51 -48.5t-62.5 -52q-19 -15 -50 -36.5t-52.5 -35l-21.5 -13.5q1 -84 3 -153q1 -23 -11.5 -35.5t-30.5 -12.5
q-45 2 -47 49q-11 220 -8 615q0 80 9 98zM160 331q0 -26 3.5 -144t4.5 -176q75 55 112 87q115 98 110 205q-2 39 -7 61.5t-16 30t-20 8.5t-27.5 -2.5t-28.5 -3.5q-31 0 -67.5 -16t-63.5 -39v-11z" />
    <glyph glyph-name="uni01F7" unicode="&#x1f7;" 
d="M151 144q2 -45 3.5 -69.5t2.5 -51.5q1 -20 -15.5 -31t-37.5 -10q-19 1 -32 12.5t-11 33.5q2 25 -5 399q-1 61 1 161l-5 5q-10 17 -1.5 34.5t23.5 20.5q33 8 98.5 12.5t91.5 4.5q109 0 165 -31t56 -120q0 -54 -20.5 -102.5t-50 -84t-78 -72t-88 -59t-97.5 -52.5zM264 589
q-32 0 -118 -8q0 -5 3 -357q84 45 135.5 85t83 93.5t31.5 117.5q0 24 -12.5 39t-37 21t-41.5 7.5t-44 1.5z" />
    <glyph glyph-name="Scommaaccent" unicode="&#x218;" 
d="M52 62q-13 25 -8 41.5t20 23.5q19 8 33 7t31 -26q16 -24 45 -40t69 -16q28 0 59 10t57 28.5t43.5 45t17.5 58.5q0 22 -6.5 44t-27.5 41t-62.5 34t-110.5 22q-34 4 -60.5 18t-44.5 33.5t-27 42.5t-9 44q0 39 17.5 76t51.5 65t84.5 45.5t116.5 17.5q10 0 28 -1t37.5 -3
t37 -5t26.5 -6q19 -7 26 -21.5t5 -29.5q-3 -23 -22.5 -24.5t-33.5 2.5q-20 5 -42.5 9.5t-69.5 4.5q-31 0 -61.5 -7.5t-54 -21.5t-38 -33.5t-14.5 -44.5q0 -35 31 -60.5t90 -28.5q67 -3 111 -22.5t69.5 -47.5t35.5 -61.5t10 -65.5q0 -55 -22.5 -99t-60.5 -74.5t-87.5 -47
t-103.5 -16.5q-69 0 -118.5 27.5t-67.5 61.5zM357 -253q-4 -18 -14.5 -56.5t-24 -79t-27 -76t-22.5 -47.5q-16 -21 -39 -28.5t-37 -2.5q-14 4 -23.5 20.5t3.5 36.5q10 15 25.5 51t30 76t26 76.5t14.5 52.5q4 21 23 25.5t34 0.5q13 -4 24 -16.5t7 -32.5z" />
    <glyph glyph-name="scommaaccent" unicode="&#x219;" 
d="M72 62q-7 29 -1 45.5t21 23.5q19 8 41 2t33 -33q11 -26 23.5 -38.5t52.5 -12.5q19 0 45.5 7.5t51 20.5t42 30t19.5 35q1 17 -18.5 27.5t-50.5 19t-70 17t-76 20.5q-54 18 -73 38.5t-19 60.5q0 72 81.5 116t249.5 44q9 0 16 -15.5t12 -35.5t8 -38.5t3 -23.5
q1 -16 -2.5 -32.5t-22.5 -22.5q-20 -7 -35.5 3.5t-19.5 21.5q-5 12 -9.5 23.5t-11.5 37.5q-25 0 -56.5 -4.5t-58.5 -14t-44.5 -24.5t-15.5 -35q1 -8 11.5 -14.5t25.5 -11.5t31.5 -8.5t29.5 -6.5q44 -9 83.5 -20.5t68.5 -28t44.5 -40t11.5 -54.5q-5 -41 -28 -73.5t-58 -54.5
t-81 -34t-96 -12q-51 0 -98 23t-60 72zM370 -247q-4 -18 -14.5 -56.5t-24 -79t-27 -76t-22.5 -47.5q-16 -21 -39 -28.5t-37 -2.5q-14 4 -23.5 20.5t3.5 36.5q10 15 25.5 51t30 76t26 76.5t14.5 52.5q4 21 23 25.5t34 0.5q13 -4 24 -16.5t7 -32.5z" />
    <glyph glyph-name="Tcommaaccent" unicode="&#x21a;" 
d="M88 667q19 -3 66 -5.5t103 -3.5t113.5 -2t97.5 -1q24 0 33 -12.5t10 -25.5q0 -15 -10 -30.5t-35 -14.5q-19 1 -57.5 2.5t-84.5 2.5q0 -48 1.5 -121t3.5 -150t4 -151t3 -124q-2 -21 -19 -32.5t-36 -10.5q-17 0 -30 12t-11 36q2 30 0.5 99.5t-4 150t-5 161.5t-1.5 133
q-46 2 -84 4t-57 5q-25 4 -36.5 13t-11.5 24q-1 15 10.5 30t36.5 11zM375 -268q-4 -18 -14.5 -56.5t-24 -79t-27 -76t-22.5 -47.5q-16 -21 -39 -28.5t-37 -2.5q-14 4 -23.5 20.5t3.5 36.5q10 15 25.5 51t30 76t26 76.5t14.5 52.5q4 21 23 25.5t34 0.5q13 -4 24 -16.5
t7 -32.5z" />
    <glyph glyph-name="tcommaaccent" unicode="&#x21b;" 
d="M433 -8q-29 -11 -62.5 -15t-62.5 -3q-69 2 -120 44.5t-53 123.5q-2 72 1.5 128.5t7.5 107.5h-46q-25 0 -32.5 13t-6.5 28q0 15 7.5 27.5t32.5 12.5h22q13 0 27 -1q1 32 0.5 66.5t-4.5 74.5q-1 13 7.5 27.5t25.5 14.5q16 0 36 -12t22 -25q2 -22 1.5 -61t-1.5 -87
q58 -1 111 -3t72 -2q25 0 32.5 -13t7.5 -28q-1 -13 -8.5 -24t-31.5 -11q-22 0 -73.5 0.5t-112.5 1.5q-1 -35 -3 -70t-3 -65.5t-1.5 -54.5t0.5 -38q2 -40 27 -67t70 -28q25 -1 53.5 3.5t57.5 17.5q14 6 25.5 -2t15.5 -26q4 -19 -9.5 -33.5t-31.5 -21.5zM376 -254
q-4 -18 -14.5 -56.5t-24 -79t-27 -76t-22.5 -47.5q-16 -21 -39 -28.5t-37 -2.5q-14 4 -23.5 20.5t3.5 36.5q10 15 25.5 51t30 76t26 76.5t14.5 52.5q4 21 23 25.5t34 0.5q13 -4 24 -16.5t7 -32.5z" />
    <glyph glyph-name="dotlessj" unicode="&#x237;" 
d="M333 -13q0 31 -6 129.5t1 254.5q-11 -1 -37 -1h-55q-29 0 -57 0.5t-43 0.5q-22 0 -35 15t-12 31q0 13 12.5 23.5t33.5 11.5q12 1 42 2t66 2t71.5 1.5t59.5 -0.5q15 0 24.5 -6.5t15 -16t7 -18.5t1.5 -13q-3 -24 -5.5 -38.5t-2.5 -36.5q0 -23 1 -63.5t2 -88.5t2 -101
t1 -100q0 -72 -28 -119t-72 -74.5t-98.5 -38.5t-105.5 -11q-19 0 -32 9t-13 28t12.5 33t27.5 14q42 0 82 9.5t71 30t50 53t19 78.5z" />
    <glyph glyph-name="circumflex" unicode="&#x2c6;" 
d="M432 464q-5 1 -20 27t-36 61t-45 74t-47 65q-21 -25 -44.5 -63.5t-45 -74t-38.5 -61.5t-23 -28q-24 -6 -38.5 -1.5t-21.5 17.5q-8 12 -3.5 26t18.5 34q12 17 34.5 49.5t47 68t47 68.5t35.5 52q4 7 13 8t17 1q7 0 15 -1.5t13 -7.5q13 -17 34 -48.5t43 -66t42 -67t32 -50.5
q14 -21 27.5 -39t5.5 -30q-7 -13 -22 -15.5t-40 2.5z" />
    <glyph glyph-name="caron" unicode="&#x2c7;" 
d="M420 593q-25 14 -60 38t-79 58q-44 -34 -79 -58t-60 -38q-22 -13 -42 -9.5t-27 16.5q-8 12 0.5 31t30.5 31q37 19 75.5 54t72.5 62q7 5 14.5 7t15.5 2q7 0 14.5 -2.5t13.5 -6.5q34 -27 72.5 -62t75.5 -54q22 -12 30.5 -31t0.5 -31q-7 -13 -27 -16.5t-42 9.5z" />
    <glyph glyph-name="breve" unicode="&#x2d8;" 
d="M118 633q12 -2 28 -14t35.5 -25t43 -24t49.5 -11t45 5t35.5 13.5t33 21t38.5 27.5q22 14 36.5 3t13.5 -26q0 -15 -6 -27.5t-24 -29.5q-24 -23 -64 -41t-107 -18q-34 0 -61 7.5t-47.5 17t-35 20t-22.5 16.5q-19 15 -25 27.5t-6 27.5q1 13 9 23.5t31 6.5z" />
    <glyph glyph-name="dotaccent" unicode="&#x2d9;" 
d="M278 600q-40 -4 -63 22.5t-23 58.5q0 33 27 55t59 24q37 1 59.5 -22t22.5 -55q0 -33 -22.5 -56t-59.5 -27z" />
    <glyph glyph-name="ring" unicode="&#x2da;" 
d="M259 519q-49 0 -76 28t-27 70q0 16 5 33.5t18.5 32.5t36 25t56.5 10q59 0 77 -32.5t18 -79.5q0 -31 -33 -59t-75 -28zM266 570q16 0 30.5 14.5t14.5 30.5q0 11 -8 32.5t-35 21.5q-25 0 -37.5 -16.5t-11.5 -36.5q1 -17 12 -31.5t35 -14.5z" />
    <glyph glyph-name="ogonek" unicode="&#x2db;" 
d="M333 7q-28 -16 -48.5 -45.5t-20.5 -63.5q0 -25 10 -52t35 -27q18 0 29.5 3.5t20 7.5t18 8.5t22.5 5.5q11 1 17 -5.5t7 -16.5t-3 -21.5t-12 -20.5q-16 -17 -44 -30.5t-72 -13.5q-20 0 -40 7.5t-36 24t-26 41.5t-10 59q0 40 9.5 71t34.5 58q22 24 41 35.5t37 11.5
q4 0 12.5 -4t15 -9.5t9 -12t-5.5 -11.5z" />
    <glyph glyph-name="tilde" unicode="&#x2dc;" 
d="M436 736q13 -4 14.5 -21.5t-5.5 -33.5q-27 -50 -54.5 -71.5t-52.5 -21.5q-31 0 -50 14.5t-36 37.5q-13 18 -21.5 25t-24.5 7q-18 0 -25 -12t-25 -44q-6 -10 -21 -13t-26 -1q-7 1 -13 9.5t-3 19.5q19 54 47.5 88t56.5 34q27 0 46 -6t40 -37q12 -17 21.5 -29t25.5 -12
t26.5 4t29.5 37q6 11 19 21.5t31 4.5z" />
    <glyph glyph-name="hungarumlaut" unicode="&#x2dd;" 
d="M314 720q-10 -18 -23.5 -40t-28 -44.5t-29.5 -43t-28 -35.5q-16 -19 -30.5 -21t-27.5 5t-12.5 24.5t13.5 39.5q9 15 20 35l22 40q11 20 20.5 39.5t16.5 32.5q10 20 28 22t33 -5q12 -5 24 -17.5t2 -31.5zM453 706q-20 -36 -57.5 -80.5t-63.5 -74.5q-16 -19 -29 -21t-26 5
t-12.5 24.5t13.5 39.5q19 30 44.5 71.5t38.5 68.5q10 20 26 23.5t31 -3.5q6 -3 14 -8t14.5 -12t9 -15.5t-2.5 -17.5z" />
    <glyph glyph-name="Wgrave" unicode="&#x1e80;" 
d="M309 761q-27 27 -66.5 69t-69.5 82q-13 17 -11 37t11 30q13 10 35 9t35 -17q26 -36 57 -80t64 -74q18 -17 21.5 -37.5t-7.5 -30.5q-10 -10 -30 -8.5t-39 20.5zM235 642q6 13 21 18t31 5q19 1 31 -6t15 -19q4 -17 9.5 -53.5t11.5 -83.5t12 -102t13 -110q6 -49 13.5 -96
t14.5 -87q9 74 16 160.5t14 192.5q4 55 5.5 91t0.5 51q-1 31 13 48t31 16q20 -1 27 -21t7 -48q0 -15 -2.5 -56t-6.5 -90q-5 -57 -11 -125.5t-12.5 -129.5t-14 -108.5t-15.5 -62.5q-10 -21 -30.5 -29t-36.5 -7q-13 0 -29 6t-22 28q-9 35 -19 99t-17 140q-4 38 -7.5 78
t-6.5 77t-6 70.5t-6 58.5q-4 -48 -12 -125.5t-17 -156t-18 -146t-16 -95.5q-6 -22 -28 -28.5t-38 -5.5q-13 0 -35 4t-26 35q-2 18 -10 61t-14 99t-11.5 119.5t-11 120.5t-9.5 101t-5 61q-2 30 5 48t22 25q16 7 35.5 -2t18.5 -40q0 -17 2.5 -58.5t6.5 -95.5t9.5 -118
t11.5 -126q4 -41 8.5 -80t8.5 -74q7 54 17.5 144.5t22 179.5t22 160.5t17.5 87.5z" />
    <glyph glyph-name="wgrave" unicode="&#x1e81;" 
d="M311 551q-27 27 -66.5 69t-69.5 82q-13 17 -11 37t11 30q13 10 35 9t35 -17q26 -36 57 -80t64 -74q18 -17 21.5 -37.5t-7.5 -30.5q-10 -10 -30 -8.5t-39 20.5zM448 9q-7 -21 -23.5 -28t-35.5 -6q-16 0 -30.5 6.5t-22.5 26.5q-13 33 -21.5 75.5t-15 86.5t-11 86t-9.5 74
q-18 -70 -32 -156t-44 -177q-5 -16 -18 -23.5t-24 -7.5q-12 0 -26 7.5t-21 29.5q-33 107 -56 211.5t-30 198.5q-3 25 8.5 36.5t27.5 13.5t32 -6.5t20 -34.5q4 -42 10.5 -89.5t13.5 -93.5t14 -89t13 -75q7 38 16.5 89t18.5 101.5t18.5 95t16.5 69.5q6 22 19.5 29.5t29.5 6.5
q13 -1 25.5 -8t19.5 -29q1 -6 7.5 -45.5t15.5 -93.5t20.5 -113.5t22.5 -103.5q7 33 13.5 77t12.5 91t12 94.5t10 86.5q3 28 18.5 35.5t30.5 4.5q14 -3 24 -15.5t7 -41.5q-5 -41 -13.5 -96.5t-18.5 -110.5t-22 -106t-23 -83z" />
    <glyph glyph-name="Wacute" unicode="&#x1e82;" 
d="M376 912q-30 -40 -69.5 -82t-66.5 -69q-19 -19 -39 -20.5t-30 8.5q-11 10 -7.5 30.5t21.5 37.5q33 30 64 74t57 80q13 16 35 17t35 -9q9 -10 11 -30t-11 -37zM235 642q6 13 21 18t31 5q19 1 31 -6t15 -19q4 -17 9.5 -53.5t11.5 -83.5t12 -102t13 -110q6 -49 13.5 -96
t14.5 -87q9 74 16 160.5t14 192.5q4 55 5.5 91t0.5 51q-1 31 13 48t31 16q20 -1 27 -21t7 -48q0 -15 -2.5 -56t-6.5 -90q-5 -57 -11 -125.5t-12.5 -129.5t-14 -108.5t-15.5 -62.5q-10 -21 -30.5 -29t-36.5 -7q-13 0 -29 6t-22 28q-9 35 -19 99t-17 140q-4 38 -7.5 78
t-6.5 77t-6 70.5t-6 58.5q-4 -48 -12 -125.5t-17 -156t-18 -146t-16 -95.5q-6 -22 -28 -28.5t-38 -5.5q-13 0 -35 4t-26 35q-2 18 -10 61t-14 99t-11.5 119.5t-11 120.5t-9.5 101t-5 61q-2 30 5 48t22 25q16 7 35.5 -2t18.5 -40q0 -17 2.5 -58.5t6.5 -95.5t9.5 -118
t11.5 -126q4 -41 8.5 -80t8.5 -74q7 54 17.5 144.5t22 179.5t22 160.5t17.5 87.5z" />
    <glyph glyph-name="wacute" unicode="&#x1e83;" 
d="M378 702q-30 -40 -69.5 -82t-66.5 -69q-19 -19 -39 -20.5t-30 8.5q-11 10 -7.5 30.5t21.5 37.5q33 30 64 74t57 80q13 16 35 17t35 -9q9 -10 11 -30t-11 -37zM448 9q-7 -21 -23.5 -28t-35.5 -6q-16 0 -30.5 6.5t-22.5 26.5q-13 33 -21.5 75.5t-15 86.5t-11 86t-9.5 74
q-18 -70 -32 -156t-44 -177q-5 -16 -18 -23.5t-24 -7.5q-12 0 -26 7.5t-21 29.5q-33 107 -56 211.5t-30 198.5q-3 25 8.5 36.5t27.5 13.5t32 -6.5t20 -34.5q4 -42 10.5 -89.5t13.5 -93.5t14 -89t13 -75q7 38 16.5 89t18.5 101.5t18.5 95t16.5 69.5q6 22 19.5 29.5t29.5 6.5
q13 -1 25.5 -8t19.5 -29q1 -6 7.5 -45.5t15.5 -93.5t20.5 -113.5t22.5 -103.5q7 33 13.5 77t12.5 91t12 94.5t10 86.5q3 28 18.5 35.5t30.5 4.5q14 -3 24 -15.5t7 -41.5q-5 -41 -13.5 -96.5t-18.5 -110.5t-22 -106t-23 -83z" />
    <glyph glyph-name="Wdieresis" unicode="&#x1e84;" 
d="M364 740q-28 -3 -44.5 16.5t-16.5 44.5q0 24 19 41t42 18q26 1 41.5 -16.5t15.5 -42.5q0 -24 -15.5 -41t-41.5 -20zM187 740q-28 -3 -44 16.5t-16 44.5q0 24 19 41t41 18q27 1 42.5 -16.5t15.5 -42.5q0 -23 -15.5 -40.5t-42.5 -20.5zM235 642q6 13 21 18t31 5q19 1 31 -6
t15 -19q4 -17 9.5 -53.5t11.5 -83.5t12 -102t13 -110q6 -49 13.5 -96t14.5 -87q9 74 16 160.5t14 192.5q4 55 5.5 91t0.5 51q-1 31 13 48t31 16q20 -1 27 -21t7 -48q0 -15 -2.5 -56t-6.5 -90q-5 -57 -11 -125.5t-12.5 -129.5t-14 -108.5t-15.5 -62.5q-10 -21 -30.5 -29
t-36.5 -7q-13 0 -29 6t-22 28q-9 35 -19 99t-17 140q-4 38 -7.5 78t-6.5 77t-6 70.5t-6 58.5q-4 -48 -12 -125.5t-17 -156t-18 -146t-16 -95.5q-6 -22 -28 -28.5t-38 -5.5q-13 0 -35 4t-26 35q-2 18 -10 61t-14 99t-11.5 119.5t-11 120.5t-9.5 101t-5 61q-2 30 5 48t22 25
q16 7 35.5 -2t18.5 -40q0 -17 2.5 -58.5t6.5 -95.5t9.5 -118t11.5 -126q4 -41 8.5 -80t8.5 -74q7 54 17.5 144.5t22 179.5t22 160.5t17.5 87.5z" />
    <glyph glyph-name="wdieresis" unicode="&#x1e85;" 
d="M367 530q-28 -3 -44.5 16.5t-16.5 44.5q0 24 19 41t42 18q26 1 41.5 -16.5t15.5 -42.5q0 -24 -15.5 -41t-41.5 -20zM190 530q-28 -3 -44 16.5t-16 44.5q0 24 19 41t41 18q27 1 42.5 -16.5t15.5 -42.5q0 -23 -15.5 -40.5t-42.5 -20.5zM448 9q-7 -21 -23.5 -28t-35.5 -6
q-16 0 -30.5 6.5t-22.5 26.5q-13 33 -21.5 75.5t-15 86.5t-11 86t-9.5 74q-18 -70 -32 -156t-44 -177q-5 -16 -18 -23.5t-24 -7.5q-12 0 -26 7.5t-21 29.5q-33 107 -56 211.5t-30 198.5q-3 25 8.5 36.5t27.5 13.5t32 -6.5t20 -34.5q4 -42 10.5 -89.5t13.5 -93.5t14 -89
t13 -75q7 38 16.5 89t18.5 101.5t18.5 95t16.5 69.5q6 22 19.5 29.5t29.5 6.5q13 -1 25.5 -8t19.5 -29q1 -6 7.5 -45.5t15.5 -93.5t20.5 -113.5t22.5 -103.5q7 33 13.5 77t12.5 91t12 94.5t10 86.5q3 28 18.5 35.5t30.5 4.5q14 -3 24 -15.5t7 -41.5q-5 -41 -13.5 -96.5
t-18.5 -110.5t-22 -106t-23 -83z" />
    <glyph glyph-name="Ygrave" unicode="&#x1ef2;" 
d="M312 761q-27 27 -66.5 69t-69.5 82q-13 17 -11 37t11 30q13 10 35 9t35 -17q26 -36 57 -80t64 -74q18 -17 21.5 -37.5t-7.5 -30.5q-10 -10 -30 -8.5t-39 20.5zM513 588q-8 -19 -19 -38.5t-21 -43.5q-13 -31 -34 -67.5t-42 -82.5q-32 -72 -77.5 -161.5t-103.5 -205.5
q-8 -16 -27 -23.5t-37 6.5q-13 10 -19 26.5t5 36.5q27 54 51.5 102.5t46.5 91.5q-25 46 -48 85t-42 75q-29 53 -57.5 99t-46.5 95q-12 33 -3.5 51t23.5 25q16 8 38 2t33 -43q17 -56 42 -101t50 -88q16 -28 30 -55.5t25 -53.5l10 19q4 9 8 19q24 53 48.5 100t44.5 96
q7 17 16.5 34t16.5 36q13 34 32.5 41t35.5 0q13 -7 23.5 -26t-2.5 -51z" />
    <glyph glyph-name="ygrave" unicode="&#x1ef3;" 
d="M317 551q-27 27 -66.5 69t-69.5 82q-13 17 -11 37t11 30q13 10 35 9t35 -17q26 -36 57 -80t64 -74q18 -17 21.5 -37.5t-7.5 -30.5q-10 -10 -30 -8.5t-39 20.5zM513 397q-39 -92 -120 -254.5t-208 -413.5q-8 -16 -27 -23.5t-37 6.5q-13 10 -19 26.5t5 36.5
q32 64 62.5 123.5t58.5 113.5q-57 108 -102.5 207t-73.5 173q-12 33 -3.5 51t23.5 25q16 8 38 2t33 -43q25 -81 63 -165.5t71 -152.5q43 87 80 167t67 157q13 34 32.5 41t35.5 0q13 -7 23.5 -26t-2.5 -51z" />
    <glyph glyph-name="endash" unicode="&#x2013;" 
d="M132 314q45 0 89 -1q43 0 79.5 -0.5t65.5 -1t46 -0.5q24 0 31.5 -11t8.5 -24q0 -15 -7.5 -28t-32.5 -13q-15 0 -49.5 -0.5t-75.5 -0.5t-83 -0.5t-71 -0.5q-25 0 -32.5 12.5t-7.5 27.5q-1 15 6.5 28t32.5 13z" />
    <glyph glyph-name="emdash" unicode="&#x2014;" 
d="M82 312q63 -1 123.5 -1t111.5 0.5t91 1t64 0.5t31.5 -11.5t8.5 -25.5q0 -15 -7.5 -28t-32.5 -13q-21 0 -69.5 -0.5t-105.5 -0.5t-115 -0.5t-99 -0.5q-25 0 -32.5 12.5t-7.5 27.5q-1 14 6.5 27t32.5 12z" />
    <glyph glyph-name="quoteleft" unicode="&#x2018;" 
d="M255 475q-7 13 -17 33t-20.5 42.5t-20 44.5t-15.5 40q-7 19 2 33.5t21 19.5q15 7 34 5t27 -22q6 -15 16 -36t21.5 -43t23 -42.5t19.5 -34.5q13 -22 -2 -36t-28 -21t-30.5 -6t-30.5 23z" />
    <glyph glyph-name="quoteright" unicode="&#x2019;" 
d="M352 625q-6 -18 -15 -41t-18.5 -46.5t-18.5 -44.5t-16 -34q-13 -22 -31.5 -29.5t-31.5 -0.5t-27 27.5t-1 42.5q8 14 19 35.5t21.5 44.5t19.5 45t15 37q8 20 27 22t34 -5q12 -5 21 -19.5t2 -33.5z" />
    <glyph glyph-name="quotesinglbase" unicode="&#x201a;" 
d="M280 663q5 -14 12 -35t14 -45t13 -47.5t10 -41.5q4 -20 -7 -32.5t-24 -16.5q-15 -4 -34 0.5t-23 25.5q-3 16 -10.5 38.5t-15.5 45.5t-16.5 45t-14.5 37q-9 23 7.5 35t30.5 16q14 5 31.5 2t26.5 -27z" />
    <glyph glyph-name="quotedblleft" unicode="&#x201c;" 
d="M333 515q-7 13 -17 33t-20.5 42.5t-20 44.5t-15.5 40q-7 19 2 33.5t21 19.5q15 7 34 5t27 -22q6 -15 16 -36t21.5 -43t23 -42.5t19.5 -34.5q13 -22 -2 -36t-28 -21t-30.5 -6t-30.5 23zM193 465q-7 13 -17 33t-20.5 42.5t-20 44.5t-15.5 40q-7 19 2 33.5t21 19.5
q15 7 34 5t27 -22q6 -15 16 -36t21.5 -43t23 -42.5t19.5 -34.5q13 -22 -2 -36t-28 -21t-30.5 -6t-30.5 23z" />
    <glyph glyph-name="quotedblright" unicode="&#x201d;" 
d="M292 675q-6 -18 -15 -41t-18.5 -46.5t-18.5 -44.5t-16 -34q-13 -22 -32.5 -27.5t-32.5 1.5t-28 21t-2 36q8 14 19.5 37t22.5 47.5t21 48t16 38.5q8 20 27 22t34 -5q12 -5 21 -19.5t2 -33.5zM432 625q-6 -18 -15 -41t-18.5 -46.5t-18.5 -44.5t-16 -34q-13 -22 -31.5 -29.5
t-31.5 -0.5t-27 27.5t-1 42.5q8 14 19 35.5t21.5 44.5t19.5 45t15 37q8 20 27 22t34 -5q12 -5 21 -19.5t2 -33.5z" />
    <glyph glyph-name="dagger" unicode="&#x2020;" 
d="M91 545h68q42 0 88 1v112q0 49 1 74q1 27 11 39t27 12q19 1 30.5 -10t11.5 -38q0 -24 -0.5 -73.5t-1.5 -114.5q54 0 96.5 0.5t53.5 0.5q24 0 31.5 -11t8.5 -24q0 -15 -7.5 -28t-32.5 -13q-10 0 -53.5 -1t-97.5 -2q-1 -83 -2 -175t-1.5 -174.5t-0.5 -150t1 -101.5
q-2 -21 -16 -32.5t-33 -10.5q-17 0 -26 12t-7 36q2 21 3 83.5t2 146.5t1.5 180t0.5 184q-51 -1 -94 -2t-61 -1q-25 0 -32.5 12.5t-7.5 27.5q-1 15 6.5 28t32.5 13z" />
    <glyph glyph-name="daggerdbl" unicode="&#x2021;" 
d="M91 348q12 0 56 -0.5t99 -0.5v61q0 30 1 59q-51 -1 -94 -2t-61 -1q-25 0 -32.5 12.5t-7.5 27.5q-1 15 6.5 28t32.5 13h68q42 0 88 1v112q0 49 1 74q1 27 11 39t27 12q19 1 30.5 -10t11.5 -38q0 -24 -0.5 -73.5t-1.5 -114.5q54 0 96.5 0.5t53.5 0.5q24 0 31.5 -11t8.5 -24
q0 -15 -7.5 -28t-32.5 -13q-10 0 -53.5 -1t-97.5 -2q0 -30 -0.5 -61t-0.5 -62q45 -1 86 -1h66q25 0 32.5 -13t6.5 -28q0 -15 -7.5 -27.5t-32.5 -12.5q-18 0 -60 1t-92 2q-1 -63 -1.5 -124.5t-0.5 -113.5v-94q0 -42 1 -67q-2 -21 -16 -32.5t-33 -10.5q-17 0 -26 12t-7 36
q1 15 2 53.5t1.5 91.5t1.5 118t1 133q-56 1 -100.5 2t-54.5 1q-25 0 -32.5 13t-7.5 28q1 13 8.5 24t31.5 11z" />
    <glyph glyph-name="bullet" unicode="&#x2022;" 
d="M278 314q-43 -4 -68 24t-25 63q0 34 29.5 58.5t63.5 25.5q40 1 64.5 -24t24.5 -59q0 -35 -24.5 -59.5t-64.5 -28.5z" />
    <glyph glyph-name="ellipsis" unicode="&#x2026;" 
d="M113 -12q-25 -3 -40 13.5t-15 36.5t17.5 34.5t37.5 15.5q24 1 38 -14t14 -35t-14 -34.5t-38 -16.5zM282 -12q-25 -3 -40 13.5t-15 36.5t17 34.5t38 15.5q24 1 38 -14t14 -35t-14 -34.5t-38 -16.5zM446 -12q-25 -3 -40 13.5t-15 36.5t17 34.5t38 15.5q24 1 38 -14t14 -35
t-14 -34.5t-38 -16.5z" />
    <glyph glyph-name="guilsinglleft" unicode="&#x2039;" 
d="M116 345q30 21 61.5 46t60 48.5t53.5 43t43 30.5q28 17 41.5 4.5t20.5 -27.5q5 -12 -2.5 -24t-32.5 -28q-43 -27 -77.5 -61t-86.5 -74q40 -29 77 -62.5t82 -64.5q25 -19 34 -32.5t3 -26.5q-7 -13 -21.5 -25.5t-41.5 3.5t-50.5 35.5t-48 41t-52 45t-62.5 48.5q-7 4 -11 15
t-4 23.5t3.5 24t10.5 17.5z" />
    <glyph glyph-name="guilsinglright" unicode="&#x203a;" 
d="M374 345q7 -6 10.5 -17.5t3.5 -24t-4 -23.5t-11 -15q-35 -25 -62.5 -48.5t-52 -45t-48 -41t-50.5 -35.5t-41.5 -3.5t-21.5 25.5q-6 13 3 26.5t34 32.5q45 31 82 64.5t77 62.5q-52 40 -86.5 74t-77.5 61q-25 16 -32.5 28t-2.5 24q7 15 20.5 27.5t41.5 -4.5
q18 -11 43 -30.5t53.5 -43t60 -48.5t61.5 -46z" />
    <glyph glyph-name="fraction" unicode="&#x2044;" 
d="M498 632q-18 -34 -55.5 -98t-79.5 -133.5t-80.5 -134.5t-57.5 -100q-12 -22 -25 -49t-25.5 -53t-23.5 -47.5t-17 -32.5q-15 -26 -38 -36t-40 0q-13 7 -16.5 34.5t10.5 49.5q15 24 41 67.5t57.5 97t67 114.5t68.5 120q43 75 77 141t52 102q12 23 33 28t37 -3t21.5 -26
t-6.5 -41z" />
    <glyph glyph-name="Euro" unicode="&#x20ac;" 
d="M98 425h9q6 0 10 -1q18 56 46 101t60.5 76.5t67.5 48.5t68 17q43 0 75.5 -11.5t43.5 -22.5q13 -13 11 -26t-1 -23q0 -8 -12 -15t-26 -13q-7 -3 -15.5 2t-19 12.5t-22.5 14t-27 6.5q-42 0 -89 -47t-76 -121q37 0 73 0.5t67 0.5t55 0.5t36 0.5q24 0 31.5 -11t8.5 -24
q0 -15 -7.5 -29t-32.5 -12q-12 1 -39.5 1t-63 -0.5t-75.5 -1.5t-75 -2q-2 -14 -3.5 -28.5t-2.5 -29.5q40 0 81 0.5t75.5 1t62 1t40.5 0.5q24 0 31.5 -11t8.5 -24q0 -15 -7.5 -29t-32.5 -12q-12 1 -39.5 1t-63.5 -0.5t-76.5 -1.5t-76.5 -2q3 -33 11 -63t22 -52t36.5 -35.5
t53.5 -13.5q27 0 47.5 8.5t36.5 21t29 26.5t26 24q16 11 31 16t29 -5q13 -10 15.5 -27t-19.5 -42q-13 -15 -33 -31t-47 -29t-62 -21.5t-78 -7.5q-35 0 -66 19.5t-55.5 52t-40.5 74t-21 84.5h-2q-25 0 -35.5 12.5t-10.5 27.5q-1 15 11 26.5t37 10.5q1 15 2.5 29.5t3.5 27.5
q-22 1 -33 13t-11 26q-1 15 9.5 28.5t35.5 12.5z" />
    <glyph glyph-name="arrowleft" unicode="&#x2190;" 
d="M48 356q52 34 102 75.5t80 66.5q21 17 33.5 5t18.5 -23q7 -14 -3 -27.5t-36 -33.5q-23 -19 -43 -34t-42 -31q44 0 93.5 3t93 7t78 7t49.5 3q24 0 31.5 -14t8.5 -31q0 -19 -7.5 -36t-32.5 -15q-15 1 -53 3.5t-84.5 5t-95 4.5t-82.5 3q24 -18 48.5 -37.5t52.5 -42.5
q16 -13 21 -24.5t0 -21.5t-18 -21t-34 4q-46 34 -82 68.5t-96 74.5q-6 3 -9.5 11.5t-3.5 18t3 19t9 13.5z" />
    <glyph glyph-name="arrowup" unicode="&#x2191;" 
d="M303 550q34 -52 75.5 -102t66.5 -80q17 -21 5 -33.5t-23 -18.5q-12 -5 -23.5 2t-27.5 27q-20 27 -38 48.5t-37 46.5q0 -44 3 -93.5t7 -93t7 -78t3 -49.5q0 -24 -14 -31.5t-31 -8.5q-19 0 -36 7.5t-15 32.5l4 52q2 38 4.5 84t4.5 93.5t3 82.5q-16 -23 -34 -47t-40 -51
q-18 -22 -31 -29.5t-25 -1.5q-10 5 -21.5 18t4.5 34q37 48 70.5 86.5t76.5 101.5q3 6 11.5 9.5t18 3.5t19 -3t13.5 -9z" />
    <glyph glyph-name="arrowright" unicode="&#x2192;" 
d="M79 379q15 0 48.5 -2.5t76.5 -5.5t91 -5.5t92 -2.5q-28 22 -52.5 42t-52.5 39q-16 10 -19.5 21t0.5 20q6 11 18 22.5t34 -4.5q28 -21 81.5 -64t106.5 -78q6 -4 9 -13.5t3 -19t-3.5 -18t-9.5 -11.5q-63 -43 -101.5 -80.5t-86.5 -66.5q-22 -13 -34.5 -3t-17.5 20
q-6 12 1 26t30 30q27 17 50.5 35t45.5 35q-35 -1 -82.5 -2.5t-93 -3t-82.5 -3.5t-52 -3q-25 -2 -32.5 15t-7.5 36q1 17 8.5 31t31.5 14z" />
    <glyph glyph-name="arrowdown" unicode="&#x2193;" 
d="M313 105q-4 -6 -13.5 -9t-19 -3t-18 3.5t-11.5 9.5q-43 63 -76.5 101.5t-70.5 86.5q-16 21 -4.5 34t21.5 18q12 6 25 -1.5t31 -29.5q22 -27 40 -51t34 -47q-1 35 -3 82.5t-4.5 93.5t-5.5 83l-3 53q-2 25 15 32.5t36 7.5q17 -1 31 -8.5t14 -31.5q0 -15 -3 -49t-7 -77.5
t-7 -92.5t-3 -94q19 27 36.5 49.5t38.5 50.5q16 20 27.5 27t23.5 2q11 -6 23 -18.5t-5 -33.5q-25 -31 -66 -82.5t-76 -105.5z" />
    <glyph glyph-name="universal" unicode="&#x2200;" 
d="M60 675q16 7 34 -1t30 -39q7 -19 19.5 -72.5t27.5 -124.5q18 1 43 2.5t53.5 4t59 6t58.5 7.5q22 62 38.5 110.5t22.5 66.5q10 31 27.5 39t33.5 1q15 -7 21 -24.5t-1 -46.5q-3 -15 -17.5 -54.5t-36.5 -91.5q8 -5 12.5 -12.5t4.5 -14.5q1 -13 -12.5 -25t-32.5 -18
q-21 -50 -45 -102.5t-47 -100t-45 -88t-40 -66.5q-13 -18 -24 -27t-24 -9q-16 -1 -31 6.5t-19 29.5q-8 47 -25.5 136.5t-37.5 180t-38.5 164.5t-28.5 92q-14 26 -4.5 45t24.5 26zM238 110q12 18 26 47t29.5 64t31 75t30.5 80q-51 -6 -94.5 -9t-74.5 -4q13 -64 26.5 -130
t25.5 -123z" />
    <glyph glyph-name="existential" unicode="&#x2203;" 
d="M87 646q16 -1 57.5 1.5t92.5 5.5t104 5t90 -1q20 -1 42 -20.5t26 -49.5q3 -21 3 -60.5t-0.5 -90t-0.5 -110t2 -121.5q2 -66 0.5 -102.5t-2.5 -69.5q-1 -27 -15 -39t-31 -12q-11 -1 -21 3t-17 13q-43 -6 -93 -8.5t-97 -2.5t-87 2t-62 5q-24 3 -31.5 12.5t-8.5 22.5
q0 15 7.5 29t32.5 12q42 -3 88 -4t89 0t83 4t70 7q1 37 2.5 84t1.5 107q-45 0 -94.5 -2.5t-93.5 -5t-79.5 -4.5t-51.5 -2q-24 0 -31.5 11t-8.5 24q0 15 7.5 28t32.5 13q15 0 55 3t88 6.5t96 6.5t79 3q-1 32 -1 68t-1 67.5t-2.5 55.5t-4.5 33q-10 4 -53 4t-93 -2t-95.5 -5.5
t-60.5 -6.5q-40 -7 -50.5 9.5t-11.5 29.5q0 15 11 30.5t38 13.5z" />
    <glyph glyph-name="uni2204" unicode="&#x2204;" 
d="M87 646q16 -1 57.5 1.5t92.5 5.5t104 5t90 -1q20 -1 42 -20.5t26 -49.5q3 -21 3 -60.5t-0.5 -90t-0.5 -110t2 -121.5q2 -66 0.5 -102.5t-2.5 -69.5q-1 -27 -15 -39t-31 -12q-11 -1 -21 3t-17 13q-43 -6 -93 -8.5t-97 -2.5t-87 2t-62 5q-24 3 -31.5 12.5t-8.5 22.5
q0 15 7.5 29t32.5 12q42 -3 88 -4t89 0t83 4t70 7q1 37 2.5 84t1.5 107q-45 0 -94.5 -2.5t-93.5 -5t-79.5 -4.5t-51.5 -2q-24 0 -31.5 11t-8.5 24q0 15 7.5 28t32.5 13q15 0 55 3t88 6.5t96 6.5t79 3q-1 32 -1 68t-1 67.5t-2.5 55.5t-4.5 33q-10 4 -53 4t-93 -2t-95.5 -5.5
t-60.5 -6.5q-40 -7 -50.5 9.5t-11.5 29.5q0 15 11 30.5t38 13.5zM498 632q-18 -34 -55.5 -98t-79.5 -133.5t-80.5 -134.5t-57.5 -100q-12 -22 -25 -49t-25.5 -53t-23.5 -47.5t-17 -32.5q-15 -26 -38 -36t-40 0q-13 7 -16.5 34.5t10.5 49.5q15 24 41 67.5t57.5 97t67 114.5
t68.5 120q43 75 77 141t52 102q12 23 33 28t37 -3t21.5 -26t-6.5 -41z" />
    <glyph glyph-name="minus" unicode="&#x2212;" 
d="M98 396q45 -1 102 -2q56 -1 109 -1h94h59q24 0 31.5 -12t8.5 -25q0 -15 -7.5 -30t-32.5 -13q-16 1 -63.5 1t-104 -0.5t-111.5 -1.5t-84 -1q-25 0 -35.5 13.5t-10.5 28.5q-1 15 9.5 29.5t35.5 13.5z" />
    <glyph glyph-name="lessequal" unicode="&#x2264;" 
d="M64 416q38 28 87.5 58.5t99.5 58.5t95.5 52.5t75.5 41.5q29 16 51 7.5t26 -16.5q7 -16 -2.5 -32t-40.5 -33q-61 -34 -140 -81.5t-154 -99.5q30 -20 67.5 -40t77.5 -40t79.5 -39.5t72.5 -37.5q31 -18 41 -31t3 -26q-7 -15 -26 -27.5t-50 4.5q-37 21 -81.5 42.5t-91.5 46
t-95.5 52.5t-93.5 61q-17 10 -18 38t17 41zM88 66q48 -1 108 -2q59 -1 115 -1h99h62q24 0 31.5 -12t8.5 -25q0 -15 -7.5 -30t-32.5 -13q-16 1 -66.5 1t-110 -0.5t-117.5 -1.5t-89 -1q-25 0 -35.5 13.5t-10.5 28.5q-1 15 9.5 29.5t35.5 13.5z" />
    <glyph glyph-name="greaterequal" unicode="&#x2265;" 
d="M492 416q18 -13 17 -41t-18 -38q-45 -33 -93.5 -61t-95.5 -52.5t-91.5 -46t-81.5 -42.5q-31 -17 -50 -4.5t-26 27.5q-7 13 3 26t41 31q33 18 72.5 37.5t79.5 39.5t77.5 40t67.5 40q-75 52 -154 99.5t-140 81.5q-31 17 -40.5 33t-2.5 32q4 8 26 16.5t51 -7.5
q30 -17 75.5 -41.5t95.5 -52.5t99.5 -58.5t87.5 -58.5zM80 63h62h100q55 0 114.5 1t107.5 2q25 1 35.5 -13.5t9.5 -29.5q0 -15 -10.5 -28.5t-35.5 -13.5q-31 0 -89 1t-117.5 1.5t-110 0.5t-66.5 -1q-25 -2 -32.5 13t-7.5 30q1 13 8.5 25t31.5 12z" />
    </font>
</defs>
</svg>
